<mxfile host="app.diagrams.net" agent="Mozilla/5.0 (X11; Linux x86_64) AppleWebKit/537.36 (KHTML, like Gecko) Chrome/139.0.0.0 Safari/537.36" version="28.1.2">
  <diagram name="Page-1" id="Rq-C_px4yPYH3Z_O5kRZ">
    <mxGraphModel grid="1" page="1" gridSize="10" guides="1" tooltips="1" connect="1" arrows="1" fold="1" pageScale="1" pageWidth="827" pageHeight="1169" math="0" shadow="0">
      <root>
        <mxCell id="0" />
        <mxCell id="1" parent="0" />
        <mxCell id="Sa5Q3vqMQas_lql_X_UZ-16" style="edgeStyle=orthogonalEdgeStyle;rounded=0;orthogonalLoop=1;jettySize=auto;html=1;entryX=0.5;entryY=0;entryDx=0;entryDy=0;exitX=0.419;exitY=0.968;exitDx=0;exitDy=0;exitPerimeter=0;" edge="1" parent="1" source="Sa5Q3vqMQas_lql_X_UZ-2" target="Sa5Q3vqMQas_lql_X_UZ-3">
          <mxGeometry relative="1" as="geometry" />
        </mxCell>
        <mxCell id="Sa5Q3vqMQas_lql_X_UZ-2" value="" style="shape=image;verticalLabelPosition=bottom;labelBackgroundColor=default;verticalAlign=top;aspect=fixed;imageAspect=0;image=data:image/png,iVBORw0KGgoAAAANSUhEUgAAAgAAAAIACAYAAAD0eNT6AAAABHNCSVQICAgIfAhkiAAAAAlwSFlzAAALEwAACxMBAJqcGAAAABl0RVh0U29mdHdhcmUAd3d3Lmlua3NjYXBlLm9yZ5vuPBoAACAASURBVHic7d13uF1Fvf/x9znpjU4gkJDQexcRKYoCIoheVLCAeL2KDRs2vN6rYgc76rWLvYH6Q5oINlSa0nvvoYROAqkn5/fHZJuTw97n7LJmfWbW+rye5/sEuN7MfGevvWfWrFkzfZhZGSYD04EZwLrAGk1iNWB1YMKK//0UYPyK/9Y/5O+aBowd9vcvA+YP+fflwBPAEuCpFbFkxX97Eni8ScwDHgAeBBb2nLGZJa1PXQGzClgP2AiYCcwa8s8zV/zf1gemymrXnQXA/YRBwT3AvSv+vHvIPz8oq52Z9cwDALP2rA9sA2wKbDbsz9w696IsAG4Fbhv25/V4cGCWPA8AzFa1NrATsC2hw99mxT+vpaxUhh4BrgNuWPHn9cAVwKPKSpnZSh4AWJ3NBHYBdh4SG0lrVH13EQYCVwBXApcBc6U1MqspDwCsLqYQOvhdV8RewMbSGlnD/YSBwGXAP4ALgaelNTKrAQ8ArKrWIXTyzwP2AXbgmSvnLU3LgKuAvwHnEwYFj0hrZFZBHgBYVawG7Ae8kNDpb4Ov76oYJKwjOB/404p4UlojswrwD6TlbBPgEOAlhLv88drqWEkGCOsHzgTOAC4nDBLMrAMeAFhOpgL7Ejr8gwiL+MzmEWYHGgOCx7TVMcuDBwCWup2Bg4EDgecAY7TVscQtAy4CzgHOIqwlMLMmPACwFG0LHAa8GthSXBfL253A6cCphMWEZraCBwCWikanfziwtbguVk13AKcAPyZsTGRWax4AmNLGwEuB1xHezTcry/WEWYFfAjeK62Im4QGAlW0D4PWE6f0dxHUxg/BGwS8JMwP3i+tiZlYp/YR39E8hHEk76HAkGMuA8wiPorxplFWeZwAspg2BI4G3AbPFdTHrxH3AT4BvE9YOmJnZKMaw8m5/Gfq7Ooejlxhg5azAOMwqxDMAVpTNgaMJz/eni+tiFsODwA+B7wG3aqtiZqa3F77bd9QrBgg7Du6HmVnN9BP24L8Q/Y+xw6GMy4Cj8KJBy5AfAVgnpgKvBd4HbCGui1lK7gS+tSKe0FbFrD0eAFg71gfeCrwTWEtcF7OUPUlYJ/AF4B5tVczMurctYXOUxeinWh2OnGIx8AO8rbWZZWZjwvvPXtjncPQWA4RFsn5kZmZJm03o+Jei/+F0OKoUjYHAZpiZJWQWcBKwCP0PpcNR5VhCeKy2MWZmQusCJwAL0f8wOhx1isWE2bYNMBPxWwD1NB04jrBH/yRxXczq7GngG8DngIfEdbGaGaOugJVqHOFVvt8C++K9zc3UxgHPBd4OjAcuIqwXMDMrzCGE/cvVU58Oh6N13EI4eMgsOj8CqL6tgC8BL1ZXxMza9mfgWOBqdUWsuvrVFbBo1iE8W7wWd/4pe7KmZdvIXkA4Z+DrwNriuphZJsYBbyYsKFJPZzpax6UrPqepwjpMJEw3/yOB9nC0jkcJi3bHY2bWwoHADeh/sBzNYzlwFuEI5aFU9Rlq7xV1W55AOzmax3XA/piZDbEu8DP0P1CO1nE6sGOLz09Vp2Z2Ipx1r24vR+v4MeERn5nV3OvwdH/KcSHh7nokqrqNZB/CK2nq9nM0j3nAES0/PTOrtDnAOeh/iBzN4xHg3bS30FZVx9H0AUcBDwrr6Bg5ziac4WFmNTAGeA+wAP2Pj6N5nExnK7dV9WzXWsD3hfV0jBzzgXfht7rMKm174GL0PziO5vEA8NKWn15rqvp26kXAPcL6OkaOy4FdWn56ZpalicCnCCeJqX9kHM3jVMKdcjdUde7GWsCvhXV2jByLgU8AE1p9gGaWj22AK9D/sDiaxxLCO9q97Kqpqnsv3oyPj045rqX1Wydmlrg+wrN+H9WbbtwLPKvVB9gBVf179SxCG6g/B0fzWEg4/MtbvptlZAb1XeG/BPgj6W9IcwWwYasPsEOqHIqwIenPUC0nXFN1fYR2NrBeqw/Q6surRtPzIsJinhepK1Kye4ETgU0J+xqkfNdyLvA8YK66IgmYS9jn4Ax1RUbQBzwObAR8CLhNW53SvRi4hu4WqJpZCSYBJ5H+nW+RsZjQcRxGeL0R4OgE6jVSfAcY2+wD7IEqlyKNAb4qzKWdeOOKuvYD+wGnEK5Bdb3KjB8DU5p9gGamsQv12sP/XuC/genD2mFr4KkE6tcsBgjHs8agyimG9xDaSv15NYsFhOOxh1qPcC3OTaB+ZcX1hC2fzUyoD/gg9bkLuQw4knBi4XATgCsTqGOzGGDl3WMMqrxi+S/SHQRcQfNX5MYTttW+PIE6lhGLgPeS9qM2s8qaRj3epx4AzgMOGaU9Tkygrs1iOfC2UereK1VuMb2BdAcBnxml7nsRHg8sS6CuseN0YPVR2sPMCrQNcCP6L3/MWAj8H7B5G+2xB2n+2A4Ab2qj/r1S5RfbG0lzELAMeE4b9d8c+AbVfxX3ep75aMTMIngZYUWy+ksfKxYB36b9V+QmAzclUO/hUcadf4MqxzKk+jjgVmBqmzlMB04g3fUpRcR8wmJcM4tgLPB5qrvKfz5hGn/4wr7RpLhyfDlhp7uyqPIsy5tJ87r/Sod5rAd8jnCtq+se67o/gZVv5JhZAaYDf0b/BY8RTxDOKejk9LuGPUnz7vCjXeTSC1WeZfpIwXUvIgYIj586tQ7wacK1r84hRvxxRY5m1qPdqeYJak8T7hbW7LJdxhE2J1HnMTxO7jKfXqhyLdvJPdY3RlxF9/s6rEWYEXg6gTyKjruA3bpsFzMjbGpTtQNTlgHfA2b22DbHJZDL8DiP5q8oxqbKt2zjCG2s/pyHxwd6zGsWYXCT4kLWXmIhcV9/NaukPuB49F/gouM8YIcC2mcjwqYs6nyGxnXAGgXk1g1Vzgqrkd5+D08BGxeQ21aE1wdTXO/QS5yEt403a8sk4Dfov7RFxj8Iz+uLcmYCOQ2NuYS7OBVV3iqzSG/nvdMLzG8v4IIEcioyTiX8tplZC9OBi9F/WYuKe4BXU+xuYa9IIK+hsZiwTkNJlbvSs0lvB8xDC8yvD3gN1Vr/cyGwboFtZFYZmwE3o/+SFhFLCNN+0wptofD3pXZ+/NsLzrEbqtzVjkH/+Q+N+yh+V7zJhMeBVdlM6Da8aZDZKp5LOMJW/eUsIs4j3hf8pATyGxq/iJRnp1T5p+BH6K+DofGlSHluSlgfoM6viHiUcBy2We0dSXpTmd3EjcCBBbfNULuS1irpa0nnWFRVG6RgCuGzUF8PjVgG7Bwx34NIc+fLTmMR4RGHWS31ETaMyX3F72Lg4zQ/Ia0ofYTnh+pcG/EkaU1jqtohFVsRPhP1ddGIf8RNl4nAJwmP2tS59hLLgQ8X3DZmyRtDeBde/QXsNS4Ctiu4bZp5pSi/VnF43HQ7pmqHlByO/roYGi+Pmy4A21ONRcPfwq8JWk2MAX6M/kvXSzxF2IinjD2/x5PW4sgfxE23K6q2SM0P0V8fjbiNcO3G1k84KyGlGZBu4hdoNtEyK8144Lfov2y9xNnA7KIbZgTviZRHN3EP3W9dHJOqPVKzGnAn+uukEe+Imu2qNgD+X6Q8yoozCI83zCpnMnAu+i9Zt/E4cFThrTKyNYCHC6h7ETEA7Bs33a6p2iRF+5LOAVHzKP61wNG8nryPCz+H8FtpVhlTgT+h/3J1GxcQXkMq2+e6rG+M+GLkXHuhapNUfQn99dKIz0bOtZmNyPv00L8RZnPMsrcmYbGc+kvVTSwkPOtXLNCZSTqnpF1P2tuYqtolVROAq9FfN43v0EZx022qD3g3+R4mdik+Utgytx7p/BB1GldQzgr/Vn7aol5lx1LCHgQpU7VNynYhndfkfhQ515FsT3qHJ7UbVxF+Q82yM5OwOY76S9RpDAAnUM4K5lZ2JZ3nuJ+PnGsRVG2TuhPRXz+N79ROkXMdyQRCW+S458iN9H50uFmpZgK3o//ydBrzgBdFaI9O/RF9WwwSVpSnstvfSFTtk7rJwB3or6NB4A+Rc23HgeS55fhteBBgmViX8MxY/aXpNC4B5hTfHB3bA31bNOKQyLkWRdU+OTgQ/XXUiCKPxO7WhsDf0bdFp3EzsH6E9jArzBrA5ei/LJ3EcsIhO6lswvEH9G0ySDh4JReqNsrFqeivp0HgrNiJtmks4YTBVB6ztRtXA2sX3xxmvVsN+Cf6L0kn8TDhcJFU7I6+TQaBJwh3SrlQtVMu1gceQ39dDQLPjpxrJ14IPIC+TTqJSyj+mHGznkwmvLuq/nJ0EhcDs2I0Rg/ORN8ug4Rz5nOiaqecvAP9dTUInB470Q7NIr/zBM7HmwVZIsYTtsdVfyk6iZ+S3nvtO5PGKuUrKeeMgyKp2ionYwivlamvr0HgWZFz7dQE4Pvo26WTOA9vG2xiY0jn+WI7sYywsU+KTkPfPoPA/rETjUDVVrnZF/31NUg4DyRFbyadvRPaidMI6xnMStcP/Bz9l6DdeBjYL0pL9G5H0rj7Py12opGo2itHp6O/zpYTrvkU7QM8iL6N2o1TyW/GzjLXB3wP/cXfblwFbBylJYrxa/RttBjYInaikajaLEdbksZd7qmxE+3BJuS1g+m34jSDWXMfRX/Rtxv/j7Q3s9mONF5H+nLsRCNStVmuvoL+ehsAto2daA+mAr9D307txofjNIPZqo4kjenqduKrpD899mP07fQw4dCmXKnaLVdrkcYx08ozAtoxBvg6+nZqJ5YDr4nTDGbB8wlTxeqLfbQYAN4bpwkKtQFptOe7YycamardcnYs+utuMTAjdqIFeD9pzNKNFouAvSO1gdXcVsCj6C/ydr4Er47UBkX7NPr2mkt6r0R2StV2OZsI3I3++vtk7EQL8nLSOZ57pHiEsM7DrDDrALegv7jbufhzGQFPIo2DSY6OnWgJVG2Xu7egv/4eIp8B6HMIB4ap22y0uA2YHqkNrGYmk8dOWbeT1yr2N6Nvs1tI5wyEXqjaL3fjgFvRX4dvip1ogbYknRMWR4oL8EZB1qN+4DfoL+bR4gbyOi6zjzROTDwidqIlUbVfFbwO/XV4LeE7kYsZwDXo2220OIXwG27WlS+hv4hHi8sJRxDn5MXo2+1aqvPjoGrDKhgDXIf+ejwgdqIFmw5cgb7dRosTYjWAVVsKU9Sjxd+B1WM1QEQpHPn78uhZlkfVhlXxCvTX49nRsyzeGoSpdnXbjRZviNUAVk27E1bTqy/ckeLPhM06crMt+n0UrqM6d/+ga8eq6EM/pb0c2Dp2ohFMJo0B/UixENgtVgNYtUwH7kF/0Y4UvyGc4JWj76Jvv9dGz7JcqnaskiPRX5e5bmk7gXQO82oVdxLe5jJraQxwLvqLdaT4DfmegLU68BTa9ruNfNuvFVVbVskY9K/6LgBWi51oJGOAX6D/fRwp/kT6O6Oa0BfRX6QjxW/J+7W1Y9C34ZujZ1k+VVtWzVvRX59viZ5lPOMIZ4+o23Ck+Gy07C1rh6J/Nj1SnE2+0/4Nl6Ntw/up5rvBqvasmgmEnSGV1+il0bOMazxpHyK0HHhltOwtS1sCT6C/OFvFOeTfce2Gvh1zOB+hG6r2rKL3o79Od4meZVzjgTPQt2OrmA9sEy17y8rqwE3oL8pWUYXOH+DbaNvxUfJ8a6Idqjatoqnoz/z4ZvQs45tI2m8HXAdMi5a9ZaGPtFev/ol89gkfyVTgSbRteWL0LHVUbVpVn0N7rT4OTImeZXyTCL9h6t/RVnEqee3AaAX7IPqLsFX8i+qMUN+Iti2XALOiZ6mjateq2ghYivaarcrmNdMI6xrUv6et4th4qVvKdiGNs+ibxS3AevFSL536MKWfx09RStWuVfYrtNfsBfFTLM06hPNK1L+rzWIRsFO81C1Fk0n3gpwLzImWefm2R9+mu0fPUkvVrlW2B/rrdtvoWZZnFnA3+jZtFtdRjUet1ib1grRW8QjV+tIDfBVtm1bpTqoVVdtWnXrm6ivxUyzV9ugXWLaKr0fM2xLyMvQXW7N4CnhuxLwVxgEPoW3Xw6Jnqadq26p7Ndprdx55b/zVzJ7A0+h/b4fHcuDgiHlbAmag75CaxTKqefG9BG27zqV62/42o2rfqhtH2DxKeQ0fFD3L8r2U8Jun/t0dHg9SrbVXNkQfcBb6i6xZvDNi3krqvcE/Hj/FJKjatw4+jfYa/mn8FCWORf+72yzOwa8GVlKqF9x3YyYtNIVwuImqXZcBs6NnmQZVG9fBRmjvVhdQ3Q2s/g/972+zeEfMpK1825Lmc6dzqO4Utfp41d/FTzEZqjauC/XM4WvipygxBjgT/e/w8FgI7BAxbyvRROAa9BfV8LiWsA1xVZ2Ntn2ruKaiFVUb18UhaK/lM+OnKLM64TU89e/x8LiK/A9fM+BT6C+m4fEQsGnMpMXWRbuT2l3U69xvVTvXxRjgTnTtvBSYHjtJoTmEBXjq3+XhcXy8lK0MOxC2gVVfSENjMdV73W+4d6Bt4/+Nn2JSVO1cJx9Fe02/PX6KUnuR3s6si6neviy10Q9ciP4iGh5vjZl0Ii5C174DhIVbdaJq6zqZTbi2VG39j/gpyh2D/vd5eFxMvWYTK+O96C+e4fGTqBmnYRPCphqqNj43forJUbV13ShPtlsObBw/RbmT0f9OD4+qvqZdWbOB+egvnKFxJeEMgqr7ENp2PiJ+islRtXXdvA7ttf2B+CnKTSS90wMXUI/BV2Wcg/6iGRqPEu6M60C5f/oT1GOQNZyqvetmEvA4uva+MH6KSZhNeju2nh01YyvMUegvlqExALw4asbp2ADt9P+346eYJFV719H30P6WbBA/xSTsT3rbBVd1P4bKmE56I8ePRM04LW9D29ZVf7uiFVV719FeaK/xOiwibvgY+t/vofEgsHbUjK0nP0d/kQyNv1KvFaTnoWvr26jvHt6qNq+jPuB2dG3+h/gpJqMf7cLLZvHDmAlb9w5Ef3EMjYeADaNmnJY10O658Nn4KSZL1eZ19Vl0bb6E8F2riw2Bh9H/njdiOfDCqBlbx8YBN6K/OIZeJC+LmnF61Cukt4+fYrJUbV5XO6K91o+Mn2JSDkK7tmh4XE/ocywRqZ3097W46SbpN+ja+4YS8kuZqt3r7Fp07f6bEvJLzdfR/64PjWPipmvtWgt4BP0F0YhrCa8L1ckktEf/1m3r3+FU7V5nH0HX7k9Rv9ddJxD2UlH/vjfiUbwgMAnfRH8xNKKux0i+DG27bx4/xaSp2r3ONkU7LV23R4wA2xAGP+rf+UacFDfd9KlXXW9DOLZxrLgeZmZWL8uAnQmzvrXULy7/y7jzNzOz8o0l9EG1pRwAHAocICzfzMzqbT/gYHUlVFSPAMYTpl3q/uzXzMy0bgW2AxarK1I21QzAsbjzNzMzvc2At6sroaCYAZgO3AKsJijbzMxsuMcJA4FH1BUpk2IG4Djc+ZuZWTrWAN6vrkTZyp4BmEF43lK3TTDMzCxtTxH2h3hQXZGylH3S3WeBPUsu08zMbDTjCbPi56orUpYyZwBmEZ79TyixTDMzs3YtIixQv1ddkTKUOQPweWD3EsszMzPrxFjCTerZ6oqUoawZgNnAzYQpFjMzs1QtAbYC7lBXJLayZgC+AuxaUllmZmbdGkNYqH6GuiKxlTEDsDlwPd7z38zM8rAU2Bq4TV2RmMqYAfgasGMJ5ZiZmRVhDLA6cJq6IjHFngHYFrga/amDZmZmnRgg9GE3qSsSS+yO+bgSyjAzMyvaGOCD6krEFHMGYEPgdrzy38zM8rQY2Bi4X12RGGLenb8Ld/5mZpavCcAx6krEEmsGYBpwN+GABTMzs1w9BmwELFBXpGixZgDeiDt/MzPL35rAf6orEUOMGYAxhF3/Nonwd5uZmZXtDsKeNgPqihQpxgzAK3Hnb2Zm1bExcKi6EkWLMQNwMT70x8zMquVfwLPVlShS0TMA++DO38zMqmc3YE91JYpU9ADgfQX/fWZmZqmoVB9X5COAzYEb8c5/ZmZWTcuBLajIIUFFdtZHF/z3mZmZpaQfeJO6EkUpagZgHGHjn/UL+vvMzMxS9CAwi3BkcNaKumN/Ge78zcys+tYDXqKuREr+AAwKYxEegIxkU3SfzQkl5Jc71WdjIzsR3WezaQn55Wo6sBBtn3NW9CxLUMQMwCzghQX8Pb34KfCAuA4p20VY9iXCss168U9h2crvbOrmAT8X1+FAYLa4Dj0rYgBwNGH7X5VB4MvC8nOg/DFR/oia9UI5ePUAYGRfQjuL1U9FzwfoxBjgLrRTMWdHzzJ/56L5bO4pI7kKUH13bHT3ovls/lBGcpk7B23fcw/am9+e9ToD8GLCMYlKXxSXn4OdReV6+t9yp5rB2lVUbk7Uv/0zgQPEdehJrwOAowupRfeuAf4srkPqZgPriMr29L/lTnUNr43+5ip15wFXiuuQ9Z4AvQwA1ifMACh9Hk9ljsYLAM2653UAaTtJXP5LgRniOnStlwHAfxI2AFK5D/iVsPxcqKb/B4DLRGWbFeVSwvavCh4AjO7nwP3C8scCRwrL70kvA4BXF1aL7nwdWCKuQw5UzxKvBxaIyjYrynzgBlHZHgCMbgmhL1BS94Wl2xLt6svFhM0gbHSqVcwnl5FcRai+R9aeH6H5fO4uI7kKWI8wEFD2SZtHzzKCbmcAXlVoLTr3O8JmEDayNYENRWVfJSrXrGiqa3kWsIao7Jw8CJwhrsNh4vK70u0A4PBCa9G574rLz8V2wrLVq3PNiqK8lrcVlp0TdZ+gvikuzVZop1ruwMcOt+ttaD6j5YTZB2uP6rtk7VmTcE0rPqO3lJBfFfQDd6Ltm7aOnWTRuulIX1t4LTrzfXSrcnOjmgG4E3hMVLZZ0R5Dt6ulchYvJ8uBH4jrkN1jgG4GAK8svBbtGyAsyLH2qH48PP1vVaO6pj0AaN/3CX2EymuEZXel0wHAjminOc7G+8t3QvX80AsArWo8AEjfvWjPUNiKzNZsdDoA8OK/fGxA2E5UwTMAVjWqQe06hF1XrT3qPqLSiwFvRrfAYi5h1yVrzwHoPqs58dOrFNXnZO3bBN3ntH8J+VXFWMIusarP6sb4KRankxmAndFudvArYJmw/NyoHtXMJxwRbVYldwBPicrObnW50DLgFGH5WwI7CMvvSCcDgIOj1aI9vxSXn5stReXegO8urXoGgZtEZWe5y5yQ+owYdV/Ztk4GAAdGq8Xo7gD+JSw/R1uIylXtm24Wm+raVg3mc3Ux4VVkFWVf2ZF2BwBrArvHrMgofonvKjvlAYBZsVTXtuq7nKtB4FRh+c8FVheW37Z2BwD7o12Ap57Syc0UYKao7OtF5ZrFprq2ZwGTRGXnStlnjAVeKCy/be0OAJRTGjfh98o7tTnQJyrbMwBWVaprux/YTFR2ri4DbhGW/2Jh2W1rZwDQB7wodkVG4MV/nVNNGS4irNcwq6JbCUeRK3gdQOeUswAHorsJa1s7A4AdCZvKqChf6ciV6sfiJrRbcZrFtAy4TVS21wF0TjkAmEkGuwK2MwBQTv9fjZ8pd0P12pCn/63qVL9HHgB07lrgOmH5yT8GSH0AcLqw7JypBgCq96TNyuK9APKi7EOSfx1wtAHAaoRXGlTOFpads41F5aqmR83Kcruo3DmicnOn7EP2AqYJyx/VaAOA/YFxZVSkiUeBf4rKztkkYLqobA8ArOpuFZU7A5goKjtnFwGPiMoeD7xAVHZbRhsAKN9l/D1eUNaNjdGtPvUAwKpOdY33AbNFZedsADhPWP6+wrJHNdoAYJ9SatGcp/+7M0dU7gJgnqhss7LcBzwtKlv1aC93yr5kT2HZoxppALAOsE1ZFRlmAPiDqOzcqX4kbsfbNVv1DaLb68IDgO4oZ5N3AqaKyh7VSAOAfdBNJV+C7rlN7uaIyvX0v9WF6lqfIyo3dw+jO0xuLPBsUdmjGmkAsHdptXgmT/93z28AmMWlWgjoGYDu/V5YdrKPAUabAVBRfli5myMq1wMAqwvVte4BQPfOEpatfJV+RK0GAFOAHcqsyBAPAVeIyq6COaJyVe9Hm5XNjwDycznhUYDCHrR/8F6pWlVqN3TH//4dLybr1mRgbVHZd4vKNSvbPaJy18HHAndrEPiHqOzVge1EZY+o1QBg91Jrsaq/C8vO3YbCsu8Vlm1WJtUAALQHs+VO2bckuQ4gxQHA34Rl5041AHiUsA+AWR3MB54Qla0c5OfOA4BhUhsAPAlcJSq7ClQ/Dso7IjMF1TXvAUD3riAM3hSyGQDMRDfNdCHe/rcXqs/N0/9WNx4A5GcZ4WwAhTmE8xyS0mwAsGvptVjJ0/+9mSkq1wsArW5UAwCvAeiN8jGAsm9tqtkAYOfSa7GSFwD2xo8AzMrhGYA8KW8ydxKW3VRKA4BFwKWisqvCAwCzcngAkKdLCH2NgvLmuqlmAwDVKOWf6D6YqvAaALNyqK55DwB6sxjdjWbyA4C1gY0UFQEuE5VbFX3A+qKy7xOVa6aiuuZV3/EqUfU1c4A1RGU3NXwAoHxG4e1/e7M6MF5U9jxRuWYqD4rKnQisJiq7KlR9TR+wo6jspoYPAJTbFV4uLLsKpovKXQQ8LirbTOUxYImo7HVF5VaF8mZzW2HZzzB8ALCNpBahE7lJVHZVqAYAqjshM6VBwsFlCqrvelVcj2692daicptKZQBwNWGTBuue6q7AAwCrqwdE5XoGoDfLgOtEZXsGoAk//++dBwBm5VJd+54B6J2qz1H1sU0NHQCsD6wlqseVonKrxI8AzMrlAUC+VAOA9QjHOidh6ABA+WzCA4DeqS4qvwFgdaUaAPgRQO+Us87JrAMYOgDYXFSHAcIaAOuN6q5A9RzUTM0DgHxdhe7guc1E5T7D0AHApqI63AY8LSq7SlQzAKqV0GZqqtkvDwB69zRwu6jsJAcAqkrdLCq3alTrNx4RlWum9qio3DVF5VbNLaJyVTfbz5DCAOBWUblVo/pReExUrpma6tpPajvZjKn6apNuKgAAIABJREFUniRnADYW1cEDgGKofhQ8ALC68gAgbx4ArPhzPWCaqA6qaZgq6UO3P7i3Aba68gAgb6rHz6sTDt6TawwAVCcAggcARZgGjBWUuxwPAKy+HiNsCVy2ccAUQblVo5x9Vva5/9YYAMwSlb8EuFtUdpWo7gieRPcqjZnaMmCBqGzPAvTuTnQHOqn63FWoBwB34A6kCH7+b6ah+g74TYDeDQB3icr2AABP/xdFNQBQvQZllgrVd8AzAMVQ9UEeAOABQFH8CqCZhhcC5k3VByW1BmBDUfl+/l8M1RscT4rKNUvFE6JyVW/9VI3qEcBMUbmraAwAZojKv19UbtWoVgSrFkCZpUL1HZgsKrdqVGeZrCcqdxVD9wFQ8EEyxVANAJ4SlWuWCtV3wK8BFkN1E5rMAGAKuovJA4BiqO4GPANgdaf6DngAUAxVH7Q6MFFU9r/1ox2JeABQDM8AmGl4BiBvyj5IfqpjP7pz5BeiW0BTNaoZAA8ArO48AMjb4+iOo5c/BlAOAB4UlVtFHgCYacwXlesBQHFUfZGq7/23fnTnyN8nKreK/BaAmYZnAPKnegwg382xH92GEn7+XxyvATDT8AAgf6q+SL6ZkwcA1eBHAGYafgsgf6pXAeUzAGMJryMovH1FWL7OUVfAeqI4ytaK8UL8+eVO1ff+m3IGwMzMrK7kMwD9JDAKMTMzqxn5zXdjJ0AzMzMrj/w8h/4UKmFmZlYz8r7XAwAzM7PyyfvefmCSuhJmZmY1I+97PQNgZmZWPnnf6xkAMzOz8iUxABivroSZmVnNjFNXoB8Yo66EmZlZzYxVV8ADADMzs/LJ+14PAMzMzMon73s9ADAzMyufHwGYmZnVkLzv7VdXwMzMrIbkxzn3AwPqSpiZmdXMEnUFPAAwMzMr31J1BTwAMDMzK59nAMzMzGrIAwAzM7MaSuIRgHwUYmZmVjNJDAAWqithZmZWM/Kb737gaXUlzMzMasYDADMzsxryAMDMzKyGvAbAzMyshp5QV6AfeEpdCTMzs5p5XF2B/hQqYWZmVjOPqivgAYCZmVn5HlNXoB/dc4hvAn2OQuKPHbZ9UQ7soI6O1qGizrsKcVDHrV6Mczuoo2Pk+EaHbV8U+c23cgZgfVG5VaR6k2OKqFyzVKi+A167VZz1ROUmMQPgAUD+VD8GHgBY3XkAkL/ponKTmAFQLUSYISq3ilQ/BlNF5ZqlwgOA/NV6ADBPVLZnAIrjRwBmGqpBsAcAxVH1RUm8BfCgqOyJwBqisqvGAwAzDdV3YIGo3KqZCKwuKrvWMwDgWYCi+BGAmYZqAOAt3IuxrrDsR4RlAyvPApgvKt8DgGJ4EaCZhtcA5E31BsATJDCL07/iT9VjAA8AiqG6G/AMgNWd1wDkbSNRufeKyl2FBwDV4BkAMw3V82MPAIoxR1RuUgMAVWVmi8qtGtVujqofP7NUrCkqVz59XBFzROUmNQC4R1T+ZqJyq0a1mnQtUblmqVANAOS7yFXEHFG5qj53FeoBwOaicqtGNQBQ/fiZpUL1KrMHAMWYIyrXMwDAxsBYUdlV4gGAmYZnAPI2R1SuBwDAeHSrMKtENQBYDRgjKttMbTwwWVS2fBOZClgbmCYq2wOAFfwYoHcLgGWCcvvwbo5WX6pFsAuBxaKyq2RjYdlzhWX/29DXAFWrSr0QsHeD6N4E8GMAqys//8/b1qJyF5DIDE7/kH++VVQHzwAUQ/Wj4AGA1ZXqLRgPAIqxjahcVV/7DEMHALeJ6uAZgGJ4IaBZuVTbyMpPkasI1QDgRlG5z+AZgOpQ3RV4LwCrq3VE5aoe91WNagBwk6jcZ0hhBmBTvKVsER4SlTtdVK6ZmmcA8jUR3SLAJGcAbhHVYQywvajsKlENAFQ/gmZqqhkA+TGyFbAluleYk5wBuEFWC9hZWHZVeABgVi7Vtf+AqNwq2VZU7iC6m+1nGDoAeBDdyNIDgN7NE5XrAYDVlWoGQDXYrxLVrPM9JHSQ0/BteK8D9hHUwwOA3nkGwHI3kXBnNgOYRNjsZh5wLQn9aA6hWv+iOr69SnYVlZvM9D88cwBwPZoBwHYr6qLYza4qPANgOVobeC1wOPBswva6wy0n/HD+FfjLij9TuAv2ACBPfXgA0NQ7Cc8oFOGFgL3ZHM3ntrCM5CpO9Z1TmgZ8GphP5/VeDlwNnAS8DM1eFP3AkjbrW3TMLCG/KtsE3XfumBLy69oL0DXMUSXkV2VroPvsfB5Ab1Sfm8pewO0j1KvTWAZcCnweOIhyDnhZv8D6dxLLaT5LYu07DN137vnx0+veWuga5ksl5FdlfYRnporPbssS8qsy1XdO4QjiX6dLgQsJMwz7EefEvl0j59AqvAdA705E89kNoDtAqm13ommcv5WQW9Xdheaze34JuVWZ4jMbLCWzVR1BuIMtO8/FhN+X44HnARMKyOUQQR6DaF/Xroo/ovnsknv+39/kv11Rei2C3Sjmi1lnqiMmZ4nKtXzsDZxMmKkq2/gV5X+MsIDwMUIn8D/Ac3nmYuh2bFhU5TrkBYC96QN2EZV9majcllIaAEwkDAKsex4AWIqmAT8inWfXk4AXAp8CLiAMCM4GPgA8i/Z2iNsgWu1G5k2AerMtugPMLhWV21Kzka9qAADhFcR/CMvPnQcAlqIPodt3vR1TgRevCAh7DlxMmCX4I+E3cfmw/x/VSvx7ROVWxfOEZWcxALi89FqstLew7CrwAMBSszbwLnUlOjSVsHhwvxX//jAr9yD4C+E5vGoGQPUdr4q9ROUuB64Uld1SswHAXOBeNCPc5xKm3wYEZVeBBwCWmtcSOtScrQO8ckUA3I/uBFPPAPRGsdEdhP3/nxSV3VKzNQAAl5Rai5VWA3YSlV0FHgBYal6lrkAEMwi/VQoeAHRvM3QzN8lN/0N6AwDwY4BeqAYAa1LO5iuWl0l4YW/R7lZXIGOqu3/IbABwcam1WJXyQ8qd8vmgtye14bYlnZX/VbAU3ZkfVaC8ucxqAHAZuoN59kLzrnAVLER3pPNGonItXeurK1Axc3nm2wjWvn1F5S4C/iUqe0StBgBPo1uxuC4+HrgXd4rK3URUrqVL9Zy8qvz8v3tbAbNFZV9M2I0yOa0GAAB/L60Wz/Ti0f8n1sKdonI9ALDhnlJXoGI8AOiesk85X1j2iEYaACgrfZCw7NzdISp3U1G5lq6H1BWomKV4TUW3XiQsO8tzbtYivI+vODRhGWEDEevcMWg+s6vKSK6iFJ/XYAl5TUX3G1LVeIqwW+oJhI2KPCAY3STCY23F57WYOKdRluJqdBf6ESXkV0UHofm8FuDFm91SfcfKcEPJOdUtngTOBN5HOORmpFndujoQ3eejfJQ+qtEuFuXUhdcBdOdOUblTgOmisi1dyT7/rIhpwMHAFwhvbz0BnAccB+yKBwQQBgAqWV//h6IbOT1Me6dy2aomozlzfRDYs4T8qkj1HSvD4SXn5Fg1HgR+BbwV2HKUz6qqbkTX/vuXkF8004Al6Bpvj/gpVtIDaD6v15WRXAWpvl9lmI5uQOp4ZjwAnAK8mbBRU9Vtg66tl5L4ORijTQ/NJ5yXrXKwsOyc3S4qdzNRuZauecB16krYv60HHAZ8G7iW8NbQyYTBexV38zxUWPa/CGujktXO86FzoteitZcKy87ZraJy6zrFaCP7i7oC1tIc4A3Ajwn7DNxMGBy8mjBYyN3LhWUr+87C7Ih2yqoO01RF+180n1Vy511nQvXdKotyLZGjt7iNMCA4jPxezZ6D9vHTLtEzLEEfcC+6Rvx4/BQrR7XwaiFeuNkN1XerLMo9RRzFxtABwZqk7f3o2uk+KvRa9PfRNeRNJeRXNcpZG68D6JzqsyrT5QXX3aGPZYRT7k4iDAhWJy0Xomub75aQX2kOQ3uh+XCgzkxCd8fldRudU32vyvSFguvuSC+WEgYEjV0KJ6KzPtpZp/+In2Lv2t0k4jx0xwMDvEpYdo4WEo4OVdhaVK6l7S/qClh0YwmbDx1H6DPms+qAYEKJdXk1uk2QFgN/EpUdzT/QjabuokLPU0ryRzSf1Q9LyK1qVN+rMk0j3CGqcnXo4ynCwOB44p9jcJkwz2xW/3cyQvp9tFqMbiPg2cLyc6RaO7GNqFxL23zCj7LV12RCx/8xwkDgUeJsW7w12hX4ZwnL7kgnDa5O6tXi8nNzs6jcrfFsjTX3F3UFLClTCAOCEwiPCuYBvwHeQW+vf6t3JD1bXH40N6ObVplLeMZk7dkf3We1cQn5VYnqcyqb8pp05BcPAL8gbFu8Oe3pJzwyVtX5hjbrmYROp1x+FaUW7dkAnxDYCeX2qzsJy7Z0XUBYIGXWjvUIM7/fJtx83s/Kcwxa3WTsQ3hkrHKqsOzotkc7Ijw9foqV8jCaz+n4EnKrEtX3SeHvHdbR4WgV97FyQDCbQLlnzSA12Ln2enSNu4xqHlgRy1/RfE6nlZBblai+Twof77CORcYFhMXM84V1cMSLGwmH76jKv4bMdLPq8pTCa9G+McB/CsvPzbWicv0IwFr5i7DsJwiPEdcAngV8iPC67EJhnaw4WxIWFqr8Ulh2abZCO8q7C+833663ofuc1iohv6pQfUYKE4CnO6hjkTEfGNekTsM3sFkkqp8j72h3oWL2rkHb0AfET7ES9kb3Ge1bQn5VofqMVP40Sr1ixh5t1K/xvvrxhAHBYmF9HXnEv8hQtxsvKB8DABwtLj8XymdSOwrLtrT9RVh2OwPTpwmPBo4nvLq41oo/TyRsZrQ8VuUsW8o35Eq3BdrR1hLCYQ82OtVRzj8oI7mKUH2PVPYcpV4x47wC6j+NVTewUZ4579DHcla+hVAbV6Bt9A/HT7ESzkTz+VxdRnIVofoOqYxDtxL/aYo/lGY6cDjwTcJKdOXvoqP8uIBM9bL3snrF4zHEPUyiKi4XlbsNMFVUtqVtKeFwMYVJwHMK/jvnER6Lvo2wSHpDwna0JwN3FFyWpedv6E4elFmfMBWvHHm9PnqW+fsPdJ/P8+OnVwmqz0fpg+jyPj5+equYARxG2NHuzi7r7Eg7nmTVg41qcR7KaWgb/Rpq0tA92Ajd53NcCflVgerzUdoNXd7nl5DfSDYBjiIMCO5B+xvqiBMPEmaF3k0YEFTSS9A39P7Rs8zfPDSfzW/LSK4CVN8dpTHAY2jyXox2w5jhNiFsZ3sKuu27HXGjnXMMsjMG7clLg4StPW1k56D5bO4rI7kKUH131E5Hl/t+JeTXraEDgkfR/r464sTQcwyUhxf17BPoG3OH6Fnm7TPoPhuf3TA61Wejdiy63D9dQn5FGEOYQn43ocN4HP3vraP4uI3wSOgowiLSbMwiHNKjbLzvR88yb69E99m8vIT8cqf6bNR2RJf7hSXkF8PwbYsXov3tdcSJxoDgMDLYVl01xdyIRYSVttbcJug+mxNLyC93qs9GrQ94CE3uS4HV4qcYnc8xqH4MANexckCwBgUpagX9K4BfF/R3mZmV4WDgbHUlCjYZeC6wF2HHxefR/AAky9cAcCVhu+oLCG+1PNnNX1TUAGAc4XWW9Qr6+8zMYvsC8AF1JSJbHdiHcAbCvoT1UrXbtKbiFgOXAH8GzqCDzd+KfIf+RMLmHmZmObgMeJa6EiVbmzArsC/wAsKOnVYttwFfA75DWCPSUpEDgM2Am/Do0szyMACsS9iPoK7WY+XswL7U6Ez7GrifsD3171r9D4reRe804GUF/51mZrEcSvjdsmAmYWagMSCYra2OFeCbwDsJA95VFD0A2JtwMIKZWQ6+SnjH3prbhFVnCDbQVse69DvCGwRLh/7HGPvoX0Txp22ZmcVwDd5IrBObEHZR3IswU5DVpjU1dzLwxqH/IcYA4HDgVxH+XjOzog0STjadp65IphoDgv2AF5LBpjU195/Ajxr/EmMAMAa4hQodeGBmlXY4cKq6EhXQD+xMOAZ8X8Lrh9OUFbJneAzYihUD3jERChhc8eeBEf5uM7OiPQycpa5EBQwSVp5fBPwc+BzhwKfbCTsUrg9MkNXOACYRPqc/QpwZAICpwN3AmpH+fjOzotxEuCuyuMYDu7PyLYPn4AGBwgLC1vkLYg0AAD4LfCji329mVpSZwFx1JWpmEuEcgz0Jawj2xgOCshwB/DzmAGAD4A7CqM/MLGVHAj9TV6LmphIGAY1XDncmzmNqC9f6kTEHAAA/BF4fuQwzs159DzhaXQlbxVTCY4LGWwY7451mi3ILsEXsAcDWhPdsPYozs5TdDmyqroSNaB1WvmGwL6F/se4MABNiDwAAfkKYXjMzS9kc4C51JaxtM1h1l0IP4DqzbhkDgM2AG4CxJZRlZtatNxAeW1qeZhB2KNwPOIAwoLPWppcxAAD4PvBfJZVlZtaNnwBHqSthhdmUVWcIZmirk5wpZQ0AZgM34zcCzCxd9wAbqSth0fgcg5UeAGaUNQCAcCThW0ssz8ysU1sQVkhbtfUB2xNmBl5A2LZ4DWmNynUu8KIyBwAbALcSNn8wM0vRW4DvqCthpRtD2A2ysSnR/lR7QPBe4Mtlvp43H5hO2ArSzCxFTwG/UVfCSjcIPARcRjgY6ovAHwib2Q0S1g+Mk9WuWAPA24AnypwBgHAYxG3A5JLLNTNrxzzC79TgaP9Dq5WxwI6s3JRoL2CitEbdO5VwAma0w4BG8nng/YJyzczasS1wvboSlrTJhMcFjTcMnkUer7ovI5y/cLWqAusCjxNG2A6Hw5FavAOzznwS/XXbTnxmaKUVW/Q+TRiFHCAo28xsNIuAU9SVsGx8CPiEuhJt+DvwRsIaAEDzCADCfgDXApuLyjcza+URwoLl5eqKWPI+BHxWXYk23EhYt/DI0P+oOllpCV4HYGZpWpvwjrjZSN5PHp3/LYSFi48M/z8oj1Y8nfCahZlZal6groAl7f2EBe2pu4WwSHFus/+j+mzlY4Gl4jqYmQ23r7oClqxKdP6p+Dr6lZGNWAjsEDfdJL0UbbtvET/FpKnaPXWTCAvyFG3zOJpF0pa296Pvp9qJm8nkrIM1gYfRN1gjrqV+2xVPBJ5E1+YfjZ9i0lTtnoPz0bXPbiXkZ/lw5x/Ju9A32tD4Wtx0k/RrdO19Qwn5pUzV7jk4Hl37fDB+epYJd/4RjQWuQd94Q+NlUTNOzxFo23vH+CkmS9XmOdgHXfv8voT8LH3u/EtwAPoGHBoPAzOjZpyWNYDF6No7h9dpYlG1eQ4mEA7oUbTPAsKeJVZfH0LfF7UTNxFO3M3aT9A35NA4n3otBPoDura+C93GVGqqNs/FeejaaM8S8rM0+c6/ZOsQTuNSN+jQ+FjUjNPyVrRtXdcfW1V75+K/0bXR/5aQn6XHd/4iR6Jv1KExABwUNeN0rEfIV9XW34mfYpJU7Z2LPdC10Z9KyM/S4jt/sdPRN+7QeBTYNGrG6bgQXTs/QThms25U7Z2LsYRrQ9FGC6nfa8F15s4/ARuhfS+9WVxFPTqnD6Bt5yPip5gcVVvn5Cx07fT8+OlZAtz5J+Td6Bt6ePwsasZpmE04BU3VxufFTzE5qrbOifLH+eMl5Gda7vwT0w9cgL7Bh8c7YiadCGW7DxBmgOpE1dY52RVdO/29hPxMx51/orZD+256s1hCOFe5yt6Oto0/Ej/FpKjaOSf9hLU4inZaDEyJn6IJeLV/4j6BvvGHx8PAZjGTFluXMNBRte/d1Gv/BVU75+Y0dG11QAn5Wbl855+BCYQFeOoPYXhcT9g9r6rORNu+L4mfYjJUbZwb5ZkhJ5SQn5XHd/4Z2QZ4Gv2HMTz+QnW3ClWfDXB6/BSToWrj3GyPrq0uLiE/K4fv/DOU2omBjfhezKSFpgDz0bXrAOGNhDpQtXFu+oAH0LTVMqo941cX7vwz1Qecgf6DaRbviZi30s/Qtusn4qeYBFX75ugUdO1Vp8dSVeTOP3PrAw+i/4CGxzLgpRHzVjkIbbveB4yLnqWeqn1zpDyv4osl5Gdx+Jl/RbwE7UY1reJpqvd64Dj0hzMdHj1LPVXb5mhLdO11eQn5WfHc+VfMN9B/WM3iMcJCpSr5Cto2vSh+inKqts3VXDTtNQCsVUJ+Vhx3/hU0Ebga/YfWLOYCG8dLvXRbo2/T50TPUkvVrrn6Kbo2O7SE/KwYfuZfYdsRTupSf3jN4lbCeoWquAhte/4yfopSqnbN1RvRtdlXS8jPeufOvwbeh/4DbBWXAqvFS71Ub0DblkuBWdGz1FG1a642Qddm15aQn/XG0/410Qf8Gv0H2Sr+TDXOEp+C7jz2RnwuepY6qjbN2R1o2mw5sF4J+Vl33PnXzDTgBvQfaKs4l7BmIXffRNuOjwJTo2epoWrTnJ2Mrt1eVUJ+1rlj0f/etxPu/Au2FfAk+g+2VfyecKZBznZB347vi56lhqo9c/Y6dO32rRLys868gjRfDx8e7vwjSf0COIP8zw24DG0bziX/gVQzqvbM2Ux07XZzCflZ+zYkvIKt/o0fLdz5R3YC+g95pDibvDsw5S5sjXhL9CzLp2rL3N2Mru1mlpCftee76H+XRguv9i9BP3AO+g97pPgt+W5vOw3tAUGDwG3A2NiJlkzVlrn7Nrq2O7KE/Gx0mxPeElL/ro8U7vxLtC5wF/oPfaQ4jXxnAr6Fvv2q9uOrasfcvQpd251cQn42uv9D/3s0UnjaX2Anwt786g9/pPgL4Y46N1sQtkRVtt31hNmeqlC1Y+6mo1v3c1cJ+dno7kT/W94qfOcvpNwtrN24gDzPGP89+rZ7RfQsy6Nqwyq4Fl37VWnL7xztgP53qFX4zj8Bn0N/IYwW15LfhXIA+na7ERgTO9GSqNqwCr6Grv3+q4T8rLXXo/8daha+809EP3Aq+gtitLiRvLa67UN759WI18VOtCSq9quCN6Nrv5+WkJ+19kH0v0HD42byu6GrtEnAhegvjNHiTsKGRrk4Gn2b3Uq+b1QMpWq/3PUDV6Brv3vjp2gj+CL636ChcRfu/JO0Ntp3htuNR4HnRWqDok0AHkDfZm+OnWgJVG2Xu9eiv/62iJ6ltfJp9J//0FgGvDpqxta1TYF56C+S0WIR4YctB59E315zyf/AJVXb5WwcYQZIff29NXai1tI70X/+w8ODgITtTehg1RfJaLGc8HwrdTOAxejb69jYiUamarecvR39dTcI/Cp2otbSK9B//s1iCfDyiHlbD15D2mcGDI1vkP5K9x+jb6dHgLViJxqRqt1yNRW4H/11Nwg8SFgUa+VbF/2eJK3Cg4CE/Q/6C6TdOIO0NwzaljS+hF+JnWhEqjbLVQqPnobGdnHTtRGkvMDbg4CEpbClbbtxDWENQ6pSeNVyCbBl7EQjUbVZjjYivV0+3xU1YxvJe9F//qP9LnkQkKB+wnu86guk3XgE2D9KS/QulVmA02MnGomqvXL0C/TX2fD4bdSMbSSTCK9jqq+BkcILAxM1BjgF/QXSyYV0XJSW6N1p6NtnkLBLYW5UbZWbPUhz/c5jpL9Wp8regf4aGC08CEjUBNI/Qnh4/AiYGKMxerArafw4X0V+P8aqtspJP3AJ+uurVewSL3UbxTjgYvTXwGjhxwGJmgycj/4C6SQuIb3tg89E3y6DhDuCnKjaKSdvQX9djRTvi5e6tWEO6bwZMlJ4EJCoaaR9h9EsHgYOjtEYXdodfZsMAk+Q15acqnbKxXTCLpnq62qkODNa9tauHQlrpdTXwmjhQUCi1gAuQ3+BdBLLgZNIZ0/8VB6nnBI70QKp2igXKew1MVo8STrfwTrbiXBjpL4eRguvCUjUusD16C+QTuMSwjSY2h7o26IRh0TOtSiq9snB3qSxtqSd2D1SG1hnPAiwnswEbkN/gXQaDwEvjtAenToPfVsMAncQ1nekTtU+qZtIOCpbfR21G/8dpxmsC7vgxwHWg5nk9ePTiOXA5wlvN6jsQhr7AgwCJ0bOtQiqtkndieivn07i3DjNYF3yIMB6Mh24Ev0F0k1cDexQfJO07Sct6qX4cqX+ipaqbVK2G7AU/fXTSTwFjI/RGNY1DwKsJ2uQ9n7To11Ux6N5L34m4QdR3QaDhDUdKR8ZrGqXVI0nbH+tvm66ib0jtIf1xmsCrCfTyG+fgKFxPpoFgid0UddY8cXIufZC1Sap+hT666Xb+GiE9rDeeSbAejKZdF5x6yaeAN5QeKuMbHXCwkR17oOENQnPj5pt91RtkqK9CHdC6uul2/hr4S1iRfEgwHoyHvg1+guk1x+ozQtul5G8K0IO3cY9wJpx0+2Kqj1SszrhzQ31ddJLLCLtx01158cB1pMxwA/RXyC9xNOEQ4XKWBswDri55PxGipPjptsVVVuk5mfor48i4gVFN4wVyoMA60k/8C30F0iv8U/KeVPglaL8WsVhcdPtmKodUvI69NdFUfGpgtvGiufHAdazD5PPLmUjXWCfJu7pgn2k9SbFk8CWEfPtlKodUrENsAD9dVFUXFBs81gkHgRYz15DeO6nvkh6jVuAlxTcNkPtSlqLu64BpkTMtxOqNkjBVPLcenukWLIiL0ufBwHWsz2AeegvkiLiPMIdWQwnJZDf0Ph5pDw7pco/BalsGFV0HFhkI1lUXhNgPdsCuBX9RVJELCa8w1/0Xcw04N4E8hsabys4x26ocldL6Q2RouNzBbaTxeeZAOvZuqT1rLvXuBd4LeEZflFekUBeQ2MRYdtZJVXuSvuR31a/ncS/imsqK4kHAdazScCp6C+SIuNCit3i9IwEchoa9wKzCsyvU6q8VbYEHh2hXlWIZYRtxC0vHgRYz/oIe/CrL5Ki4zzC87JebUR6q76vRfeDrcpZYU3gpg7qmHMcUlCbWbm8JsAK8UZgIfoLpeiL7geETrwXH0wgl+FxLmHjorKp8i3bBODPPdQ3t/hyMc1mAp4JsELsBtyF/kIpOhYCnwfW7rJdxhGOLFbnMTwUOwWqci1TP/DLAuueQ1xZSMtIFIREAAALmklEQVSZigcBVoh1gD+iv1BixJPAZwkLIDv1XMIhPeochsdHusilF6o8y5TaK6BlxADhu2/58iDACjGG8Gpd7jsHtooFwBeA9TtslxQ7huXA0R3m0QtVnmX578h5pByvLKD9TMuDACvMIcDj6C+WWLEI+DYws832mEyai8KWA29vM4deqXIsw3tKzim1+HrvTWgJ8MJAK8xWVG/70+GxiHBgUjt77u9BWtsEN2KAsJAzNlV+sb2L6s54tRvX99yKlgrPBFhhpgG/Rn+xxI4B4ExGPyL1swnUtVX9/2uUuvdKlVtM78Cd/+CKNpjRY1sq7QgcBXwA+BLhpMN3ETb06mbdT+48CLDC9AHvpRqHCbUTVwKvB8Y3aYsJwBUJ1LFZxB4EqPKK5Tjc+Q+N1/TWnKXbAvg/Rn97aQC4CHgf6RysVQYPAqxQO1H9RwJD4z7gf3jmgsGtSG+DoEYMAMcShyqnovURFoKqP6vU4ju9NGqJZgLfpbstmu8nzPoo9tFQ8CDACjUJ+Ab1unNaQngMcgDhPXGANyVQr5Hi64Q3OoqkyqVIYwkbRKk/nxTjlh7atSyvAB6j91wvAeaUW3UZDwKscC8BHkR/0ZQdtxFeF1sfOCWB+owUZxHWcBRFlUdR1iTsoqj+XEaK36F926TXnTNjOpZibzzuJ6wdqIOcBgGHRmoDK9j6wO/RXzSqC/VPpD8TciXtv+o4GlUORdiCNF/jHBoDhJmm+cI6vL7bBo7sQ8TJ9xFC51gHuQwCFjH6YmxLRB9htW3VzhKoUtxLMUcJq+rfqxdR/VP9ioofdtfEUcXq/BvhQUB68Qjak0+tQ9uR5p75jhCLCQO1Xqjq3q2xhNfBUtzGOdW4q6uWjid2598IDwLSizNiNYDFMQH4BKGzUV88jubxG7o/GElV525sCPxNWOecY9Mu2juGsjr/RngQkF7sGasBLJ7tCO/dqi8eR/O4Dzi45afXmqq+nTqSPLZDTTXe1HmTF67szr8RHgSkFX+NlbzF1U+YclYuaHKMHCfT2WyAqp7t2pAwbahu19zjZx20eQyqzr8RHgSkFSm/mWKjmE14HU19ETmax0OE3QP7Wn2AQ6jqOJqxhMFmEe+HO8IMUTvXQwzqzr8RHgSkE2+Ll7qV5bXAPPQXk6N5XAI8r+WnF6jqNpIDgOsSaL+qxdajtHsMqXT+jfAgII04LWLeVqJ1gB+jv6AcreNMwpbPzajq1Mwe1HcPijKirCOmG1Lr/BvhQYA+royZtJVvP3zXlnIsB84G9hn2uanqM9TepL+bXxXiVMqTauffCA8CtPFA1IxNYizhUI7ULjbHqnEpcDQwVViHqcBbSPcUxirGQ5SzDiD1zr8RdRoEHIe+vYfG4rjpmtJawFfp7mQvR3nxRE3LrnPsQFy5dP6NqMMg4FDCNufqth4a90bN2JKwJeH5s/piczgcId5NPO9PIL9u4jGK2VY7RQcT9uFXt/Hw+FfMpC0tLyH9Q1scjjrE74gjtzv/4VHFmYAU7/wbod6Xwko2jnD34fe6HQ5dPA6MoVi53vkPjyrNBKR659+II+KlbilbBzgRWID+InQ46hjPoji53/kPjyrMBKR85z8ILKP7s0usItYDvoyPHHY4yo4PUIyqdf6NyHkQkHrnPwj8Klr2lp3pwAl4IOBwlBVn07uqTPu3ihwfB6Q+7T9IuPtX7EhpiZsNfJf0R68OR+4xn7Amp1tVvfMfHjnNBORw5z8IfCtWA1g1bAr8iDBSVF+sDkdV47l0py6dfyNyGATk0vnfDEyL1AZWMVsC3yf9KS2HI8f4HzpXt86/ESkPAnLp/B8i/KabdWQ6cDzwMPqL2OGoSpxHZ6r+zH+0SHFNQA7P/FNtO8vMROAo4Eb0F7TDkXssJHyn2lH3zr8RKXVk7vytlvqBQ4AL0F/cDkfO8TxG585/1UihQ3PnbwbsCvwYLxh0OLqJ4xmZO//moezY3PmbDbMZYS+BB9Bf+A5HLnE+rdV1wV+7oVgYmMuCv0dJd9GkVdgYYD/gFHwUscMxWiwGpvBMvvNvL8q8y/Wdv1kHNgCOA+5A/6VwOFKN/ViVO//OoowOz52/WZf6WTkrkMP0mcNRZnyaldz5dxcxOz53/mYFmQF8ELgc/RfG4RgA/g58RliHiwj8zL+3iLEmwM/8zSLZHPhf4Gr0XyBHveKfwHuBWQT9hJ3SFHVZCnwygTapQhQ5CHDnb1aSrYGPAdej/0I5qhlXAR8GNqG5UxOoY8pxF3l0iEUMAtz5m4lsT7gjugn9F8yRd1xLeNe+neNP355AfVONmwiLel9OHh1jL4MAd/5midiJcNf2N/xaoWP0WAj8HjgG2JjObJ1A/VOMRuffUOVBgDt/s0RNIWxB/G3gbvRfQkca8SBhN8rDgNXozdwE8kkpbgY2bNJOVVwZX8WczCprB8IbBX8mj1G7o5hYAvyDsIB0Z6CP4vw8gfxSieF3/sNVaSbAd/5mGZtG+BKfBFyGHxdUKRYRHgF9krCfRLOd84pydAL5phCjdf4NVRgEuPM3q5gpwF6EnQjPIPwAqL/AjvZiKXAp4WyJ/YBJlGezAvPINVpN+7eS89R5znU3szaNITwyOAb4KXAn+i+1I2zEc8OKz+RYwqBtQvOPsDR3oW8XVbR75z9cjjMBvvM3q7ENCIsKPwL8Frgd/Ze9yrEcuBH4GWETnucRHt2k5ofo20oR3Xb+DTkNAo7LpK5RO/8iF8+YVcEahFcPtwG2I7wath2wjrJSmRkE7iF0KDcR7vCvJ2z//KSwXu16PWEQUCc3A/sC9/X497wc+CUwruca2WOER2CXxyrAAwCz9qwDbEt4RrzpsD97ffUsVwuAW1jZ0d845J+fFtarVxsRHgPURVGdf4MHAb2L3vmDBwBmRViH0GnMBGYT9pefueK/rUs4ACnFqe6RPAHcS7iTnzvsn+9Z8e9PyGoX362EAV7VFd35N3gQ0L1SOn/wAMCsLBNZORiYTnjUMDTWJMwkrEH40ZxKWP0+kTB4GDvk71qNsKixYSnhbnz4Py8D5g/5748Bj6/4c/g/D/33h4Cnes44b98F3qSuRGSxOv8GDwI6V1rnb2Zmzb0W/QKwmNHpq37dyuU1uxTCr/qZmSVgBvoOIffOv8GDAHf+ZmZZuQF9x5B759/gQYA7fzOzbHwDfedQhc6/wYMAd/5mZlk4DH0HUZXOv8GDAHf+ZmbJW5uwVbG6o6hK59/gQYA7fzOz5F2NvrOoUuffUOdBgDt/M7MMfAV9h1G1zr+hjoMAd/5mZpl4GfpOo4qdf0OdBgHu/M3MMrIGYUdFdedRxc6/oQ6DAHf+ZmYZuhR9B1LVzr+hyoMAd/5mZpn6PPpOpMqdf0MVBwHu/M3MMnYQ+o6k6p1/Q5UGAe78zcwyNxVYgr5DqXrn31CFQYA7fzOzirgIfadSh86/IedBgDt/M7MK+TT6jqUunX9DjoMAd/5mZhWzH/rOpU6df0NOgwB3/mZmFTSZdDqiunT+DTkMAtz5m5lV2PnoO5q6df4NKQ8C3PmbmVXcx9B2NDcBG0TPMl0vJ723MR4FdomZtJmZ6e2CrqOp653/cCnNBPjO38ysRm7Fd/5qKcwE+M7fzKxm3o3v/FOgnAnwnb+ZWQ1NAu7Dd/4pUMwE+M7fzKzGDsF3/qkocybAd/5mZsY38J1/KsqYCfCdv5mZATAGOI3iO5obcOffjZiDAHf+Zma2inHAdymuo/kbsHapGVTLoRT/OOAh3PmbmVkLryfcJXbbySwFPgNMKLviFfQC4BGK6fxvBrYst/pmZpab6cDngPm038EMAKcAOwjqW2WzgDPobUD2LWBa2RU3M7N8TQVeA/yUcAe5nFU7l/uBPwDvBWaL6lgXewJ/pf2OfxnwK2ALQV0l+tQVMDOrsD5gHUIH8/SKsHJtBBwEHABsAqwHrAk8TNjT4WbgbMLA7BFRHSX+P8aT3yJC6iyGAAAAAElFTkSuQmCC;" vertex="1" parent="1">
          <mxGeometry x="90" y="70" width="62" height="62" as="geometry" />
        </mxCell>
        <mxCell id="Sa5Q3vqMQas_lql_X_UZ-30" style="edgeStyle=orthogonalEdgeStyle;rounded=0;orthogonalLoop=1;jettySize=auto;html=1;entryX=0;entryY=0.5;entryDx=0;entryDy=0;" edge="1" parent="1" source="Sa5Q3vqMQas_lql_X_UZ-3" target="Sa5Q3vqMQas_lql_X_UZ-29">
          <mxGeometry relative="1" as="geometry" />
        </mxCell>
        <mxCell id="Sa5Q3vqMQas_lql_X_UZ-3" value="Router" style="shape=image;verticalLabelPosition=bottom;labelBackgroundColor=default;verticalAlign=top;aspect=fixed;imageAspect=0;image=data:image/png,iVBORw0KGgoAAAANSUhEUgAAAgAAAAIACAYAAAD0eNT6AAAABHNCSVQICAgIfAhkiAAAAAlwSFlzAAAOxAAADsQBlSsOGwAAABl0RVh0U29mdHdhcmUAd3d3Lmlua3NjYXBlLm9yZ5vuPBoAACAASURBVHic7d15vF5Veejx3zlJSMgAAQIJIAREZIhMYR4UwaBoQa0tpVrBakWtWHEsvWqt97b2om2tFK8CvR2u1NpStSgIogyCgMqMgoiAEKYEAiFzQoaT+8fzHnNIznvOed9377328Pt+Ps8nh5Dz7rXWnta793rWAkmSJEmSJEmSJEmSJEmSJEmSJEmSJEmSJEmSJEmSJEmSJEmSJEmSJEmSJEmSNIq+1AWQlInpwAxgO2Db1t9tBUxp/bw1MKn18zRg/Ga/vx5Y3vp5DbC69fMKYF3r56XAYuDZ1s+SKswOgFROk4DZrdgNmAnsAGzf5s9xBZdvA/Ac0SEY+ufgz08DjwHzW3+uKbh8kkZhB0BKYzKwJ7AHm270Q2PnZCXLxwLgUaJDMDQeBR5h0xMHSQWxAyDlazywOzAHOBTYv/XzvkB/wnKVzQLgPuAXwB2tn+/DJwdSbuwASNnZDTiEuMEfyKYb/YSUhaqwtcAviY7Az4F7gbuBx1MWSqoLOwBSd8YDBwHHEd/sjyMe6St/C4inBDcBNwO345MCqWN2AKSx2Rk4jLjZH9uKrZOWSIPWA/cQnYE7gBuJsQWSRmAHQBrejsA84HXACcR7fFXHfOB64GrgGiJ1UdIQdgCkMA44mLjpnwocjYP06mIAuIvoCFxDPCFYm7REUgnYAVCTvZS44c8DTiIm01H9rQR+THQGvgPcn7Y4Uhp2ANQ0hwK/C7wFeHnisqgcHgC+BXwDuDNxWaTC2AFQE8wBTgPeijd9jWw+8G3gv4hBhRvTFkfKjx0A1dXgTf9twN6Jy6Jqegy4DDsDqik7AKqTucDbiUf8uyUui+plPvBN4BJiMiJJUmLbAu8h8r83GkYBcR9wLrH6oiSpQP3EzHsXESO6U98QjGbGGuBSIovEp6mqHA9aVckuwBnAWcBeicsiDfUE8DXgQpyFUJIy0Q+8CbiKWIM+9bc+wxgp1gNXAm/EiaQkqStTiXf7vyD9Rd0wuomHgXOAKUiSRjUL+AzwHOkv4IaRRSwFzsf1JCRpWHOBrxJztKe+YBtGHrEeuJxYZ0KSGq2fWHjnB6S/OBtGkXE7cCYwHklqkH5ilr77SX8hNoyU8QuiIzAOSaqxwW/8d5P+wmsYZYr7sCMgqYb6iBv/XaS/0BpGmcOOgKRaGLzxO02vYXQW9xIdAecSkFQpfcBvA/eQ/kJqGFWOu4iJsJy1VVLpHQb8iPQXTsOoU/wUOAZJKqFdicV5nK7XMPKJAWLxodlIGXCgiXo1GfgIcWE6Gh9VSnnpA+YQU2RvQzwVWJu0RKo0L9bqVj8xSOmzxCp9Sm8p8CwxjfIyYB2wovX/VhPL1wIsJ2alG2o8MK318yRg69bPU4EJxA1nB2AGsG0OZVfnngA+Afwb8YRA6ogdAHXjVcAXgENTF6QBlgPziSVmHwUeAxYRN/nFm/25oaAyjSM6AzsA2w/5cydivvvZwB6tP6cN/xHK0G3EU7ibUhdE1WIHQJ3YmVjU5LTUBamZx4j87weIm/z8IbE4XbEysT3RERiMPYF9iEfZuyUsV91sBP4T+DCwMHFZVBF2ADQWfcAZxLf+HRKXpcqWEDf6+4gpYO8jUiUXpSxUQtsCLyM6A4cC+wMHADNTFqrilhCraV5ADBqU2rIDoNHsC1wMvDJ1QSpmGTFI68fAT4gb/VNJS1QduwAHAUcRqW9HEGMQNHY3AO8lnipJUkcmAOcSA8dSpz9VIZ4iMiHOIb7NOoNbdsYRTwnOJFJN7yO+3abe52WPtcB5wMTOm1xSUx1LXGRTX8DKHPcDXwROwdciKcwgppk+H/gl6Y+HMse9RIquJLW1DXFBdTKfLWM5cDmRgz272wZWbmYRTwguJQZOpj5eyhYDxNMTX6VI2sJJRF5x6gtVWWID8f7+M8S3JyfNqo7xxNiB/0mMv7BDuykeB+Z137SS6mQS8Z7Qi2S0wU3Ee3wnN6qPGcTTgcuJyZFSH2epY/BpwOReGlVStc0hVhtLfUHypq+i2BnYFPcCB/fWnJKqpp+YOaypI/w3ANcQaVI79diWqq6ZwPuAa2nuE7DVwIcwJVxqhFnAlaS/8KSIx4nXHXv23Iqqm12JtNeHSX+cpohrWm0gqaZ+h1gsJvXFpshYQ4wMPxUH8ml0/cBxxDvylaQ/fouM54G39t6EkspkCvCvpL/AFBl3AX9CzEUvdWN74hi6m/THc5HxTzhAUKqFvYGfk/6iUkS8AHwVOCyTlpM2OYw4tl4g/XFeRNwN7JVJy0lK4hTisV7qi0nesYSYwMjV5ZS3mcTcEItIf9znHUuBt2TSapIK00cMaKr7yOYHifS9Kdk0mzRmE4l0wrpPmT1ADJx1/IxUATsAV5P+wpFn3ASchhclpddHzKx3OfVeoOg6TJmVSu0w4FHSXyzyiAHg28DcrBpLytihREcg9bmSVzyC559USmcCq0h/kcgjfgAcnl1TSbk6kEg9reMTgTXAWdk1laReTCByllNfGPKI7+KNX9V1JHAV6c+jPOIrxKJLkhKZStwkU18Mso4fEBdPqQ6Oop6vBn4AbJthO0kao92pX37/TcTSu1IdHQvcQvrzLMu4B9NvpUIdSMxrn/rkzyoeJ8YwuCCJmuBU4NekP++yiqeIAZCScvY6YBnpT/osYgUxqcqkLBtIqoCtiDkslpL+PMzqXD410xaS9CLvoR5rmG8gplWdlW3zSJUzg5jFcj3pz8teYz3wgWybR1If8U059QmeRVwHHJxp60jVdwjwQ9Kfn1nE+cSqipJ6tDXw36Q/qXuNBcDpGbeNVDdvBZ4m/fnaa3yTuHZJ6tIUItUm9cncSwwQj/tnZNw2Ul1NJ+b2qPpEQjcA0zJuG2Wom1HXs4jJWfYGtgNWE9/uFgI/IVafU++mA1dS7bS4h4H3AdekLkiDTCc6WzsQ69lPbf39FGLgGcA2bLmOwgZicCnEkrerWj+vAJ4DFgPPEisvqhivBC4G9k1dkB7cBryeOIbUu+nAEcR9eCfiPH4KeAK4l1ilcszG2gHYFngn8A5Gfn+7nshzvYw4cFd2Uhj9xk7Egj5VfVe+Hvgy8Ak8BrKyIzB7s9iDuNlvz6Ybft4LJG0gOgNDOwWPAvM3i44uRGprEvBnwP9gUweuau4ispc8JrozBXg38GbgONrPwLgRuBO4BPgXNnXou7YVcRHvZk35p4EPE8tmauxmUe0Jfu7ABUO6NZEYDHYG8DngCmK52ZWk36+dxspW2S9v1eXtrbp5PejOAcCPSb9fu437gV0zb5V6mwh8iO7GhDxPdBwndLvx3YG7u9jw5vFTnClqrPYAHiL9ydpNrAE+iqN/x2oW0aP/NLFwzP3UI8VztFjXquulrbq/CdNBx6of+BhxrqXej93EQ8Q1TqPbDbiV3tv8Lrq4/x5OvNfPasc/Q0yDqfb2AR4j/UnaTdxHfLvT8MYBc4h5HL5KtFfVB3hlHU8RnYJziMecVX3cXYQ5ZPPlLNV+npN9k9TKccQ9M8s2P2ysG38FsDzDjQ/GYqo9mCVP+wNPkv7k7DQGiNHKk7NvkkqbALwK+Esit3sF6fdV1WIFcD3wvxj5vWdTTQLOI8ZkpN5XncZC4KDsm6QW9qO7V+6jxXLG0PGaDjyYw8YH4yFMB9vcwcSAqtQnZafxJPDaHNqjql5KfMO/lHxO4KbHCiIl9lziIqlwMtk+rS0qnqO6g5zzsiOROZVXmz/AKKs3/keOGx+M/+yubWppNtU8eb9JjDpvsgnExff/kG+n2Rg+fgVcQHRCux7oVBM7EplXqfdJp7GAGGum8F/k3+Zfa7fxuRT3XvJV3bZQjYynekuDrgDelUdjVMQ44nH0+dRjtra6xGJibMWpNHvswFlUL2PkZvJPXa2CV1NMew/Q5snLFQUVYCPxKK/p3k36k6+TeJBIRWqaicA84qaf5cAcI594nk2dgSamHB5I9TKJ3plLS1RLkTO+fmfzje9M8aOSD+yltSpuEtUa8X85MT6kSQ4HvkLMfJe6/Y3u4nniFU3T1qrfhnhNl7r9xxrzaWZnbdAcir3/DhD3/N84q8CND8ZFvbVZpb2P9CfdWGI9MRFUN1NGV9F0YiDfnaRveyPbuI8YQNiUQch9wJ9TnSyB9+TTDJVwMcW39x8OLUCK3uJKYurSJvo+6U+40eJZYvrOuusn3utfRPXenxqdxxoiU+NUmvHu+QSqMV7lqrwaoOS2J81150WD8e9JUICNwMd7abmKmkr5Z/K6E9gzrwYoianEt45fkL69jTTxEDHx0BTqbTdiRtbU7T1SrKGZKwf+KWna+46hhUjVQ3yUZvTChzqB9CfbSPFPxBiFupoFfIZ4wpG6rY1yxFJikGedU9ImAf9K+rYeKV6dU93Lahzwa9K09ZNDC5JyDvI3d99+lfR20p9ow8UAcWOsq0OI0eFrSd/WRjljLfF64Cjq6xzKOy7grTnWu4zeTLq2fmFoQVK+I7q2+/arpI+R/kTbPNYAb8uz0gmdCNxA+jY2qhXXU99vpL8LrCJ9G28eH8mz0iV0Hena+qmhBUk96rlJKYGp3vm0i0XUc6Gm44BrSN++RrXjJuA11M9xlO812J/mWuNyKTr1b/O4DTYt3To/x4qOxdmJt1+kp1MXYIiHiQvBzakLkqFjiHkLfkQ9L9wq1rFER/Im4mlSXdwEHEnMD18WT43+T2rjg6RNr37RPf/DpO35NSkl8LWk72lvBG6kXvP5H4Pf+I384/vA0dTHDKIzkLpdNwIn5VzXskiV+jc0Pji0QHuQfmBIU1ICZxAT7KRs63+nPjNv7UYM7kv5OM1oXlxOrABZB5MoZiG4kWI99fpCMpLUr4EHGCbNO/W3p0doTkrgzaRr5y+z6dVPlU0lshZWk/a4NZobLxDpgyMusVoRfcAXSdeWN+ZfxVIYR9zrUh631wxXsJQpCYPRlJTAPyNN+55XROVy1g+cCSwk/fFqGBuJwXTnUP0vMH3A50nThk0ZAPjbpD9e3zRcwVJOSjAYTUkJnA48R7FtW4eb/zzgZ6Q/gQxjuLibmOir6s6l2HZ7nuaMAUuZ+reRUSbf+3jiwm2kOSmBn6CY9hyg+vm12xNz9ac+Ng1jLHEpsCPVdjbFjas5t6A6pZY69W8jMQ9NW9OBFYkL2JRVAqcAD5JvW26g+qtsnQY8Q9pj0jA6jcXEuVfllTTfS/6Dw38FTC6qQomlWPVvaIwp2y71N61VNGc06KHklw6yjph2uKpeClxN2mPRMHqNHwL7UF1vJ7+p4lcCc4urSlLbkf7L9YVjKWgZHlM0JSUQ4LeI0cRZtt8a4C1FViJD44kBValPFsPIKlYRGStbUU1vIfsVTNcQ176mSJ36t5EOXq9fm7igj1L9EbWdmEcMhMmi7RZT3YFI+xHLVKY+UQwjj7gd2JdqOpG4tmTRDoup16yKoynDAPthU//aMSWweHvQ+1wMV1PdJU3PxG/9Rv1jNfGEq4pjA2YTMyH2Uv/vtz6nSUqb+tfuIBxHDFDbYragAl1HM+dynwf8NXB4B79zK5FVUMU0ypnAPwNvSF2QGllK5KY/14oVxGPowSVAlxGDu4YaB2zT+nkiMTBrKjEeZwdiBss6THhTFt8F/ohyrQ0yVscR16hXdvA7twF/Scyg2DTXkfap7HxgL7Y850fshX6cmBQipYOIvO8mOoB4R/Y6YG9gJ2ACMSDnaaKD9j3iQnJfojL26o3A/6X6KVNF2QgsIF6RzR8mBm/6W5zoGRlPjCKeQTyxmj1M7Ew1v92m8AzRCbgidUG69AriGnUy7a9RVxPXqHsTlTG1OcDPSXtOfBz4205/yZTA8tkudQEyMpkYkZr6sViZ42nildAXgXcTK7dN66axCzYNOAo4i5gm91pM4xwpBojpubfuprFLqC7XqKxUIvWvHVMClbWXAfeQ/sJbplgJ3EDM1vhG4rVI3cwi3kOeR8z7vor07V6muJt4TKv6qEzqXzumBCpLp5JdtkOVYwnwTeBPgMOIR+tNM4EY5/JB4FvEuIXU+yV1LKZZqXF1V6nUv3ZMCVSv+ojpPlMvOZ0qNhApYOcRgzyrmg+ep3HExFjnAj8gv8lnyh4DxHHiNa/aKpf6144pgerFDsRgxdTHUNGxivhm+zZ8jdWNGcAfAP9NM5d8vpLmLJBTR6VN/etUGXoyVUxvU0zz+QjpT4SiYiXwDeB0IoVO2ZgGvJV4bdKksQO/Bg7JoP1UvFKv+tcpVwlUp95MfusclCk2AFcRN/0pmbScRjKV6AxcTTNeKa0gBoaqOsowdm7EVf86ZUqgOnEO9b84P068q005WVbT7UqMGXiY9MdDnrGe5iyZWweVTv1rJ3VK4Ep8l1p244ALSH/BzCvWAl8nBvL1Z9Rm6l0/cBLwH8Q+Sn2c5BXn4+DAsqt86l87ZXisYUpgeU0BvkP6i2QesZS4+O6WWWspL7OIlfeeJf1xk0dcRTUmhGqqWqT+tWNKoIazM5HmlvrAzzoeIl5n+G6/eqYC7wF+QfrjKOu4G3hJdk2ljJRhwHwmqX/tmBKoze1NdMxSHxdZxq3EwCsf81dfP3HNqFsH9RGcObBsapP6104ZejimBJbHfsCTpD/os4qfAafhYjZ1NY9YlS71cZZVLCAWDVM51Cr1rx1TAgWR47+I9MdCFvFzvPE3yTzq80RgMXBEts2jLpRhjFymqX/tmBKoY6jHnP4PAr+DN/4m6iM6fXVIIXweODrb5lGHapn6144pgc11PLCM9Be9XmI5MVJ8YrZNowqaQAz0XEL647KXWEGkQqp4tU39a6cMjztMCSzeG6j2vOzriLXXd8y6YVR5OxEX0fWkP067jdXEOapi1Tr1rx1TApvlBKp987+G6LhKIzmA9IO5eonVwKuzbhS1VYaB8bmm/rVjSmBzvITqTqyymMgH9z2/OnEa1R3kuhiYnX2TaBi1T/1rpww9H1MCi1HV5Xz/DR/3q3s7Af9O+uO4m7gyh/bQllI/LXqUhE/CTQmsv1eRfh93Go8AJ+fRGGqk11PNZa1PyKMx9BtlGAtXSOpfO6YE1t8tpL+QdRIX4tS9yt4U0mc/dRo35dISGtSo1L92Up8UpgTmZz/SX8TGGs+Q6F2YGuVk4CnSH+9jjZfn0wyN17jUv3bK8BjElMB8lOEVz1jiamCXnNpA2txOwOWkP+7HEh/JqQ2arpGpf+2YElhPPyD9QT5SrALejyP8Vbw+4APEMZj6PBgprs6rARqsDAPgk6T+tWNKYD2lPshHigcpUQ9YjXUQsWx06vOhXTyUX9Ubq7Gpf+2UoUdkSmD2VpL+QB8uriDewUllsA3wLdKfF8PFyhzr3VSNTv1rpwzvi/1GmJ1JpN+fm8cG4M/xkb/Kpx/4C+IYTX2ebB6Tcqx305RhzFvS1L92TAmsn9T7c2g8h7n9Kr/XE8dq6vNlMFbkW93GqVXqX9bfpC4ipl1NZRWwO3ECqncPAy9NXQjgAeC3iPJodH3EK5LtWzH487TW/9+KLedKWAmsbf28nJhOdjGx1OzgnxtzLXV9vAz4LuVIwXsI2Dt1IWpiO+Bx0s4zchHwvqw+bHxWH9TyD8BZpHtEOxl4F/A3ibZfN2XoANxIDLpZnLgcZTODeBy5H7AHsV7D7NafuxLL3GZpHfAk8AQwv/XnI8AvgfuItSIUHgKOAf4beGXisthpzs5ZpJ9k7MuJtz8qUwLr4yOk3ZeX4vvLfmB/4B3Al4AfUs5Faha1yvalVln3b5W9ySYCl5B2v5yTey2boQwD3UuV+teOKYH1sRfp9uH5NHOw39bAPOCzwPXAMtKfT93GUmLE9GeB17Tq1jR9wGdItw9elnsNm8HUvzEqQ0/JlMDs/Ihi99164jVOU/QBRwCfIm74a0h/ockrVhMdgk8Bh9OsDt67iWO7yPa+oZCaNYOpfx0wJbA+jqO4fbaWWIe97sYR7Xo+Mago9bmSKp4BvgqcSjwur7vfI47xotr3+GKqVXum/nXIlMB6uYL899dq4JSiKpTAOOAk4oa3lLTnRhljaatt5lHvsQOnEsd63u35naIq1AC1Sv0riqsE1seu5DvwbAXxjriODgA+T4yaT3k+VCmeaLXZK7po7yqYR75fkJ7BxbGy4qp/XSrDYxNXCczOkeRzIiwBji2wHkXYiniVUfbFlKoQtxNzi9RtAOHh5DNh0Cri9ZKy4ap/PTAlsF5eQ7aj0hcAhxRag3ztDvw18DTpLxp1i6eBvwJ2G/PeKL9DgIVk10ZLqe+TtBTKMKC9Eql/7ZgSWD+vICZ+6XW/3ETcMOtgL+KV1zrSH+91j7XEWIH9xrRnym82cAu9t8u9xFNXZcfUvx71k74HZUpg9rYiHssuoPP98Vjrd7OehTKFA4mbUdHpXUYsunM58Si96vqJV0YP03k7LALOxQmz8mDqXwZMCayvqcRMY9cycnrTKmJu9HcTnYeq2x+4jPRjXIzYB98C9h1xj1XDROIcuZKRMwXWEo+GzyHOQWWvDGPYck/9K2IijunEqN6UcyhfDLw34fabYFvgYCJjYCZx8iwAngLuJDoBVbcr8GlioqI6PMGokwHga8CfEcdc1U0G5hLH3CziWv0MsR7DXcRYHOXnYmLu/1RWEeNdarEGiimBqrIpxOC+laT/xmuMfq7/JXEDlbph6l/GyvA4xZRAdeNU4l1c6hub0Vk8AZy55e6URmXqXw5MCVSV7EkxMyAa+cblrX0pjYWpfzkxJVBV0A98lHgHl/p4NbKJlcTS1nWeYljZMPUvJ6YEquz2IFbkS30BMPKJm3F5XI3M1L8cmRKosjoTWE7649PIN1YS6XNNWopYY1OGsWqVWvWvU64SqLLZnnhPnPrGZBQb3yZGe0uDXPWvAKYEqizm0t3sa0Y9Yj5wFJKpf4Upw2MWUwL1HmAN6W9CRtpYQ7wSULOZ+lcgUwKVyiTg30h/shvliq8SU/GqeUz9K5gpgUphB+AG0h97RjnjFmAn1DSm/hXMlEAVbW/gAdKf6Ea542Hqs9SwxsbUvwRMCVRRTgSeJ/3xZlQjFgOvRk1QhjFptU79a8eUQBXhFEZeWtUwhos1xKNh1ZupfwmZEqg8/T6xdnrqm4lRzViHCwrVmal/iZXh8YspgfV0BnEBT30TMaod64F3ozpqfOpfGabDvJZ4R5vKfGAvYEPCMihb7wW+QjmO7xQWAo8TS+I+BjxLjIF4nni/vb71755v/Tk4I96E1s+DMQPYHditFTMLKHsZbQTeRzwuVj2MAx4k7UqR1wLzEm6/FEwJVJZOIW5wqY+pImIZ8EPgb4B3AkcA2/Tcgu1tCxwJvAv4WyKlsinrJ6wHXt97E6okTP0rCVMClZWdiW+7qU/svOIZ4D+JWQznUI7UoXHAAcQ35EuBRaRvpzzbv6lPQerG1L8SMSVQWfgy6Y+jLGMAuB34FHAQ1Xil0Q8cAnwauIP0bZh1XJBdUymRMow9a2TqXzumBKpXe1GfEf93AR8GXpJpC6WxO/BR4B7St2sW8QJp3xurd6b+lZApgerFl0h/c+glngP+jnicXlcHAl8gBiKmbu9e4vysG0aFMfWvpMrwWMaUwOqaT/obQzdxBzGobuvsm6S0JhOpdXeRvv27iV9n3yQqSONT/8rMVQLVjYNIf1J3GjcBp+bRGBVzHHA56fdHpzEnj8ZQrlz1r+RMCVQ33kn642ascTVwdD7NUGnHEhfH1PtnrOEMgdVj6l/JmRKobnyC9Cf2aHEvMUeBRjYPuJP0+2u0ODevBlBuTP2rAFMC1anzSX/MtIuFxLfF/txqXz/9xFOdZ0i//9rF3+dWe+WhDGPMTP0bA1MC1am/Jf0NYfMYAL6KmSW9mE507so4s+Pncqy3smfqX4VcSPqd5YW7Oj5G+hvC0PglcFSuNW6Wo4FfkX6/Do2P5FpjZakMqX9fyb2WNbI/6R/XmBJYHW8j/Q1hI7Gg1BdpVkpfUSYTs/Clvi4Mxun5VlcZKkPqX53n98iFKYEaq91Jf4IvBF6Td0XFa0k/NmAA2DXviioTpv5VlCmB6kTKqWZvBHbJv4pq2ZWYRyHV/r4j/yoqI6b+VZQpgerEX5DmGPkCML6A+unFJhCvW1Ls808VUD9lw9S/CjMlUGM1nZhPv6jjYh1wdiE100jeTbGLQD1PDCpT+Zn6V3GmBKoTRU0ItAQ4qaA6aXSvA5ZSzL53AqDqMPWvBkwJ1FhNBu4j3+PhGWK9e5XLXGAR+e77n2OGR1WY+lcTpgSqE3OIx7R5HAdPAvsVVxV1aH9iH+Wx75/HfV8lpv7ViCmB6sQrgWVkeww8DLy0yEqoK3sR+yrLfb+MOKZUDab+1YwpgerUXGA+2ez7m4GZxRZfPZgF/Jhs9v2j+Mqnakz9qxlTAtWN7YiBQOvobp8vBT6JaX5VNIFI1+t2cOA6YgDw9KILrp6Z+ldDpgSqWy8Hvg6sZmz7eTGxwNCMFIVVpmYAf8fYx4WsBr4G7J2isOqZqX8d6EtdgA5MB54ApiQsw8XAexNuX72ZQqTvvZaYPnhXYBti9PjTxCI+VxGzzK1PVEblYzzxHv/1wD7EK50diScETxGvi75PvLtdmaiM6t3FwFkJt78K2I34EqGMmRIoSRqOqX81Z0qgJGk4pv41gCmBkqShTP3rQhVHN18AnJhw+7OBU4HLEpZB6sTWwJ5EetwuwDRi7MNQy4DlxPvwhcTFdE2BZZR68UbiGE/pgsTb71iVBgEO6gceIu3Ovg7Xflc5TQGOAY4GjiBem80mzptODBBPu34B3Erk1d9CDHKSyuY64ISE259PTEK1IWEZGsOUQGmT7YEzgUuJb/F5HfOrgcuB9+DESCoPU/8axlUC1XQTgN8nvvmsp/jjfx0xHud0qvkqUfXhqn8NZEqgmmgb4Byym+Y4i3gK+AxeBFU8U/8aypRANck04K/J9xF/r7Ec+GyrrFIRtweDIAAAEnhJREFUTP1rMFMCVXf9xPv9BaS/0I01FhFPKTw3lCdT/xrOVQJVZ3OBu0l/jHcbd+FKesqPq/41nKsEqo7GAecCL5D+AtdrrCPGB/g0QFlz1T+ZEqhamU3k26c+prOOm4kFmKQsmPonwJRA1cexxCx8qW/WecUi0k7Wovow9U+/YUqgqu69wFrS36TzjhdIu1yrqs/UP72IKYGqsnNJf2MuOs7LpOXURKb+aQumBKqKPk/6i1mq+FwG7admMfVPwzIlUFXzKdIfs6njkz23oprE1D8Nqx94mLQHhimBGquTSf/aqgwxAJzSY1uqOUz9U1sfI/0FzZRAjWYS8Djpj9WyxPxWm0gjKUPq30dzr6W6ZkqgquCjpL/pli0+1FOLqglM/dOoTAlUmU0m8uFT33DLFk8DW/fQrqo3U/80JqYEqszKMFi1rHFqD+2qejP1T2NmSqDK6h9JfyEra1zYQ7uqvkz9U0fK8C3LlEANJ/WFrMzxUA/tqvoy9U8dMSVQZdRHM6b77TZeaLWRNJSpfznpT12AnAyQfsDGiZgSqBebAUxIXYgS2wpHWevF5gCvTlyGC4ANicugDpkSqLLZg/Tfsssee3TZtqonU//UNVMCVSZbk/4GW/YwFVCDTP3LWV1fAQz6B2InpjIZeFfC7atcVgPLUheixJYQbSRBLBs9JXEZvpx4++qRKYEqkx+T/lt2WePmHtpV9WLqXwHq/gQAYgBHSrNxghNt8t3UBSixK1IXQKXxRmDPxGVIfe9QBkwJVJkcTPpv2mUNs2Y0yNS/AoxPXYACDKYE/k3CMgymBP4sYRlUDncDNwHHJdr+c8BdRKd4SevvtgNeChxCukGrN+L5oWDqnzJlSqDK5JUUe+wtJwbEHsnIE+30A0cDX2r9TpFlPLaD9lO9mfqnzJkSqDK5jPyPuQHgn+juuNsB+GeKWVjrW12UT/Vk6p9y4SqBKpOdgCfJ71h7HHhVBuU8Hngix3I+AeyYQTlVD676p9yYEqgyOZh4D5/1cXY3sGuG5XxJ6zOzLucS4KAMy6lqM/VPuXKVQJXNXGAh2R1f1wLb5FDObch2ZPaCVt2lQa76p1yZEqgy2pXen06tA/43+S42NAH4HLC+x7JeA+ySYzlVTab+KXcfI30v03xnDWcecCedHUsDwOUUe0ztC1xK52Nq7gNOwyV/taU5pB+j9dHca6nkypASeGHutVRV9QOvJ+Ygn8/wx88G4Fbg08Ar0hQTiMFSfwHcRvuL96NEXU6mGTOPqjsXkfaa3MjUv6b2xC8E3ptw+6uA3YlJWaSR7AjMBGYBLwBPE9kDK1MWahhTiFcZM4GJxLiGhcCzKQulStiOyFpJufDPhcAfJ9y+CmRKoCSVg6l/KpwpgZKUlql/SsKUQElKy9Q/JWFKoCSlZeqfkjElUJLSMPVPSZkSKElpmPqn5FwlUJKK5ap/KgVTAiWpWKb+qTRMCZSkYpj6p1IxJVCSimHqn0rFlEBJKoapfyodUwIlKV+m/qmUTAmUpHyZ+qfSMiVQkvJh6p9KzZRAScqHqX8qPVMCJSlbpv6pEkwJlKRsmfqnSjAlUJKyZeqfKsOUQEnKhql/qhRTAiUpG6b+ldT41AUoqSXA2cB+CcuwKuG2JSkrTwKfS7j9+4HFCbcvSZIkSZIkSZIkSZIkSZIkSZIkSZIkSZIkSZIkSZIkSZIkSZIkSZIkSZIkSZIkSZIkSZIkSZIkSZIkSZIkSZIkSZIkSZIkSZIkSZIkSZIkSZIkSZIkSVJz9KUuwAjGAbNbMQOYAkxt/SlJUtmsBFa0/nwWeBSYDwwkLFNbZekAjAcOA04E5gL7AHsDE1MWSpKkHr0A/KoVdwDXA7cD61MWCtJ2AHYETgdeBxwPTEtYFkmSirIMuBH4HnApsChFIYruAEwEXgucAbwZmFDw9iVJKpMNxFOBS4BvAKuK2nBRHYBtgQ8A5xDf/CVJ0ostAr4IfIl4SpCrvDsAM4APETf/bXPeliRJdbCE6AR8EXgur43k1QHoB94OfAHYIadtSJJUZ0uAzxCdgQ1Zf3geHYC5wJeBI3P4bEmSmuYu4P3AT7L80HEZftYE4DzgX4DdMvxcSZKabGfgXcQ8OD8ko3kFsnoCsBvwdeDYjD5PkiRt6TYihf6RXj+ov/eycApwN978JUnK2+FEJ+ANvX5Qr68A3gl8DafnlSSpKJOB3weeIWYV7EovHYBzgQvI5imCJEkau37iCfzWwDXdfEA3HYA+IiXhE91sUJIkZeY4Ys6d73X6i910AD5PTO4jSZLSO4IungR02gH4APBXHf6OJEnK17HEUsQ/HusvdNIBOAO4mPIsISxJkjY5CXgY+NlY/vFYb+YHETMQTeqyUJIkKX8vAMcAd472D8fSAZhGpBm8vMdCSZKk/D0MHAosHekfjSWF70K8+UuSVBV7Af842j8abQzAHwGfzKQ4kiSpKHOAx4iZeoc10iuAHYBfEvmFkiSpWhYD+wDPDvc/R3oC8CWc31+SpKraGpgOXDHc/2z3BOBY4Ecj/H9JklR+A8RsgVvMD9DuBn8LcHSeJZIkSYW4CXjl5n85XBbAiXjzlySpLo4Djt/8L4frADjqX5Kketni3r75K4AjiRn/JElSvRxLvOIHtnwC8MFiyyJJkgryx0P/Y+gTgG2ABcDkQosjSZKKsBLYGVgOL34C8Lt485ckqa6mAG8Z/I+hHYAzii+LJEkq0G/u9YOvAHYEFjK2xYEkSVI1DQA7Ac8N3vBPwJu/JEl1109rToChHQBJklR/J8CmDsCJCQsiSZKKcyLEGICZxPt/SZJUfxuBmf3AfqlLIkmSCtMH7NsP7JO6JJIkqVD72AGQJKl57ABIktRA+/YDs1KXQpIkFWpmPzA1dSkkSVKhpvUD01KXQpIkFcoOgCRJDbRNH7AB1wGQJKlJBvqIGYEkSVKD+M1fkqQGsgMgSVID2QGQJKmB7ABIktRAdgAkSWogOwCSJDWQHQBJkhrIDoAkSQ1kB0CSpAayAyBJUgPZAZAkqYHsAEiS1EB2ACRJaqDxqQsgSTlbDNwGPASsaP3dVOBlwBHAdonKlRfrW+/6ZsYOgKQ6Wg78K3AZcCOwvs2/Gw8cD7wJ+ENgWgFly4P1HV5d6pubjYZhGDWJtcBFwEw6twNwHrCmBPWwvta3iEheAMMwjCxiPnAwvTsEeKwE9bG+za5vEZG8AIZhGL3GzXT3rbCdWcAtJaiX9W1mfQuJvtYPklRV9wNHA0sz/txpxE3iFRl/bq+sbzbKWt/C2AGQVGWLgSOJEeB52BO4FZiR0+d3yvpmq2z1LZTzAEiqsveT380B4BHgnBw/v1PWN1tlq2+hfAIgqapuJ/K8876G9RF55ofmvJ3RWN98lKW+hfMJgKSq+iTFfIHZCHyqgO2Mxvrmoyz1LZxPACRV0dPALsBAQdvrB54kRo+nYH3zlbq+SfgEQFIVfZvibg60tvXdAre3Oeubr9T1TcIOgKQquirBNq9MsM1B1jd/KeubhB0ASVV0X0O2mXLb1rfm7ABIqqIFDdlmym1b35pzEKCkKhpHse+IIb4wbSh4m4Osb/5S1jcJOwCSqqgv0XZTXS+tbzEadT/0FYAkSQ1kB0CSpAayAyBJUgPZAZAkqYHsAEiS1EB2ACRJaiA7AJIkNZAdAEmSGsgOgCRJDWQHQJKkBrIDIElSA9kBkCSpgewASJLUQHYAJElqIDsAkiQ1kB0ASZIayA6AJEkNZAdAkqQGsgMgSVID2QGQJKmB7ABIktRAdgAkSWogOwCSJDWQHQBJkhrIDoAkSQ1kB0CSpAayAyBJUgPZAZAkqYHsAEiqohTXrpTXS+tbz20m1bgKS6qFyQm2OTXBNgdZ3/ylrG8SdgAkVdGsBNvcOcE2B1nf/KWsbxJ2ACRV0QEJtvmKBNscZH3zl7K+SdgBkFRFr0+wzTck2OYg65u/lPVNog/YmLoQktShZ4hHtgMFba8feAqYWdD2Nmd985W6vkn4BEBSFe0EnFTg9l5H2puD9c1X6vom4RMASVV1DzCX/L8l9gO3tbaVkvXNR1nqWzifAEiqqoOA0wvYztsox83B+uajLPUtnE8AJFXZYuBI4KGcPn9P4FZgRk6f3ynrm62y1bdQPgGQVGXbA5cD2+bw2dNan12mm4P1zU4Z61soOwCSqm5f4CqynTxmFvB9YE6Gn5kV69u7Mte3UBsNwzBqEI+RzbvcQ4HHS1Af69vs+hYRyQtgGIaRVawFLqK7b4szgPOANSWoh/W1vrmHgwAl1dEK4P8BlwE3AOva/LsJwPHAm4F3UN0FYazv8OpS31zYAZBUd0uIPO+HgaWtv9sW2As4HJieqFx5sb71rm9m7ABIktRAZgFIktRAdgAkSWogOwCSJDWQHQBJkhrIDoAkSQ1kB0CSpAayAyBJUgPZAZAkqYHsAEiS1EB2ACRJaiA7AJIkNZAdAEmSGsgOgCRJDdQPDKQuhCRJKtRAP7AqdSkkSVKhVvYDy1OXQpIkFWqZHQBJkppneT+wInUpJElSoZb3AwtSl0KSJBVqYT/wq9SlkCRJhXqgH3ggdSkkSVKh7ABIktRAD/QBM4GFqUsiSZIKsRGY2Q88jU8BJElqivuBRYNrAVyXsiSSJKkw18GmxYCuT1gQSZJUnOsA+lr/MYN4FeDqgJIk1dcGYCdg8eAN/1nghnTlkSRJBbgeWAwv/sZ/SZqySJKkgvzmXt835C+nEtMCTy28OJIkKW8rgVm01gAa+gRgBfDtFCWSJEm5+xZDFgDcfNDfBcWWRZIkFeTCof+xeQfgp8C1xZVFkiQV4PvALUP/Yri0v88WUxZJklSQLe7tfcP9K+Bm4Jh8yyJJkgrwI+BVm/9luw7A4cBPcGIgSZKqbAA4lrinv0i7G/xtwL/kWSJJkpS7f2SYmz+0fwIAsD2xSuCMPEokSZJy9RywLzHb7xbGjfCLq1u//KYcCiVJkvJ1NpuN/B9qpA4AwF3Ay4EDsiyRJEnK1aXAp0b6ByO9Ahg0Fbgd2CeLEkmSpFw9BBwKLBvpH41llP8K4PeIVwKSJKm8XgBOZ5SbP4w9ze9nwFnAxh4KJUmS8jMAvAu4cyz/eLQxAEP9nBhJ+IYuCiVJkvL1MeDisf7jTjoAEPMDbA0c1+HvSZKk/JwH/FUnv9BpBwBisaAdgCO6+F1JkpStLxHf/jvSTQcA4CpgDTCvy9+XJEm9+xzw0W5+sdsOAMSCQfOBU3DNAEmSirQBeD/RAejKWOYBGM0bgK8SrwUkSVK+ngXOAL7Xy4dk0QEAeAnwdRwcKElSnm4l8vwf7fWDenkFMNQy4BJgInA0vhKQJClLG4DPA28HFmfxgVk9ARjqEODLwFE5fLYkSU1zJ/G+/6dZfmge39TvAo4B3kGbJQglSdKolgAfItLuM735Q3avAIZzD/DPRLrggcQEQpIkaWTPE4/7/wD4ITlNw5/HK4DhbEOsS/xhYMeCtilJUpU8A/w98Rp91MV8elVUB2DQROC1RPrCm4CtCt6+JEllsgG4nhhI/w1gVVEbLroDMNQM4DTgZOB4YNuEZZEkqShLgBuAq4FLgedSFCJlB2CoccChwAmtP18O7ANMSlkoSZJ6tBr4VSvuAK4jRvVvSFkoKE8HYDj9wO7AHsQsg1OHxHY9fO65PZesO11P1yhJDVPF6/TzwIpWLCdy9R8FHgMGei5ZDsrcAchLLqMpx6CJbS1J3fA6XQBn7JMkqYHsAEiS1EB2ACRJaiA7AJIkNZAdAEmSGsgOgCRJDWQHQJKkBrIDIElSA9kBkCSpgewASJLUQHYAJElqIDsAkiQ1kB0ASZIayA6AJEkN1MQOQIp1mUu5FrQklZTX6QI0sQOwKsE2VyTYpiRVldfpAjSxA7AwwTYXJNimJFWV1+kCNLED8PME27w3wTYlqaq8ThegiR2AqxJs88oE25SkqvI6rVzsBGwANhYUG4CZhdRMkurB67Ry8z2KO7DsVUpS57xOKxcHUUzvcgMwt6A6SVKdeJ1Wbv6d/A+sSwqrjSTVj9dp5WJ74EHyO6h+DcworDaSVD9ep5WbfYElZH9QLQPmFFgPSaorr9PKzdHEBBBZHVQLgKMKrYEk1ZvXaeVmN+AOej+obgdeUnDZJakJvE4rNxOA99BdL3MRcC4wsfBSS1JzeJ1WrqYCZwM/ANbS/mBa2/o3Z7d+R5JUDK/TGehLXYCSmw4cDuwFbNv6u6XAw8BtxMAUSVI6XqclSZIkSZIkSZIkSZIkSZIkSZIkSZIkSZIkSZIkSZIkSZIkSZIkSZIkSZIkSVJe/j+9uwa4T+x4uAAAAABJRU5ErkJggg==;" vertex="1" parent="1">
          <mxGeometry x="80" y="340" width="72" height="72" as="geometry" />
        </mxCell>
        <mxCell id="Sa5Q3vqMQas_lql_X_UZ-19" style="edgeStyle=orthogonalEdgeStyle;rounded=0;orthogonalLoop=1;jettySize=auto;html=1;entryX=0;entryY=0.5;entryDx=0;entryDy=0;" edge="1" parent="1" source="Sa5Q3vqMQas_lql_X_UZ-11" target="Sa5Q3vqMQas_lql_X_UZ-13">
          <mxGeometry relative="1" as="geometry">
            <mxPoint x="453" y="320" as="targetPoint" />
            <Array as="points">
              <mxPoint x="443" y="400" />
              <mxPoint x="443" y="211" />
            </Array>
          </mxGeometry>
        </mxCell>
        <mxCell id="Sa5Q3vqMQas_lql_X_UZ-20" style="edgeStyle=orthogonalEdgeStyle;rounded=0;orthogonalLoop=1;jettySize=auto;html=1;" edge="1" parent="1" source="Sa5Q3vqMQas_lql_X_UZ-11" target="Sa5Q3vqMQas_lql_X_UZ-12">
          <mxGeometry relative="1" as="geometry">
            <Array as="points">
              <mxPoint x="443" y="400" />
              <mxPoint x="443" y="541" />
            </Array>
          </mxGeometry>
        </mxCell>
        <mxCell id="Sa5Q3vqMQas_lql_X_UZ-11" value="Loadbalancer" style="shape=image;verticalLabelPosition=bottom;labelBackgroundColor=default;verticalAlign=top;aspect=fixed;imageAspect=0;image=data:image/png,iVBORw0KGgoAAAANSUhEUgAAArwAAAK8CAYAAAANumxDAAAABHNCSVQICAgIfAhkiAAAAAlwSFlzAAALEwAACxMBAJqcGAAAIABJREFUeJzs3Xe0JUW59/Hvmcgw5CHnMAiCZJAgCiiImL1XRdQXs9eAETFgQkVBxKyAiIKCXEFR4BpBBUQQAUkqknOQDJMz7x91gBlm73N2qN5Ph+9nrd9CXfduqqv6dD+7d3UVSJIkSZIkSZIkSZIkSZIkSZIkSZIkSZIkSZIkSZIkSZIkSZIkSZIkSZIkSZIkSZIkSZIkSZIkSZIkSZIkSZIkSZIkSZIkSZIkSZIkSZIkSZIkSZIkSZIkSZIkSZIkSZIkSZIkSZIkSZIkSZIkSZIkSZIkSZIkSZIkSZIkSZIkSZIkSZIkSZIkSZIkSZIkSZIkSZIkSZIkSZIkSZIkSZIkSZIkSZIkSZIkSZIkSZIkSZIkSZIkSZIkSZIkSZIkSZIkSZIkSZIkSZIkSZIkSZIkSZIkSZIkSZIkSZIkSZIkSZIkSZIkSZIkSZIkSZIkSZIkSZIkSZIkSZIkSZIkSZIkSZIkSZIkSZIkSZIkSZIkSZIkSZIkSZIkSZIkSZIkSZIkSZIkSZIkSZIkSZIkSSreUHQDJEmlNgnYcDirA1OGMwmYCEwAFgJzh/MY8OBw7gJuBR4AHh9ssxVoCrAnsAOwKbAmsAywCHgUuBP4B3Ax8Pfh/10qlAWvJOkJ6wK7AdsD2wBbAetk+NyZwL+Bq4dzCXAVMD/DZ6scJgCvAd4G7AGM6fD/737gNOA44NpimiZJkppsZWB/4CTgNtJT2EFlJvBH4GOkwtoHMNU0hlTk3kl/58Mi4AzSE2FJkqS+rAq8k1RsLmSwRe5IuR04GtgRi9+qmEqalpDzPJgDfILOnxBLkiQBqXh4IekJ2nzii9vRch1wMKk4Vzm9hDRfu6hz4HfAigM7GkmSVFmTgYOAm4kvYnvJXOBE4Fm5O0Z9ORBYQPHjfxV+6ZEkSW2sAHwGeJj4ojVXfgPslLOT1JNXM9ipMNdg0StJkhazDHAIaUmw6AK1qJwJbJmrw9SVbYBZDH7MLXolSRJDwKuAW4gvSAeRBcC3gVVydJ46sgxp2bCoMb8ai15JkhprQ9ILPtFFaEQeIs0ndVWH4h1G/HhfTdrUQpIkNcQY4P3ADOILkej8Dli/v+7UCFanPOeZRa8kSQ2xNnAO8cVHmfIoaRMN5fd54sd38VyFRa8kSbX2Iur9Ulq/ORGY1HPv6unGAvcQP65Pz5VY9EqSVDtjgE+StmCNLjbKniuAjXrrZj3N84gfz5GKXl9clCSpJiYBpxNfYFQpDwHP7aWztYTDiR9Li15JkmpuNeBi4guLKmYucED3Xa7FnEv8OI6WK7DolSSpstYFriO+oKh63tdtx+tJdxE/fha9kiTV1EY0ZyOJQeQT3XW/SPPGB7mNcI6id+VCekKSJGW3AXAH8QVE3XJoN4MgJhM/Zt3m71j0SpJUemsDNxFfONQ1H+h8KBpvWeLHq5dcjkWvJEmltSLwD+ILhrrnjZ0OSMMNAfOJH69eYtErSVIJjacab8TXIfOAPToblsa7lfjx6jWXAyvl7xJJktSrY4kvEJqUR4CpHY1Ms/2K+LHqJ5dh0StJUim8lfjCoIm5hvRiltr7JPHj1G8seiVJCrY9MIf4oqCpOYU0V1Wt7UD8GOXIpaQ58pIkacAm48YSZciBow1Uw91I/BjliEWvJEkBjiO+CDAwHdhklLFqso8QP0a5YtErSdIA7UP8zd88lfNJO4tpacsDDxI/RrnyNyx6JUkq3GSqvdxTXfPOkQat4Q4ifnxy5hIseiVJKtRRxN/wzdJ5DFhjhHFrsjHARcSPUc5cAqyQs5MkSVKyKWnjg+ibvWmdE9oPXeNtSL2mNjyORa8kSYU4m/ibvGmfRaSluNTa84DZxI9TzvwVi15JkrLZnfibuxk957QbQAGwL/VbO9qiV5KkTM4j/sZuOssebcZQyb7U70nvxaQVKSRJUo/2JP6GbjrPBS1HUYuz6JUkSUv4DfE3c9Nddm45klrcC7HolSRJwJbE38RN9/lZq8HUUupY9F6ERa8kSV2p4xbCs4G7gVuA24CHS9Cm3FkIrL/0cKqFOha9f8GiV5KkjiwHTCf+5t1PZpGWU/swaVmqVYGhFse6DLAF8HrgGODmErS93xzW4jjV2j7Us+hdLmcnSZJUR28n/qbday4C3kjaCrkXQ6Q1bY8BZpbgeHrJncDYHo+/ifYhfUGKHrecseiVJGkUFxB/w+42FwHPzdwPU4AjqOb6rc/P3Bd1tzf1K3ovxKK30lr9JCVJVTVEWjx+peF/TgYmDWciMI70tG4sg7n+rQx8c0D/rhweAz4I/Ih0ky/CxsDxwAsK+vwiHA/8T3QjFjOG1I8bAqsA4ynfObYlaQrMhOiGZPQXYD9gRnRD1L2y/YFIUjsrAVOBDYD1hrMOsMZwVicVmGOiGlhxlwKvAe4YwL9rDHAwcCTVGK+HSefYgsA2rA7sD7wU2A2fNka5EHgxFr2SpD5tALwM+BjpSePfgIeI/0mzzvk56Sn4oL2Y6szt3b2gPhjN5sApwLwO2mgGk4vofV67JKmB1iM9VfwK8EcsbCNyKmmqR5TdqUbR+8WiOqCNycA3SE+Vo4/dLJ1bsOiVJLUwBGwFHAScDtxD/E2r6fkdaf5ntH0pf2F3RWFHv7RtgBsLOg6TL9NJL2NKkhpuXeBtwP8C9xN/gzJP5SbSvOiy+BDxfTJSFpJehCzai0jzQ6OP13SWeaRpWJKkhtkJ+AJwJfE3I9M6C4FntxvAIEPAb4jvm5HywsKOPtkPmFuC4zTdZT7ppUZJUo0NkdZs/SbpDf/om48ZPV9tOZLx1qPcTzc/W9yhsy3lPnYzcmYuPaSSpDrYGjgKi9yq5UFgxRbjWRafJr6P2uWMgo55eeqxDXPTM8h53pKkAk0B3ofTFaqcTyw1quWyPGnd2+h+apUbCzrm75bg2EyevAZJUmU9h7QWaBW3hTVPZTZpZ66yO5L4vmqX3OsVb0WaUx19XCZPnNogSRWzDPBW4CribyImT35CNWxKfF+1y+aZj/X0EhyTyZuDkCSV3mrA54EHiL9xmLx5JdVR1mkz+2U8xnUo//rDpvs8hEqnCnuYSxqMjUhzCW8nvTi0amxzlNlC0m52VfHb6Aa0sX7Gz3o9MDbj56kcViHNRVeJWPBK2gT4IXAD8B7yz1FUOVxN2hmqKi6MbkAbOb8IvizjZ6lcDo9ugJZkwSs113rAD4DrgLcA42Kbo4JdFd2ALl0Z3YA2chW8E4CdM32Wyucl0Q3QkrzBSc0zBfgU8G5gYnBbNDh3RjegS/eRNmJYLrohT7Nyps/ZnFT0qp7Wjm6AluQTXqk5JgIfJS1w/0EsdptmYXQDuvQ4cG90I1rI9XezUabPUTl5fS0Zn/BKzfAq0nay3mSbq4oPOB6LbkALuQqZKqyHrN4NRTdAS7Lgleptc+BbwD7RDVG4Kha8C6Ib0EKu++b4TJ+jcrLgLZkqXgAljW4Z4AukN/MtdgXlLB5HU8afhedl+pw5mT5H5fR4dAO0JJ/wSvWzF3A8MDW6ISqVKj5xyvWCWE5zM33O/Zk+R+W0KLoBWpJPeKX6WB44jrS5gMWunq6MT0tHMpa0E1nZ5Hoye2Omz1E5zYhugJbkE16pHvYCTiLvLlCql02iG9CljSjnPNdc28beAjwKrJTp81QuN0U3QEvyCa9UbcsA3yA91bXY1Uh2iG5Al3aMbkAbD2b6nMeB8zN9lsrn+OgGaEkWvFJ1PQu4HPgA1ZyfqcGaSjmnCLSzZ3QD2ngg42f9MuNnqTweB74f3QgtyYJXqqb3AJcBW0Y3RJVSle1OxwAvjW5EG7dl/KwzgGkZP0/lcD2u0lA6FrxStawAnAZ8lzSdQerGAdEN6NDulPdp9C0ZP2sm8L2Mn6dy2D+6AVqaP4NK1fEs4BfAptENUaU9E7guuhGjOJVyFufzgMnkXdN4VdILTitm/EzFuRlXySkln/BK1fAa4BIsdtW/j0Q3YBSbAK+NbkQb15J/A48HgUMzf6ZiPA7sFt0ISaqiMcARpAupMTmygLTldFmdSnwftcuPCjrmIeC3JTg+018+9/SBlSSNbjngLOIv4qZ+OZdyTmnbk/i+GSkfLuzIYRXghhIco+ktFy09pJKk0awLXE38RdzUN++kXFYgzX+M7peR8uzCjj7ZELi9BMdpussNLcZSkjSK7YC7ib+Im3pnNulcK4MxwM+J75ORMovB7Py2PvDPgOMzveXq1sMoSRrJ3sB04i/iphm5i3Ls0Hck8X0xWv5Q2NEvbTng5IKOw+TL2e0GUJLU3uuAucRfxE2zciOwHjGGgM920MYypMj5u+28jLRkWfSxm6XzxRHGTZLUxruBRcRfxE0zcyewDYM1Hjg2Q9sHlaiVLcYBbwauGKV9ZnD56EgDJklq7RDiL+DGzALewmBWb9iQ9FZ79DF3muspx6oWW5CuF/9HerltIfF907RY7FZUGf6ApSb7FPCF6EZU2FzgDtJLfvcA/yEt5P8A8NhwppNe0JpN2ilrEalQGITJwFVUaxvoXwPvJ+8Wuk8YT/o143Bg+QI+vyhfAD4T3YgWxgIrAxMp3/38w8CHohuR2ceBL0c3QpKq5pPEP62oSu4DzgG+RlpO63nAOpTvJt/KacT3X7eZC3yH9CQ2hwnAgVR3ndktM/VDUxxG/JjlzsdzdpAkNcWhxF/Ay5pZwHmkp4CvANbusY/LYj/i+7TXLCT9fP56YKUuj3sssDPwFeDeEhxLr7msy+NuusOIH7Pc+UTODlKMKjwdkermUHzDd3ELgb+Sdv/6I3ApMD+0RXmNJU0PKMPyX/1YBFxJKgCvI73o9hAwh3SMKwJrAlNJL8DtRvq5vereCXw/uhEVcRhp1Y06OZS0vbskqQsHE/+0ogyZDpwOHEDaUrXuPk18n5veztMqzTWOdBjx45U7h+bsIElqircSfwGPzBzSblr/RbVe4sphNdJLc9FjYLrLV1sNppZyGPFjlTufzNlBktQUrwQWEH8Rj8iVwHuox8/b/ajSmrMmTauJ2pCjSg4jfqxyx2JXknqwF+npZvRFfJCZB5wC7JKh/+piE5r7paeKObH1MGoxhxE/TrnzqZwdJElNsR0wjfiL+KDyKPAlYK0cnVdDJxA/Rmb0zAc2ajOGSg4jfpxy59M5O0iSmmJd0oYI0RfxQeRB0tI9K2TpufragPT0O3q8zMg5rt0ACkgrMUSPUe5Y7EpSD5Yj7bAVfREvOo+RfgJcLk+3NcJXiB830z7TSMurqbX3Ez9GuVPGXfQkqfTGkrZnjb6IF5n5wDeBKZn6rElWJO0cFz2GpnUOaT90jbcX9ZuH/tmsPSRJDfJt4i/iRea3wGbZequZ3kz8OJqlcx1pG2QtbQXSZiPRY5Qzn83aQ5LUIO8k/iJeVO4AXpWvqxptCPgD8WNqlszuIw1aw32N+PHJmcOy9o4kNcguwFziL+S5s5A0fcF5unltDMwifnxNyndHHq5GW5d6XdsOy9o7ktQga1LPFRluwqdeRfof4sfYwPXA5FHGqsm+TPwY5crnMveNJDXGeOAvxF/Ic+d7WAQUbQg4i/ixbnLmATuMNlANNhb4D/HjlCOfz9w3ktQodXtJ7SHgFVl7SCNZFbid+HFvaj4w+hA12h7Ej1GOWOxKUh/+m/gLec5cBKyXtYfUiR1p3vbTZchPSE/Z1d7niR+nfvOF7L0iSQ2yMWkr3eiLea58gzQ9QzHeTPw50KRciVN2OvEb4seqnxyev0skqTkmAJcRfzHPkdnAG/N2j3p0OPHnQxNyJ7BOh2PSdDcRP169xmJXkvr0DeIv5jlyN+nndJXDEHAy8edFnfMYsHWnAyJmED9mveSLRXSGJDXJi4i/mOfIlfiUq4zGA2cSf37UMTOB3TofCgGLiB+3bvOlQnpCkhpkCnAP8Rf0fvM73EiizJYBfk/8eVKnzAZe0M0gCID5xI9dN7HYlaQMfk78Bb3f/BgYl7tjlN0ywP8Rf77UIdOBPbvqfT3hfuLHr9McUVAfSFKjHEj8Bb3ffB2XYaqS8cBPiT9vqpyHgZ277Xg96XLix7CTHFlUB0hSk6xHetkl+qLeT1x4vZrGAEcRf/5UMTcDm3Xf5VrMicSP42ix2JWkTH5L/EW9n3wqf5dowN5F9eZTRuYiYLWeelqLexvxYzlSvlzcoUtSs7yJ+It6P/l0/i5RkN2Be4k/p8qeb5PWylb/1qa8KzUcVeBxS1KjrEmaAxh9Ye81n83fJQq2NnAe8edWGTMNeH3vXas2/kT82D49FruSlNEZxF/Ye43z2uprLPBxnOKweP5K2u5b+f038eO7eL5S7OFKUrO8kvgLe6/5fgH9ofLZDvg78edbZGYDH8Wl9oo0BvgH8WP9OHB0wccqSY0yGbid+It7LzmD9ARQzTCOVPBVdQvYfnIuMLX/LlQH9iZ+vC12JSmzLxN/ce8lFwATC+gPld86pE1Fos/BQeRm0i8wrik9WN8nbsy/OoDjk6RG2QKYR/xNvdvcAKxSQH+oWnYEfkP8+VhE/gO8D7/URVkWuIrBj/vXBnFwktQ05xN/Y+82DwGbFtAXqq7nAL8m/tzMkTuBD5MKLsVaF7iNwY391wdyVJLUMPsTf3PvNvOAPYroDNXClsAJwEziz9Vucxnw/3BN3bLZCLiJ4sf/S4M6IElqkklU80W19xTRGaqdFYF3k4rI6HN2pDwEHENagULltSrwR4o5B2YDbx3coUhSs3yG+Jt9tzmxkJ5Q3W0CHApcSjl20foP8EPgRcD4Ao9beY0BDibvCiEXk96jkCQVYF2q95Pv5cAyRXSGGmV10rSBHwDXM5hz9zHgt8AngR1IhZOqax3gWGAOvZ8T1wIH4MobKognlpScDLwxuhFdeIT0k+/t0Q1R7awObANsPZyppDmba/XwWTOBW4fzL+Ca4VwHLMzRWJXKasAbSDuz7cLom4H8h7SiyP/y1PQIqRAWvNJTu1VV6e/hlcBZ0Y1QoyxDmrf5RCaRlgebQCpe5w7nEdI83AeBR7GIaarJpGvrZsCaw/99Aen8uJ30xeemsNZJUgOdQ/z0hG7yrWK6QZIkSXVUhu0yu8nfcYkmSZIkdWiIVEBGF7GdZhbp50FJkiSpI1XbZOJ9xXSDJEmS6mgM8G/ii9hO83uq9VKdJEmSgr2R+CK20zxKWudSkiRJ6shY4AbiC9lO87ZiukGSJEl19Wbii9hO84diukCSJEl1NRa4kfhCtpPMJO1wJUmSJHXsAOIL2U7zkYL6QJIkSTU1RNrOMrqQ7ST/YPR96CVJkqQlvJz4QraTLAJ2L6gPJEmSVGOXEF/MdpKTCjp+SZIk1diexBeyneQxYI1iukCSJEl19ivii9lOckhRHSBJkqT62pw0Lza6mB0tNwITCuoDSZIk1dj3iS9mO8nLi+oASZKabCi6AVKPxgGrAisDk0hPRify1BPSucA8YDLwG8r/5PR8YK/oRkiSVEcWvCqr5YGtgE1Ju41tBGwIrAOsBqwQ1rJiPBu4LLoRkiTVkQvbqwxWAHYdzrbANsAGNOcL2c+w2JUkqTBNKShULssBLwD2IW2wsBUwJrRFcRYAzwRuim6IJEl15RNeDcrGwKuAF5OK3LLPqR2UE7HYlSRJqqz1gINJP9dHr4BQxswF1u+5dyVJkhRiArA/8EeqsfZtZL7bYx9LkiQpwAbAUcD9xBeSVchs0ooTkiRJKrkdgJ+SXr6KLiKrFJ/uSpIkldzzgD8RXzhWMfNJT8QlSZJUQrsA5xJfNFY5Z3fd65IkSSrcpsBZxBeLdcgi0mYTG3YzAJIkSSrGisDRwDziC8W6ZTbwRWByx6MhSZKkrA4E7iO+MKx77gZe2+GYSJIkKYMNgd8TXwg2LWfhUmWSJEmFGgLeD8wgvvhrah4D3jnaQEmSJKl7awHnEF/wmZSzgdVGHDFJkiR17BXAA8QXeWbJ3Au8cIRxkyRJ0ijGAd8gvrAz7bMI+BIwps0YSpIkqY01gD8TX9CZznIOMKXlSEqSJGkpu5CWwoou4kx3uQ3YbunhlCRJ0uJeQ9rwILp4M71lBvDSpUZVkiRJAHyUNCc0umgz/WUB8B4kSZL0pCHgO8QXaiZvjkKSJEmMBX5EfHFmismxpC80kiRJjTQeOJ34oswUmx+RvthIkiQ1ynjgLOKLMTOYnIZFryRJLXmDrKexwE+A/4puiAZmS2AD0pccSSqLZYB1gDWBVUj3p9mhLVIjjYtugLIbAk4AXhvdEA3cm4CZwHujG6JamAJsBUwFNgI2BFYf/t+nAJOAicAEYCEwdziPAQ8O5y7g1uFcC9w0/H+r+lqPtF39C4Adhv/7080G/gVcDPwW+CMwf1ANlFQP3yT+53UTmy8idWcisDvwceBsUqFaxLk5C/gb6Tr1WmDtQRycBmIfUvG6kO7Pi/tI163VBt5qSZX0IeKLLVOOvANpZOuQ1nP+P9IvA1Hn6j+ALwPPw2l2VbQlcB55zoXpwKGkd1AkqaVX0ds3a1PPzAf2RVrSKqQi98/En6Otcg/p6e9OuNxeFXyYNI0l93lwJfCMAR6HpIrYifRTYfTNypQr00hzMNVsQ8BuwI+p1rbiVwLvBpbP3yXq03jgZIod/0dJ84AlCUhznu4k/uZkypmbgJVQE40FXg1cQvx52E8eAY7A+b5lMZ40z3sQYz8HePFgDktSmY0F/kT8DcmUO7/Cn4ebZAzphbB/E3/u5cwc4BvAGvm6Sj04icGP+36DODBJ5fUV4m9Cphr5DGqC55OmAkSfb0VmJvAFYHKmPlPn3kvMmFv0Sg22H/E3HlOdLCS9Ba962hA4g/jzbJC5C3gD/noxKFOJfVfEoldqoNWB/xB/wzHVyu04n7duxgIfJHZZsej8nlTwq1i/In6s5wAvKvpAVU9+M66mXwEviW5EkMdJT3ZuGM59wAzS+o1P/HMIWI70dvcT/1yDtMzNs0hfGJrqNOB10Y1QFlNJb8rvEt2QEpgFHAIcS7pGKK9dgL9GN2LYXOCVwO+iGyKpWO8g/lv2IHMH8CPgzcA2wLJ992Ca+7cb8B3geopZR7LMeX3/XahAQ8BbSF/wos+lsuVs3K2rCKcRP7aLZw6uMy7V2tqktQmjLzZFZj7wG+DtwCZ5uq0jmwIHkfZ0r/sGHg8Aq+bpNg3YJNIXwOhzqMy5B9i11w7WUlainA8FZgMvLPC4JQU6k/iLTFG5HPgA5ZhusBZwMHAV8f1SVE7O1lsalA2AK4g/d6qQeaRNK9S/A4gfz3ax6JVq6NXEX1xyZwFwCuXeDWw70s95dXzq68sf1bETab569DlTtXyT9GKfevc94sdxpFj0SjWyLPXaTW0O6SK6cc5OKtgzgB+QnhxF91+u3ABMyNlJKsTLcOvwfnImeeb+N9XlxI/haJkN7FNUB0ganM8Rf0HJlZOp9hah61O+Fzj6ySF5u0eZHUD6JST6PKl6ziet1qLuPUL8+HWSWVj0SpW2PvV4uvMP6rXxwT7AdcT3a795DLdqLau3AIuIP0fqkktwHepujSd+3LrJLGDvQnpCUuFOJf4i0u8F6GBgXO6OKYEJwCdIUzSi+7mfHJ+7Y9S3N2CxW0QuJq3Nrc4sR/yYdZtZwAuK6AxJxdmKat/0riVt9FB32wM3Et/fvWY+g10CTiN7FU5jKDJ/ApbpeDSabSLx49VLLHqlivkl8ReOXnMSaYOHplgB+Cnx/d5rXKasHHaj+r8YVCGnAWM6HJOmm078ePUSi16pInYg/oLRS+aS5h421btJT0yjx6HbLASeWUB/qHObkDYFiT4XmpIvdzYsjXcN8WPVa2YBz8/fJZJyOov4i0W3mY4vDAC8BJhJ/Hh0m1OL6Ax1ZDngX8SfA03LGzsZnIar+s5+M7HolUprM6o3d/d+0lNpJbsCDxE/Lt1kPmk3Lw3WEHA68ePfxMwCthl9iBrt7cSPU7+ZCeyVu2Mk9e944i8Q3eQ2YNMiOqLingncRfz4dJOvF9ITGsn7iB/3JucmXKN3JGtSj50mLXqlklmdtGtM9MWh09wHTC2kJ+phC6r1pHc6rlU6SM/Cl9TKkBNHG6iG+z3xY5QjM4E983aNpF59kviLQqeZRlqSSyPblWrN6f1wMd2gp5lItV8IqlteM/JwNdpLiB+fXLHolUpgDHAr8ReETjIXl3zpxkuozuoN/y6oD7SkzxI/1uap3A9MGXHEmu1vxI9RrswE9sjbPZK68SLiLwSd5sCC+qDO3k38uHWa3QvqAyVbAvOIH2ezZH400qA13M7UYy7vE5lBvba7lyrlDOIvAp3kh0V1QAOcRvz4dRJv/MUZAs4nfoxN61gEtXck8eOTMxa9UoBVqMYTn38ByxbUB02wAumt8OhxHC0zadZOeYP0auLH17TPVcDYtqPXbOOA84gfo5yx6JUGrAprHc4krTqg/mxPmgMdPZ6j5XVFdUCDTaQ68/SbnHe0G0CxEnAl8WOUMzOA5+bsJEntnUP8H/1o+WBhR988VViN45eFHX1zvZf4cTWj505gmTZjqPRy31XEj1POTMeiVyrcasAC4v/gR8rV+DNfThOA64kf15EyhzQFQ3lMAu4hflxNZ3l/62HUsCnU70nvdHxhVyrU24j/Qx8pi4DnFHb0zbUP8WM7WpzWkI9Pd6uVe0hTUNSeRa+krvyc+D/ykXJicYfeeKcTP74jxdUa8hgL3Ez8eJru8pZWg6kl1LXo9SGPlNk44FHi/8DbZTZpL3UVYwPKvTrHfaRltNSf/yZ+LE33+Ree/51YBYtelZx/yPH2IK3JWVbHkH6KVXFOBN4c3YgR7ARcHt2Iivsj8PzoRmRyJ3Dt8D8fJq04MoY033tNYCppNZe6TAfYE7gguhEVsArpPN82uiEZTSdtCHVxdEOkOjic+G+y7TKf9ARSxdqMcu9g9IniDr0RNiV+DPvJDOAU4LXAGh0e8wRgN+AxHhJ1AAAgAElEQVRzpK2qo4+hn5zS4TErFb1XED9mOTONdC5L6tP5xP9Bt8tJhR21nq7Mc3l/XeBxN8ERxI9hL7mZtB328n0e/xCpYDid9AJs9HF1mznAyn32QZNY9EpaynhgFvF/zO3yzOIOXU+zPfHj3S6P4PSnXg1RvY0mHiYVuuML6I+tST97Rx9jt/Hlte7UtejdNWcnabC8icXaGbgkuhFtXIJ/3IN2NakgKKOLSD9tqzsrArtEN6ILZwPvJL2sWJQh0pz1bwHLFfjvyekcYN/oRgxbnfQy1TbAhqTicjzlu5+PB3akXmt5TyPN6f1rdEOkqvkg8d9a2+U9BR63WvsI8eNumplFwCEMtmjaDLgu83EUlQXETmtYATgI+BvVnBZSpzxGtb7ESqVwEvF/vK0yj7S2ogZrbcr98pqpZ+aTXkiLsArpaVl0H3SSiD6aDBxGKrKij988ldlY9EpdKescp7OKPGiN6Fzix980JwuBVxNrBeBS4vtitJxU0PG3szdwe4Z2m2KyEHhp29GT9KSxpLd/o/9oW+VNBR63RvYu4sffNCfvpxxWp/wv993N4KZ8HIZTF6qSg1sPoaQnPJP4P9R2Wa/A49bINiN+/E0zcirletFpe8q96+DjpJfEijQG+EEJjtN0l8+3GkxJycuJ/yNtlZuKPGh15B7izwNT79wNrET5fIL4vhkpbyzu0AE4rgTHaHrLB1qMp0pkTHQDGmyj6Aa0cV50A+QYqHAfAh6NbkQLR5O2LS6rHQv87A8A/1Pg56tYXwd2iG6E2rPgjVPWgvf86AbIgleFuhT4WXQj2pgPfCy6ESMoap3sbYGvFPTZGowh4MLoRqg9C944ZS14r4hugLgyugGqtS+RfoItq18DV0U3oo1tyD/veQj4PsXsbKfBmgT8NLoRas2CN8460Q1oYSFwc3QjxA3RDVBt3QH8KroRo3gc+E50I9pYZTg5HUCxUyU0WK8FJkY3Qkuz4I2zanQDWriN9Ja0Yk0H7o1uhGrpFNIX27I7nbRsYxnl/nXu45k/T7GGSOevSsaCN04ZC16fLJaHY6EinBndgA5NB/4Q3Yg2cha8zwG2yvh5Kof9ohugpVnwxphI2jKybK6PboCe5Fgot0ep1hz9sha8a2X8rNdl/CyVx3hgp+hGaEkWvDFWjm5AG/dFN0BPciyU22VUYzrDE/4a3YA2cv46t2/Gz1K5fDa6AVqSBW+MSdENaGNGdAP0JMdCuf0zugFd+ld0A9pYLdPnrAJsmumzVD4+4S0ZC94YZX2Dc3p0A/SksdENUO2UcaOJkcwE7o9uRAvLZfqcLTJ9jsqpjDsZNpoFb4wJ0Q1ow4K3PMp6jqi6yrz2bjtlLHhzPbAo49KUysd1lUvGgjdGWZ/w+jN6eVSxOFG5VfFXg5nRDWgh15fR5TN9jsop9wYl6pMFrxa3ILoBelKVXi6SmsRCRqogC94YZd3coaxPnpvIgle5VfGcKuPyjXMzfY6/qNWbv9KVjAVvjFwXzNwseMvDm6Fyq+KTyVwrIuSU6/p9d6bPUTnNj26AlmTBG6OsT3jLuj6wpP5V7a3xZYE1ohvRQq4vo9dm+hyV0yPRDdCSLHhjzI5uQBtTohugJ60S3QDVzpbRDehSWdv7QKbPeQi4KdNnqXz+Ft0ALcmCN8bD0Q1oY83oBuhJZXyypWp7NtW65u8a3YA2Hsr4Wb/P+FkqF3daK5kqXfzqZC7lXG5nw+gG6EkbRTdAtbMSsH10I7qwd3QD2rg342edlvGzVB7zgKuiG6ElWfDGeTC6AS1YZJWHY6EivCq6AR1aHnhhdCPauDXjZ11IebdQVu/Ojm6AlmbBG6eMBe/meE6UwQRganQjVEtvpBobULyG8q4ac0vmzzsy8+cp1uPAAdGN0NIsbuKUcUmaZYGNoxshNgfGRTdCtbQ+8NLoRoxiCHhfdCPaeJj872CcClyR+TMV52TcxKmULHjj5PxZLKcqzfGrK8dARfok5V6T96XAttGNaOMa8m8osAh4B67bWgczgTdFN0KtWfDGKWvBu1t0A8RzohugWtsJ2D+6EW2MB74c3YgRXFPQ514BfKKgz9ZgPA7sHN0ItWfBG+e26Aa0sXt0A2TBq8J9jXJuNHMI8MzoRozg8gI/+6vACQV+vor1LnwBUWppC9I3wrJlIbBqgcetka1H/DlgmpHTKNfUhp1IyzlF98tIKXr1lDHAj0twnKa7fLrVYEpKxgFziP9DbZXXF3jcGtnbiR9/05wcTDmsCdxBfH+MlLsZzBeEIeBw0tze6GM2o+fdrYdR0uKuJP6PtVV+VuRBa0S/Jn78TXOyCHgdsVYkzWGN7ovR8qOiOqCNFwF3ZWq7yZ8FwAvajp6kJfyI+D/aVpkJTC7wuNXaSpT/J11Tvywgrc8bYTXSvNjoPugkES/6LQ98EZjeQ3tNcZlBeVcSkUrpQ8T/4bbLGwo8brXmdAYTmcMY7IvM25A2cYg+7k6yAFilmG7oyMrAh4G/E98XTc9DWOxWUpleWGiiXYC/RjeijfOBvaIb0TCXUN5lbS4nPflXd1YAtotuRBf+ALwVuLPAf8cY4L3AUcAyBf57cjqX8mx1vDbwXGBrYENgCmlXurLdz8eR2rh8dEMyepg0jeGq6IZIVTMemEX8N9ZWWQQ8o7hD19NsTfyYt8sjuIRhr4ZISxBGj2E3mQ58DJiUvzvYjfTFLvoYu83bCuiLOlsJuIz4ccuZh6jWl1epdC4g/g+5XY4p8Li1pJOIH+92+U1xh90IXyZ+DHvJvcDHSfNs+zEW2A84pwTH1EvmEjudoWosdiW1dDjxf8ztMpP0c5mKtTbppho93u1yaHGH3gjPIH4M+8l80peedwOb09nT/pVJWwR/m7ScV/Qx9JNTOzheJXUsdh/G7d5roWxzfppoD9J82bI6Ere8LNq3gPdFN2IEO1HsDlNNcB6wZ3QjMpkOXE+a5/sQaT3xsaTlxdYEpgLrh7Uuv+eTxk8jW4k013nH6IZk9AiwN2nZPEl9Ggc8Rvy32HaZQf8/aaq9dSnvBiSPA/fhF+McXkv8WJru8288/zvhk11JHTmD+D/ukeJc3uKUdS3mJ/Lj4g69UcYBtxI/nqa7+LLa6Opa7O6Qs5MkJWVff3UBsFVhR99cz6b824ceUNjRN8/7iB9P03nuJS33pfYsdiV1ZXVSURn9hz5S/oI/7eU0lvIvIj+HtI6s8liWVERFj6vpLB9sPYwaVsdi9xEsdqXCnUv8H/toeXdhR988HyF+PEfLmYUdfXP5lLcauYvqbIoRwWJXUs/KPq3hcdLb2VOL6oAG2RKYTfx4jhanM+Q3keptRNHE/E+b8VPaOe1S4scoZx6hXqtLSKW2CjCP+D/80XIJ6QUc9WYicDXx4zhaZgHLFdQHTeeKDeXO1aQpR1raWOB3xI9RzjxCWnpR0gD9gvg//k7ytaI6oAGOJ378OomrMxRnCPgz8WNsWmfPtiOnzxE/PjnzKBa7Uoj9iL8AdJr9C+qDOnsr8ePWaZ5bUB8oeRZpB7PocTZL5pSRBq3htqVe56zFrhRoDNWZ3zcL2LmQXqinPSj39sGL598F9YGW9Hnix9o8lQeAVUccsWa7gPgxyhWLXakEPk38xaDT3I8vsXViC9LajtHj1WkOLqYb9DQTgX8SP94mxV+t2tuL+PHJlUdJa6BLCrY65d5q9um5HVi/kJ6oh02Ae4gfp04znbTkkAZja6rz5L/Occ76yKryfsloeRR/mZRK5fvEXxi6yU3ABoX0RLVtQnWmqDyRrxfRERrRB4kf9ybnZtxgZSQrU40VhEbLY1jsSqWzOeXfcvbpuQPYtIjOqKgtqNaT3cdJL6RsUERnaERDwM+JH/8mZjaw3ehD1GgHED9O/cZiVyqxs4i/SHSbB4Bdi+iMitmDas3ZfSKnFtEZ6sjypJcFo8+BpuXATgan4Y4lfpz6icWuVHI7EH+h6CWzafYOXW+mmnMyFwLPzN8d6sKmwEPEnwtNydGdDUvjXUz8WPWax4Bd8neJpNx+SfwFo9d8Exifv0tKayLwPeL7vdecnL9L1IPdqeYXpqrl56RlIDW6e4kfr15isStVyFZUby7v4rmUZszr3QK4ivj+7jXzSS/YqRxeTXriHn1e1DUXAJM6Hg1V8QvYNJxeJ1XOT4i/ePSTGcB7qefTlLHAh0mbcET3cz85PnfHqG9vIv68qGMuxRUZulW1hy4Wu1JFrUf1C6rHSfPAts7cN5F2AC4jvl/7zWOktZ9VPu8k/vyoU/4OrNLVCAjSexnRY9dpLHalijuM+AtJjiwkPU1cI2vvDNbawIlU76lHu3wkb/coswNxekOO/AVYscu+V3I78ePXSaYBuxXUB5IGZFnSOrfRF5RcmQl8BVgtZycVbE3gG1TracdouZ5mvVhYVa+iXufdoPNrYHLXva4n/JH4MRwtFrtSjfwX8ReV3JkFHAdslrGfctsCOIFqbffcaV6YsZ9UrF1I61xHnzNVyzHAuB76W0/5CvHjOFKmAc8p7OglhajLfuatcgHwRmC5bL3Vu+VJ6+n+hfh+KSo/ztVZGpiNgauJP3eqkPnA+0m72Kk/LyZ+PNtlOha7Ui2tDTxK/EWmyMwCziAVv4N8mWp94EPAH6jn09zFcz8wJU+3acAmU/2VW4rOvaT1jJXHMqSnqNHj+vRY7Eo193biLzSDyiLgCuDbwOuAZ5BnebOxpBviD4CbqOY6k/2kyTvh1cEQ6Towk/hzqWz5DdV+KbasyrapznT8UqMu+XNPNZ0NvCy6EUFmk162unU495G2Y32YVLjOJZ3XE0hPJlYGViW9dLYR8Kzhf9ZxXeBO/C/w+uhGKIvNSE97d4huSAnMAT4OfItUECmvLYB/UI7r5gxgP9KUM0k1txrV3e7RxOU2XJqpbsYBh9DsVRz+BEzttyM1qpOJH+vpwHOLPlBJ5bIv9VkL1hSfBfgTYJ1tQvrlJ/o8G2TuJe1I5y+Vg7EWse+QWOxKDXYE8TcdU418EjXBvsA/iT/fisxs4EjSaioarAOIGfMZWOxKjTYWOJf4G5Apd87Cp2BNMpY0T/tG4s+9nJkHfIe0Wo3ifI3BjvsM4HkDOTJJpbYq1dn60Qw+1wMroCYaR3oidwXx52E/mQYcDayXt3vUozGkdbwHMfbTsdiVtJjtcYkis3QeA7ZETTcE7EVaoWMe8edlp/kn8AF80bKMxpCethc5/vcBzx7UAUmqjpcDC4m/SZlyZB6wN9KSViMVkRcTf462yn3Ad4HdcBpOFbyNYh62XAisO8DjkFQxBxF/wzLlyFuQRrYBafvd3xK7u+C/ga8CzydNw1C1bAz8ijznwkOk+1gZ1vuVVHJHE19smdh8Dqk7y5KmPXwa+D1p++kizs25wJXAscAbSEW36mF30guyC+j+vLiLtJKM01dUGH8yqp8h4HjS1qNqnm8CH4xuhGphDWBr0qYOGwEbAquTXpRdFZgETCTtariQp3Y6fIT0pO5B4E6e2hXxX8ANwPwBHoMGb03gFcALSHNw12fpWmMWaee2vwC/Bv5MOockqStjSFuORj9pNIPNCfglVlK5LEN6kr8F8AzSPHKvU5KyGQecQXwRZgaTn+C8N0mS1EDj8ElvE3ICFruSJKnBxgDfJ74oM8XkG/jzoCRJEkO4ekMd83kkSZK0hIPobckYU67MB96KJEmSWnoZMIP4os30lseAfZYaVUmSJC1hO+A24os3011uALZcejglSZLUyhTgHOKLONNZzsJdiCRJkro2BvgisIj4gs60zkLgU7gSgyRJUl/2Ae4hvrgzS+Z24LkjjJskSZK6sCpwJvFFnkn5KbDSiCMmSZKknrwVeIT4gq+peQB4w6ijJEmSpL6sCfyc+OKvaTmF9KRdkiRJA/JK0jzS6EKw7rkReFGHYyJJkqTMJgGfAWYSXxjWLdOAjwITOh4NSZIkFWZd4GTSMlnRhWLVswA4AVijqxGQJEnSQGxJmt/r2r2955dd97okSZIGbltS4eYT3+4zH9io+y6XJElShGcAxwGziS8kq5Tv9dLZkiRJirMa8EngVuKLySpkLrB+Tz0tSZKkUEOkrYp/RirqogvLMue4HvtYkiRJJbES8Bbg96R5q9EFZtkyD9iw186VJElSuaxK2rb4Z8CjxBebZcmJ/XSqJEka3VB0A9RI44BdgRcCuwPPBpYNbVGchcCzgOuiGyJJUl1Z8KoMxgPbkYrgbYGtgS2AZSIbNUC/AP47uhGSJNWVBa/KaiwwFdiUtGbtRqT5ruuSpkesCiwf1bgC7ApcEt0ISZLqyIJXVTYBWBmYNPyfJw4H0goRc0kvzv2F9BS5zC4iTe+QJEmSuvYj4l9O6yROa5AkSVJPtiG+mO0kN/PUE2pJkpTJ2OgGSANwH/AcYJPohoxiZWAmaQqGJEmS1JV9iH+C20mmA2sX1AeSJEmqucuJL2g7yU+K6gBJkiTV26uJL2Y7zZ7FdIEkSZLqbAxpR7PoYraTXEtaak2SJPXJl9bUJE/MkX1ldEM6sBppHeELoxsiSZKkahkH3EL8E9xOMpu005wkSZLUlbcRX8x2mvNxR0RJkiR1qUpPeR8H3l1MN0iSJKnO3kx8IdtppgMbFtEJkiRJqq+xwPXEF7Od5jyc2iBJUk9cpUFN9TjwIGlt3irYEHgMuCS4HZIkSaqQIeBK4p/edpo5wFaF9IQkSZJq60XEF7Ld5B/AMoX0hCRJkmrrT8QXst3kmGK6QZKkevIlGAl2AC6jWn8P+wOnRzdCjTIOmLJYJgETSVtgLyTtDDiXNNf8weHMDGmpymAFYFvS5jlrkn6ZWgQ8CtxJ+rXqBtKXeKlwVbrBS0U6BXhDdCO6MA3YEbgxuiGqnZVIhco2pDnjU4GNgHWBMV1+1qPArcO5Frh6ODdhoVNHawH/D/gvYCdGP18eAn4HnDr8z0WFtk6SxHrALOKnK3STa4Bli+gMNcoqwOuA44B/Mphz90HgbOAQYGt8+FJ1GwM/AubR+zlxC/AOXD1Kkgr3OeKL2G7zk0J6QnW3AfBR4GLSdITo8/gu4Hhgb9LUCVXDeOAw0lSWXOfCNaSnw5KkgiwL3EH8zb/bHFxEZ6h2liM9QbuY+HN2pNwHfBPYsphuUCbrAH+jmHNgPl7XJKlQ+xN/w+82C0jLq0mtPIO0ssd04s/VbnMR6W/Sp77lsgXpqXzR438sTneRpMKcR/yNvts8RroJSU/YGTiT9CJQ9PnZb24D3o9rUJfBM0hP4Qc19j/AoleSCrEF6Se16Jt8t7kVWKOA/lC1bEN6ISz6fCwidwHvIi2FpsFbmadW2BhkLHolqSBHEX9z7yWXAZML6A+V35rAD6nHE93RcgPwEiyCBu0M4sb8BBxvScpuMuln1Ogbey/5Lc55bJKxwIdIazNHn3uDzm9IawSreK8hfry/j0WvJGX3UuIv8L3mFLwxNMFWFPemfFUyk1Twu35rcSaQpkxFj/XjWPRKUiFOI/4C32u+W0B/qBzGAB+hv4X+65YLSesLK7+3ET++i+d4LHolKavVSdtfRl/ge83R+btEwdYEziX+3CpjHiUtY6a8/k782D4938OiV5KyOpD4i3s/OSJ/lyjIrsA9xJ9TZc/XSbuAqX+bET+e7WLRK0mZ/R/xF/d+clT+LtGAvR2nMHSTC4ApPfW0Fvdh4sdypByHRa8kZbM28DDxF/d+8i28MVTRGOBLxJ8/VcwNwNTuu1yLiVyKrNO4I5skZfR64i/s/eYkXLKsSsYBJxN/3lQ5DwI7dtvxetINxI9hJ7HolaSMqrxqwxM5G5iUu2OU3UTgF8SfL3XINGD37rpfw+YQP36d5hgseiUpi1VI25tGX9j7zcU4v7HMJgC/Iv48qVNmAnt0MwhiEvHj1m2+i0WvJGXxfOqxfesNwKaZ+0b9Gwf8nPjzo46ZDuzc+VA03mTix6yXuAa5JGVyJPEX9Rx5CNgrc9+od0OkedbR50Wd8wjwrA7Ho+nGUt0v9xa9kpTBOOCvxF/Uc2Q+8P683aMeHUb8+dCE3A6s1dmQNN59xI9Xr/lOAf0hSY2zIdVfqmzx/BhfZov0/4g/B5qUvwPLdjQyzfZn4seqn1j0SlIGL6e6P/m1yjWknZU0WNtTrbfh65KT8QWn0XyV+HHqN9/O3iuS1EBHEX9Bz5nppO2UNRhTgNuIH/em5qBRR6jZXkz8GOXIt3J3jCQ1zVjgT8Rf0HPnp8BKGftJSxsCziR+rJucecB2ow1Ug00EHiV+nHLEoleS+rQacCfxF/TcuQvYL2M/aUnvIH6MDfwb5/OO5DvEj1GufDNz30hS4+wIzCb+gl5ETsKNKnLbiLQZQvTYmhTneba3CWk1l+gxypVv5O0eSWqeNxB/MS8q9wNvwpd8chgCziV+TM1TWQTsNtKgNdyxxI9Rzlj0SlKfvkT8xbzIXIhzHvt1IPHjaJbOtaRtnbW0VYB7iR+jnPl61h6SpIYZAs4g/mJeZBYCPwDWztRnTbIC8B/ix9C0zsHth67x9iX97UePUc58LWsPSVLDLAtcSvzFvOjMIm2zvEqebmuELxM/bqZ9HgPWaDt6OoT4Mcodi15J6sMawC3EX8wHkWnA4fhi22jWB+YSP15m5BzTbgAFwBHEj1HufDVrD0lSw2wGPEj8xXxQmUGaF7dBjs6roeOJHyMzeuaRtg5Xe3Useo/O2kOS1DC70LzlpxYApwPPy9B/dbEx9Vraqe75Qeth1GLq+IKuRa8k9eHFpKdG0RfziPwL+BBpc44m+y7xY2E6z3xg3ZYjqcXVsej9StYekqSG2Z/6veHcTeYBZwGvo3m7Wq1KesEvegxMd7Hw6cwXiR+r3Dkqaw9JUsO8nbTAffTFPDqzgF8Ab6QZL7odSnyfm+4zDViuxXhqaRa9KjV3TJIG7yDcxnRxi4C/kXYe+8Pwf54X2qK8xgI3U/0X+WYBFwGXkzZouBN4mLTqxBjS+sJrAlOBbYHdSdsnV93bcT5vpw4HPhndiMyOAj4W3QhJqqoPEf/0oqyZBZxPemL0CmCt3rq4NF5EfJ/2mjnAKcPHMLGHY38GqQC6qQTH0mv+1sNxN9nhxI9Z7hyZtYckqWEsejvPfcA5pLUy3wE8l7TLWxV+pfop8f3XbWaQvnCsnqkPxpC+vFxRgmPrJVtk6oem+ALxY5Y7R2TtIQ1cFW4WUp29D/hWdCMqbA5wG3D3cP5DWvf4AeBR0hzMacDs4cwjvTi4gHQTK9qywHXApAH8u3I5jfRl7N4CPnsM8CbS0k9V2p3v88BnoxvRwhCwPDCe8t3PPwF8OLoRmR1JOi5JUg/eQbNXbzDlyDTgNQzGWqQ529HH3GmuoxwF5aakLyNnkKaJuK7z4POlUUdJktTW6/DmZeJyC7A5gzUW+FqGtg8qmxXTDaMaS1rN5JIO2mgGky+OOGKSpBHtR5o7GX0xN83KdaT50FE+3qZdZcuHiuqAEexHGp/oYzdL55gRxk2SNIqdSXNQoy/mphm5HViHeFV4yemcwo5+aZOBEws6DpMv57UbQEnS6DYFbiT+Ym7qnVnA1pTDEOllueg+GSkzSS+HFW0d4OqA4zO95YbWwyhJ6sSqpEX+oy/mpr55O+WyPOVfr3enwo4+WZ80nzr6OE13ua3FWKpkxkQ3QFJLDwLPB06Obohq6RzKt3vYdOCt0Y0Yxe4FfvbKpHGpw+50TbMB8PfoRmhkY6MbIKmthcAvSevHvoByLIuk6lsAvIz0papsbidN6SnLVIunuw84s6DP/jmwa0GfreKtRfqVYpBzvSWpdvYFHiL+pztT/ZxAuW3MUxuDlC1XFnTM7yzBsZn+swhYF5WST4yk6tiItOD8dtENUaU9k7TUVZmdChwQ3YgW5pFWUFiQ8TOnkOYur5TxMxXnDtIUB5WMc3il6rgV2A04ProhqqwLKH+xC/C96Aa0MYH8y7gdgsVunaxP8S83qgcWvFK1zAH+B3gDaStYqRv/G92ADl0I3B3diDZyvlS2LOnvWfVyanQDtDQLXqmaTiVNbfhbdENUKb+ObkCHFlHetm6Y8bP+G5/u1tEm0Q3Q0ix4peq6hbRM0ufJO6dQ9XQzcFd0I7pwfnQD2lgt42e9KuNnqTyGgIOiG6ElWfBK1bYA+CzwHOD64Lao3Kq2Tujl0Q1oY9VMnzME7Jnps1Q+ZV9TunEseKV6uBTYFjiKtH6v9HQ3RjegS7cA86Mb0cKUTJ+zEWmzCdWT0xpKxoJXqo85wMeAXYCrg9ui8pkb3YAuLQTuiW5EC5Myfc6mmT5H5TQ5ugFakgWvVD+XAzuSljuaGdwWlUcV111/OLoBLUzM9DmrZ/oclZP1Vck4IFI9LQCOBrYgbVYhVXEr+TI+lZ6Q6XNyPSlWOVXxC2atWfBK9XYH8Gpgb+Da4LYo1qLoBvRgXHQDWsi1IkoZ5ycrn8ejG6AlWfBKzfBHYGvgPcADwW1RjCoWvCtGN6CFXE+dH8n0OSonC96SseCVmmMhcCwwFTgc5/c2TdWmNAwBa0U3ooVcBe+tmT5H5TQnugFakgWv1DzTgE+Tls35NuWcJ6n81o1uQJfWAJaLbkQLuZ7MXgfMy/RZKp+ybo3dWBa8UnPdB7yfVPh+Fwvfuts2ugFdKmt7H8z0OXNJ62erns6OboCWZMEr6W7SNpgbA18FZsQ2RwXZBlg+uhFdeG50A9p4KONn/SrjZ6lcDotugJZkwSvpCfcAHwHWBz4F3BvbHGU2DnhBdCO6sF90A9q4I+Nn/QR3Rqyjh/DBQelY8Ep6ukeALwIbAgcCV4S2Rjm9JroBHZoKbBfdiDZyvmx2F3Bmxs9TOXwiugGSpN48GzgRmEVabsdUM7OBVSi/I4jvq3bJvWHE1qSnvNHHZfLEJ7uSVAMrAe8ivWwTfWMxveXQpUa1XJYnbSkc3U+tclNBx3xcCY7N5OCps68AABi9SURBVMnLkCTVyhakqQ+3EH+TMZ3nIdIXl7L6DPF91C6/KOiYVyBNlYg+PtNf/vr0gZUk1cuupBUebiP+pmNGz9dbjmK89UkbokT3T7scVtiRw/aU+9jNyJlG2ixFktQQOwCfA/5O2s42+kZkls5CYJd2AxhkCPgt8X0zUvYt7OiTl5I2o4g+TtNd5gGrthhPSVJDrAW8mbT80n3E35jMU7kFWLntyA3eIcT3yUhZSJp6ULSX4pPeKmUusE7LkZQkNdIQsBXwXuA00rq/0TerpucPwISRBm1AXkr5Vyq4srCjX9r2ODe+CnmUwXwJkiRV3PrAa4GvAeeT1gCOvok1LacD40cZpyLtSTWWuzuioONvZ3ngO5T/i0BT829gmbajJ0nSKDYCXk5avP1k4HIshIvO/wGTOxmczF5FWhs4+vg7SdRWx88Cfgos6KCNZjD5Axa7leMbhZKqYgqwCbABsN5w1gXWGM7qlHu5rbK7Bng1cOMA/l3jgE8Ppwr3oYdJ59iCwDasDexPmv6xK/k3wFBnzgFeAcyJboi6U4ULjSR1aiywIqnwXYn01HISsCzpiczY4YxjMFurrwQcRXWutTOBjwPHkn5KL8KWwPdJRVtVnAC8I7oRixkHbEra/nsKMJHynWObA++jHHPEc7HYlSSpjT8T/xNst7mK9CQxZxG1LnAM1fxp/gUZ+6EJnk/9Vpo4B6cxSJLU1juJv1n3mn+QVtVYrcdjHwfsTVqWrqrry941fBzqTF2LXaeQSJI0guWBGcTftPvJQuAi4HDST7qbsXQBMJa07vJzgYNIL1o9WIK295vPo07Vsdg9F4tdSZI6cjzxN+4iMpu0gsY06rmr3iLSS5IancWuJEkNtxXxN2/TfX7RajC1lDoWu3/AYleSpK79jvibuOkuVVpJIorFriRJetLzib+Rm85zYeth1GLqWOz+EYtdSZJ6NgRcQPwN3XSWPVuOop5gsStJklp6HvE3ddNZ4aP29qKexe6yOTtJkqQm+xXxN3czcnZqO3raheovs/f0/AmLXUmSstoMmE/8Td60zg/bD13jrQvcR/wY5YzFriRJBTma+Bu9WTrTgDVHGLcmGwLOI36McsZiV5KkAi0H3Eb8Dd8smXeNMGZN93bixydnzsNiV5Kkwu1L/E3fPJU/A2NGHLHmmgTcS/wY5cr5WOxKkjQwdd1yuGqZAUwdZaya7D3Ej1GunI/FriRJAzUZuJ74IqDpefMo49R01xA/RjlyPulvTpIkDdgOwFzii4Gm5lTSC1lq7ZnEj1GOXIDFriRJof5/e/cebUdVH3D8e3MDSEIwyiNaUElJtctaXwsxJLpkKa2vLrVggYoafL8QRbQVtBpAS9VqrfVRBanW4oP6wKosCIKVaAgEohElUTGACAQISQwIed/+8ZvTs8/cmfOYc++de+79ftba65w7+3H27DNZ+Z2ZPXteR/0BwXRMPyduIFS506j/e+o3GexKkjRJnEf9gcF0SluAP+nqm5nevkb931U/yWBXkqRJZG/i8aZ1BwjTIe0Ant3d1zLt3UD931fVdBUGu5IkTTpzgV9Qf6Aw1dOSbr8QsZn6v68q6SqcriJJ0qR1CLCe+gOGqZpO7/6rELCb+r+zXtNyDHYlSZr05gO/o/7AYaqlpT18BwqDFvAa7EqSNEAWALdSfwAxVdL7cPmxKrZQ/3dnsCtJ0hT2GODX1B9IDHp6R68Dr/93I/V/f92kH2GwK0nSwJoHXEP9AcUgph3Ay3sfciW+Qf3fYzfB7pzxGgBJkjQxZgHfpP7AYpDSZuDoCmOtVn9H/d9lu/RjDHYlSZoyZgDvp/4AYxDSGuDwasOsnCdR//dpsCtJ0jTzQuBe6g82Jmv6T+KMuMbOL6n/ezXYlSRpmjkUuJL6g47JlLYCJ/UzqCp1OvV/v2lagcGuJEnTwjARiDxA/QFI3ekKYu1ijY85TJ6rCga7kiRNQ4cTAV/dgUgdaTPwalxfdyK8jfq/76uB/cd7RyVJ0uQ0BBwP/Jb6g5KJSLuBzwAHjcXgqSvD1Ls8nsGuJEkC4matM4kzn3UHpeOVvkesHKCJdzj1PHnNYFeSJI0yFziHwXosbKe0DDhqLAdJlRwDbGfivveVGOxKkqQ25gCnMbhTHXYBFwJPGeuBUV9ewsQEvT/GYFeSJHVpmFi/99vE/Ne6A9lO6TfAu4FHjMdgaEwcDWxk/I6B/wb2naidkSRJU8s84M3AVcAe6g9uG+l24OPAQlx1YVA8Cvg+Y3sc3A+cMpE7IUmSpraDiIc1XAjcwcQGuNuB5cB7iCkLM8Z5XzV+Xkacle/neNgNfIkIoqUx569oSRLE/weHAc8Angw8MUsHj0Hb24G1wM+ytBK4Htg2Bm1rcpgJHAu8Bnh29nc37gC+Siwzd9P4dE0y4JUktTeHeIrZYUTwe2CW9gX2AfYmzs5tz9Jm4qlcG4HbgJuBO4npE5oe5gLPAo4EHkvMxZ5N3IS4GbgVuAH4EfBT4gyvJEmSJEmSJEmSJEmSJEmSJEmSJEmSJEmSJEmSJEmSJEmSJEmSJEmSJEmSJEmSJEmSJEmSJEmSJEmSJEmSJEmSJEmSJEmSJEmSJEmSJEmSJEmSJEmSJEmSJEmSJEmSJEmSJEmSJEmSJEmSJEmSJEmSJEmSJEmSJEmSJEmSJEmSJEmSJEmSJEmSJEmSJEmSJEmSJEmSJEmSJEmSJEmSJEmSJEmSJEmSJEmSJEmSJEmSJEmSJEmSJEmSJEmSJEmSJEmSJEmSJEmSJEmSJEmSJEmSJEmSJEmSJEmSJEmSJEmSJEmSJEmSJEmSJEmSJEmSJEmSJEmSJEmSJEmSJEmSJEmSJEmSJEmSJEmSJEmSJEmSJEmSJEmSJEmSJEmSJEmSJEmSJEmSJEmSJEmSJEmSJEmSJEmSJEmSJEmSJEmSJEmSJEmSJEmSJEmSJEmSJEmSJEmSJEmSJEmSJEmSJEmSJEmSJEmSJEmSJEmSJEmS6vIY4BzgWmALsAvYBFwDfBh4fH1dq+wUYGmW6jCSpXXjXGc8jeTSB7us94VcvbHcn8k2RpIkaZIbBs4GdjA6uEnTbuBTwN71dLOSdTT7X4epGPDeThwz7ewH3I8BryRJmgRmAF+nGUDcAbwXOAZYCBwHfJEIdhtlLsnqDQID3v4V/fh5YYc6ryqoY8ArSZJq8X6awcP3gbkl5f6S1jPAr5+Q3vXPgLd/6Rn+xvtvdqhzVUEdA15JkjThHgVsIwKH3wFzOpT/CM1A4/pkexp8DAFvAm4kgp2lSbkZwBJgObAV2AncDHwaOLTN5z4O+Ffgp1m9XcBm4GrgDGD/gjrtpmYUBb9V+zYf+Hfg1qzOPcC3gKNy/aga8M4A3kCM9w5imsC1wFuBvZI6c4EHs3q7gHklbf9L0v5re+zPL4Gbsvc7gINLyh8O7MnKfZfOY1Bl7Nu1+b4k/yZibnpqOPu8K4g56ruz1yuAV9B5uoYkSRogZ9EMDN7SRflDiekO7wXenWxPg4/P0RpYLs3KPBS4kvIAdCvFl8mXANvb1BsB1jM6MOol4K3at6OB35fU2Q28Ljc23WrU+RURPJf1axVwQFLvy0neWwvaHSJ+2IwAD1D8Q6Fdf9YR33vj73eWlD8nKfNi2o9B1bEva/OMJG8t8Ee5/HnAyjafN0L8kCr7wSBJkgZM+h//I/pop9HGH7LXFcBLiTnAhxOB1iVZ3h7gfOD5wCLgNGBDlrcNeFLS7uOIs32Ns5afyuotBE4Erks++wu5Ph2RpVuSMkckqaFq3x4ObKQ1SDohq/dK4AZag6gqAW8jXU7MpV5ETCVJ9+nSpN5f5PqT98wk/8sV+rOOCAQbU1vWFpSdQZztHqF5c1vZGFQd+3yfGt6ZbP8Zo89Az6T1mF8NvBxYnL2uTvJWZuUlSdKA20L85353n+2kwdlyRq/i8JIk/9SC+vOB+7L8HyTbT0vqnVtQbx6tAU6RTnN4q/btH5J6VzI6ONqP1qC3asD7HUbfIHgwcFtS5uhs+wzgt8n2+bl6n0zynlehP419+EaybXGu7DFJ3gdK6jdUHfuiNt+ebLuO+EGStyQpswJ4SC5/n2x7o8ySgjYkSdKAadxQdFOf7aQBWj4AArg4y9tE+fzI8xkdqD0MWJCl/QrqLKQ8mGroFPBW7ds1ybYjS+q9tIv+FUnH8wklZV6flPlksj2dTnBmsn2Y5hnTO+htnmp+H56XbLsgV/a/aJ6xnV9Sv6Hq2OfbPCX5ew0xTaLIsqTc00vKHJWUuaykjCRJGiBjfYZ3K8XLlW2gNYjrlE7M1R8iHnpxHDGH9DPEihLpqhFVA96qfduU7PNQSdsHd9G/Io0697Ypc2hSbnmy/Y9p3jB2Q7L92Un5D/fQl7Q/jX1Ipy3cT/Nmx/2JucEjRHBZVr+hn+OisS0/v3sj5fNv78nKbGmzr0M052X3++9CkqSBNChrz3arEYAcRHdzeOcA/5Sloqdt3UUEW3lFl5fbmZ29DhHTGu4EfkGsF3wu8EbirOqywtq9qdq3RpB3F+XB9KZKPequ/obkfbqU3HpiSTCIs8N/nr0/ISnzxT77tQf4fPZ+dtL2CcC+2fvzumin6tinGtNnNmavBxCrOxSZmytbZIQIjNPykiRNK1PtJpZlNC/tHkfcFNbOkcDfZ+83AO/J5e8uqXcfEdzcCbyoi36tz17fBXwoe7+WuHS/ipiCsTnbXhZsdqtq37YAB9I+aOv3Tv8D2uSln3tfLu8/gGdl7/+WGLtjs79XEz8e+nUBsfzXMPAaYurByVnePcC3u2ij6tjnXUwssbYGOITY1+OBi3LlGt/ZgW0+Y4j4AdgoL0mSBtyjaV4Svo3iebKpr9G8dHxhsr3TZfsfZvm7KA/iDiPm5C4kbh6C1svmRWfbZnbx2Z2mNFTtW7qU1pNL6r26i/4VSS/Rl7V9fFLmc7m82cRUixEiSEzn3BbdHNZtf/L78J0k76+T9/kpE2X1q4592uZvaf4QPTbZfjejA9t0Du/Cks9blJRxDq8kSVNEepPT5ZTf8JPeJLUTeGKS1ymoOzUp84mC/DlEYNYIVBoBTCMY30DxTU0ndvHZa5My+dUj+ulbeqPUpQX9ezjx8IR+A97v0/qAiUafbkzK/FVBG+nNXj/LXnfQ/uxmp/7k9+FFSV66HvFju6xfdezbtfntJO+rubz0cccraA2gYfQqDScX9EmSJA2gYeIxsY3/5O8gpio8hzgLdgKjH35weq6NTkHdLFrPtH6FeJjAQmL90zVJ3huTeum6qJcRZ/CeDryAuHFtZ5K/iTg7l7cqKXMWMS0jLVe1b7NpDWh/SKzKsIi4xH8TrWPWzzq8K4ngfhGxVFYa7K6ieG754oJ2Lu6hD0X9ye/DMLHWbvoZ/9tD/apj367NR9Fcyqxx5rlhL1qPh9XAScS4nkTr8XYtU28KkyRJ09oM4GyajxkuSw8Qj7nN6yaoW0A8Oaxd+/m1do+h/VPW1tBcLaGR8j5aUrffvkE8DOHONnXSdW+rBLy30Br05dMtxCX/Mvl9OrZN2W76U7QPH8h9xkk91q869u3aTNdvvpPW+c6PpDXoLUqrsnKSJGkKejQRXKwiLlHvIpbGWkE8IrhsJYdug7p9gXdk7W0mztDeTswNLlq/F+CpxM1Hd2Xl7yGmXryeuAT9yqyNHURwmDcL+DgxH3hHtk9Fy01V6RtEMPVhYt+3E2cXrybOSA7RX8C7jrisfzZxo9m2rP/riUC+bPpJw5lJW/dSPKWj1/7kHUZzGbRNjH6YQ6f6UG3s27U5DFyflPlSLn8mMb/6cuJ42kkcE8uIaQ+e2ZUkSRoQH6T1bLMkSZI0ZcwEfkMz4H1i++KSJEnSYHgLcYPbRTSD3Stq7ZEkSZI0hvI3YN1P82lrkiRJ0sC7i7ix7Q/EwzGOqLc7kiRJkiRJkiRJkiRJkiRJkiRJkqajfYB/AzYAu4EHgbfX2qPxk65gcEaHsuuSslNVu0fsjhBPd7sJ+DzxKOW6+tfLk+rGyynEEweX1tsNSZJUxTmMDnSW1tmhcZTu4wPA4W3KGvC2pt3A22rq32QIeKfD8SBJEjPr7sA4eW7y/s3AauDumvoykfYFPgscU3dHJoFbgZcWbN8fOBp4F/AQ4GPAj4DrJ6hfT8teH5ygz5MkSVPUWqbPmauiM5cnl5SdDmf0uj2D+tqk7GfHu1OT1HQ4HiRJmnLaXb7Ol1kHDAFvAm4kLm8vTcoNA0uIx9huyvI3ZX+/Issv+/x1wAxijuQaYAewBfgW8ISs7DzgAmKe8U7iAQsXAX9WcZ/vJZ5CNgJsBA4qKNspwOl3n4uUfWa+3knAT4mxuhf4H+CpJW22023AOzcpe21J/bE+Pjr1b0bW5nJgK3Fc3Ax8Gji0zb7sRVzJWAH8Pqu3AfgOcHy2H0V96PRvRZIkTUK9Bryfy5VZmpWZB6zs0N7VWbmiz18HnFdSbysx5eCONvmPq7DP64B3JH9fWFC2XcA7FvtcpJuA9+ySz3uQ3p+s1m3AOysp+5OS+mN9fLTr30OJJ8mVtbcVeGFBe4cQPxTa9eV7xPSNfB8MeCVJGkBHZOkWmv95N7Y1NLb/IXtdQcz1XEjc8DWT1mBmNfByYHH2ujrJW0nrPOjG9t3EWbZ/BJ4BvJg409vI30PMKX4DsAg4jtbA8DM97HMaQA0D1yXbnpsrWxZ8jsU+Vw14txFj9SHgmURQl/blu+W7XqjbgPeEpOyXC+qPx/FR1r8h4BKax8b5wPOJY+M04mxtY6zSlSX2ovX7vhL4m6yvS4BfJnkfS+q1+3fio5slSRoQ7c5kpmeylgN75/KXJPkraD0zBrHk2YqkzJKStt+Sq3dkLj8fjC5O8q5pt3Ml+9MIoJ4C7Mq23UycyWwoG5ex2OeqAe8Io1dKOIT40TBCTBPoRaf+HExc/t+alH1BSb/G+vgo699Lku2nFvR5PnBflv+DZPvJSb3vMnrqwkHAZpoB/D65fOfwSpI0wLoNeBcX5C9L8p9e0v5RSZnLCtq+nzj7lto7yd/C6OBkdpK/tuRzixQFUB9Jtv9zsr1sXMZin6sGvA8wOhCDWGWhSjA20mO6oE39sT4+0vbT8bqYZnBfNvf3/KTu/Gzbpcm2x5fUOxF4b5YOyOUZ8EqSNMC6CXi3EjcJ5d1DMygtM0TcHDRC63JnjbZ/VVKvXf4QxcFQJ0V1ZgHrs+27aN78VTYuY7HPVQPesrGqGox1G+iuoXg1i/E8PtL20/HaQPf9HiGCWIgbHUeImxSrMOCVJE0LU3Ud3m7cRcyXzJubvbYLIkaIwGf/pHyqqN1O+WMZdDxArC5wKXHG8DxiSkWZsdjnqjqNVVVF6/COANuB24iAtJ3xPD7yHt5FmdTsXL1ep31IkjStTOeAd3fJ9i3AgVkqM0Rz2a92Z/rqdBlxM9bLiDO8p7UpO577XHaJfrxtI27oqmoij4/7iOD1TuBFXZRfn9R7WJYkSVKJoku2011jiaqHEne7FzmKOHuXlp+M3k6saQtwFsVr80J/+7wje92voM4w8Miuejo4xuP4+Hn2ejBxo+F1BWkj8QN1JnEDGsAvstcDgT8tafsqYlrLTsq/f0mSNIC6mcNbNuf0VUmZFYy+oSp/F/7JPbTdb36VOidTPA801c8+35xsn5+rly79VTaHt9e5v51UGcNe6vczVmXtn5ps/0TBZ86hOSf7bppXZt6W1Ps6o2+EPJKYljFC8cof6RMJ86tRSJKkSa6fgHcvYFVSbjXxFLBF2Wu6zuq19LYmbR0BL8TTv9oFvP3s8+eTvJ8Ql+QXA+8mVqvYQ/FnDmrA289YlbU/i9b9/QqxHvFCYm3fdA3nN+bqpWvtXkKM/yIiGL43ySt6aEW6H2cRAfKikv2WJEmTTD8BL8Rl+DQYKEqrGH25frIGvAuIp5aVBbxQfZ8X0LqmbZq+RvePFs6brAEvVB+rdu0vIFasaNfmuQXtLQB+3abOHuDMkv34aEkdSZI0APoNeCHOzL0auJy4434ncTl5GXFZu+iGv8ka8AKcQeegpso+Q6wB+1Viea2dxBO8ziTm8E7FgBeqj1W79vclHg+9gnhgxE7gduKHQ9GawA2zgNOJxxlvJuZV3w5cRDzpr129jxMrWuwg5vrml1GTJEmSetIIeHt5uIgkSeqDqzRIEyd9DPG22nohSdI0M53X4ZUm0mLgacnfv66rI5IkSdJ4yN8Y9vx6uyNJkiSNrQeJm9DWAq+tuS+SJEmSJEmSJEmSJEmSJEmSJEmSJEmSJEmSJEmSJEmSJEmSJEmSJEmSJEmSJEmSJEmSJEmSJEmSJEmSJEmSJEmSJEmSJEmSJEmSJEmSJEmSJEmSJEmSJEmSJEmSJEmSJEmSJEmSJEmSJEmSJEmSJEmSJEmSJEmSJEmSJEmSJEmSJEmSJEmSJEmSJEmSJEmSJEmSJEmSJEmSJEmT2/8BWqGtAA0GvFYAAAAASUVORK5CYII=;" vertex="1" parent="1">
          <mxGeometry x="354" y="370" width="60" height="60" as="geometry" />
        </mxCell>
        <mxCell id="Sa5Q3vqMQas_lql_X_UZ-12" value="Gpu Servers" style="shape=image;verticalLabelPosition=bottom;labelBackgroundColor=default;verticalAlign=top;aspect=fixed;imageAspect=0;image=data:image/png,iVBORw0KGgoAAAANSUhEUgAAAgAAAAIACAYAAAD0eNT6AAAACXBIWXMAAA7DAAAOwwHHb6hkAAAAGXRFWHRTb2Z0d2FyZQB3d3cuaW5rc2NhcGUub3Jnm+48GgAAIABJREFUeJzs3XeYHMW19/HvCgWEEpJA5GByjjaY6JXIGWzABIOMiTZcg40vOGCcA7axgQtcsK/JOUcTDCJnE21yFjkIgXLcff84Oy9CrHaququrunt+n+epx/dCzfSZ3mXrTHXVKRAREZGW05Y6gAIMBDYEVgZWAZYHFgYGdLXB6UITEZESmwBM7mofAC8BzwPPAQ8Dk9KFFl5dEoB1gK8BI4ENgD5pwxERkZqZiSUBY4ArgSfThpNflROA4cA3gdHAmmlDERGRFvMUcB5wNvBR4lgyqWICMAL4DnAUMCRxLCIi0tomAWcBfwDeShyLlyolAP2BHwLHAPMnjkVERGROU4ETutq0xLE4qUoCsC1wKragT0REpKxeAo4AbkkdSDPzpQ6gid7A8cCZ2DN/ERGRMhsG7Nv1v2OA2WnDmbcyzwAsDVyOreoXERGpmoeAPYA3UgfSnbImAKsBNwNLpQ5EREQkh3eA7SjhtsFeqQPoxsbAvWjwFxGR6lsMexSwcepA5la2GYD1sRsVslrfLOA1YDzwScD3FRGR+hkCDAWWxdahhTIBaAceD/ietbEi8B7QmbNNxtYOfBtYHegb80OIiEgt9MXGkO8AVwBTyD8+vYt2s33OgtjWiTw39kngAGBQ5NhFRKT+BgPfwioA5hmrXkBn0nzGFWS/mc8BO1O+xxkiIlI/bcCu2ECeddy6NHrUJXU42W7gDOCnQL/4IYuISIvrB/wMOyQoyxh2WPyQy2VprI6y7417HdgoQbwiIiJz2gQYi/84NhFYMkG8pXE1/jft38ASKYIVERHpxqLY6n7f8eyyFMGWwbb436wH0QmAIiJSPkOwyn++49oWKYJN7T78btIL2FHAIiIiZbQQ8Cx+Y9v9SSJNaEv8n5WsnCRSERERdytgRed8xrj2FIGm8k/8bs5eacIUERHxti9+Y9zNacKMbxnseETXG3NNmjBFREQyux73cW42LXL+zU9wvylTsYRBRESkSpYDpuE+3h2bJsy4nsH9hpyWKEYREZG8zsB9vHsqUYzRLIX7zZiFvv2LiEh1fQG/R96LxQyuV8yLAaM8+v4Tq/gnIiJSRa9iR9y78hkjc4udALR79D2/qCBEREQi8RnLRhYWRQm4lkqcjRVUEBERqbIRQAduY98jiWIsXBvuB/88nihGERGR0J7CbeybQMSj7WM+AlgSGODY97EiAxEREYnI9UvtIOxgoShiJwCuni8sChERkbie8+gbrSBQzARgkEffNwqLQkREJK6xHn19xspcese6EH4famJhUci8zI8dYjGwqw3FHtkMAPoCk4HxXf87qauNBT5MEayISIX4jGm1TAAW8Og7ubAopDfwRWBdYBXslMWVgaXJNiM0Dntk8xx2ZPPTwL3AxyGCFRGpgUkefQcWFsVcYiYAPoNLZ2FRtKblsCOYtwS2AhYM+N7DgY27WsNs4AngPiwZuBU7HlNEpBX5jGnRHs3HTAAkrvWA/bGjlBeJfO35gPW72neBGcA/gPOAG7v+fxERSUgJQL0sgZ1DvT+weuJY5tQX2LWrfQRcglXHejBlUCIirSx2KWApxnLAmVjd6RMo1+A/t2HAd4AHsL2x+6PfQxGR6PSHt9rWxKbVXwAOAfqkDcfbOsC5wJNYIqAZKRGRSJQAVNNywDXYwLkf9sy9ytbAEoGngZ0SxyIi0hKUAFRLH+BIrK70LkSsGR3JSsB1wPXAsmlDERGpNyUA1TES+8Z/Eu5nKlTVjsAzwM+BfmlDERGpJyUA5bcA8H/AGGDVxLHE1B/4GXY8Zit9bhGRKLToqtxWAy7FnpEXZTa2e6BRze9VrLzvJKwi40TsLOv+WIWqIVipyqX5tIrgShQ3K7EmlgR8B1vwKCIiASgBKK/RwGmEH1inYhX67sBmFR4jTGGeFYCvAKOwxxWLBXjPhgHYIsF24AhgSsD3FhGRgo3GyiG6tPY0IZZCb+CvuN8rlzYJ+/a8FfGeqa8O/BKbUQj5Wf4DLBPpM4iIhDAS979x+yeKsVBKAJrrD1xLuMHyTuy+RztcohttwObA37Fv7iE+15sU+1hERCQkJQAoAejJgsDdhBkg/wlsFDd8JwtjK/vHk/8zjgc2jRq9iEg2SgBQAjAvi2N7+/MOilcCa0eOPYthWCIwiXyfdwoqHCQi5acEACUA3VkI2/OeZyB8CdguduABLI6tTcjz2WdQzc8uIq1DCQBKAOY2EHiIfN+Af0r1i+VshyUxWe/DJGDD6FGLiLgpZQKgbYDp9AEuBzbI+PrngT2xRwdF2Aj4Xtf/9uu63nnA2cCswNe6CdvvfzJwcIbXDwBuBDYDng0YV131wo6N/hZWa6Jqh0hJ6/kAuBn4I7YIWCpGMwCf6gVcRPZvvOdR7Mr+o7ECQd1d+3aKLUV8AFaAKMt9eR1YssDY6qAvYXeaqKnFbB9hu4qqppQzADGNxv0GtKcJMZofk+2XfwZwYMGxbYdV/uspjrMLjmF1sj8SeBgb5KR7fyb9H3E1tTxtHDCCalECgPsNaE8TYhSbATPx/6WfRJzFbg84xDIb+ELBcSwCPOoQS3ftLwXHVlULYUlk6j/gamp526+pllImADoMKK5hwAX4r70YD2yNPSsv0iDcFtP1wkr+Fuk9rLTwrRleeySwW9hwamFz9Lxf6mHL1AHUgRKAeNqwwX9pz9e9B2wC3B88os9bCIvTxSJFBtJlErAzcJ3n69qwyoPLhg6o4oamDkAkEP0uB6AEIJ7/wn8Kf0LXa2KtbPf5fYj1uzMd2AurkuhjKHA+7glNK3g9dQAigbyWOoA6UAIQx6LYwTg+ZgC7A4+HD6dypmIV/57wfN2mwDeDR1Nd92AzSiJVd0XqAOpACUAcfwaGePTvAPbBavqLmQDsgP+32BOwtRdisynfSx2ESE4PA+ekDqIOVAioeF/BprB9nIDV9XexMrYgZkHgDeAfwIee14utD7AFsC6W7DwK3IHtLujJ28AewL24b/VbGPgtcFimSOvnYmAwlpQukDgWEV9jsL+nM1MHUgdKAIrVFzgDv+fQ9wLHO/Qb0PXe+871/pOBnwEnelwzpg2xxZArzPXPn8E+S7Np/keAH+H3+Q4GzsK+OQicCVwP7I1VYFQiIGXWgSX/N6FZ0coajfs+yPY0IQZ3KH57Wz8ClnF4395YRb6e3ut/8F8At7xHrMd5vjfAVtj5BfN6z4+BVRzepw242iPWTuC2DPGKiIRQyjoAMbVaAtAbeBm/QWp3x/c+2PH9fJOAIhOAZoN/o7nu+x+O1Qf3ub9f9oxZRCSEUiYAWgRYnL2B5Tz634r7ytb9HPsdAZxC+q1wW2H15/s79N0SOya4mXHADz3j+IlnfxGR2lICUIw24BiP/tOB73r0X9mjb+okwGfwB4tzJce+ZwF3ecSyI7C+R38RkdpSAlCM3YA1PPr/Hjtu19VUv3CSJQG+g3/DFMd+nVji5HM88bGesYiI1JISgGL4bDkbB/zJ8/3v9ewP8ZOArIP/BOBJj/5PARd69N+NOGWMRURKTQlAeIvjd1DOX7Ca9z5OxO9bb0OsJCDr4A92P6Z7vubXNK8h0NAb/7oMIiK1owQgvP2A+Rz7TgBOy3CNx4GjMrwOik8C8gz+twG/yfC6l3AvnATuiyhFRGpLCUB4PoPLqdje9yxOI3tZ1yPwL1DkIs/gfw82PZ+1wtdvsTUBLtYHVs94HRGRWlACENZ6uA8sHdggnMdJZE8CDiFsEpB38N8e/0chc3oSuM+jfy2LbYiIuFICENbOHn3vwGr351WGJCD14N9wvkffnQJcT0SkspQAhOWz+O+8gNdNmQSUZfAHuBT3LZKrAksEuq6ISOUoAQhnAWADx76TgasCXz9FElCmwR/gE+AGj/4jA15bRKRSlACEsynQz7HvLYQd+BpOAr6f8bWH4HfC3uZkH/zHANtSzD3w2Q3gM2MjIlIrOg44HJ/BZExhUdg++s6u//Xls4ZhqwzvD/bNfxfcq/35ugP7/C6zGVsUFIOISOlpBiCcTTz63lFYFCbP44AiFTHtP7f3gf849l0aWLLAWERESksJQDirOvZ7D3i2yEC6lC0JiDH4N/jMsKxSWBQiIiWmBCCMhbDz6V3cjXvBmrwaSUCs681LzMEf7B678jlZUUSkNpQAhOEziDxTWBTdaywMTJUExB78wW+GRQmAiLQkJQBh+AwiPsf+hpIqCUgx+AO8jPthSUoARKQlKQEIo+wJAMRPAlIN/gAzgFcc+yoBEJGWpG2AYYxw7NcJvODYd1nsYKG1gAUzxDQvk4BBAd9vXuYDrg70XtOA14BrgNsdX/M8sJJDv0UyxlR1ywPfANYEhiSORaQnM4C3gJuxvwEdacOpDyUAYQx27DcRt2/ER2BFefpmjii9jQt4zyOA67CBa2KTvu86vuf8QB+yn0JYRUcDv8M+t0hVHAw8jJ0a+nbiWGpBjwDCGOjYr9mgBbAv8D9Ue/Av0s7ARQ79XO51g+vPrw4OBP6EBn+ppg2Am3Cvuio9UAIQhuuUerNv/32AP+aMpRXsCGzdpI9PAuA6g1N1/YETUgchktNawEGpg6gDJQBhuCYAzQaljYDFcsbSKnZr8u99EoAYayLKYHPc61WIlFmz//7FgRKAMBZw7Nes/r3K0rpbqsm/99l9MCBPIBWi3y+pi2b//YsDJQBhTHPs1+y51bi8gbSQD5v8e59TCqfmCaRC9PsldaHf5QCUAITh+m2z2VTzfcDknLG0ilua/HufaX2fxwVVdhfuyapImTX7718cKAEIw3UAaTYoTQJ+nzOWVvAkcHmTPkoAPm88tr1UpMrew3ZKSU5KAMIIlQAA/BY4O0csdfccsCvNS/0qAejez3HbRilSRu8BOwEfpQ6kDlQIKAyfBKAfML2HPh3At4Arsa0uawFDc0X3WQOJswf8Y8KVHZ4GvIpVFjyd5ospwU5odDGTnn8edTMLqzVxGfZ7tiZhK02KhDYDeBOrBHgSzdf/SAmNxgYEl9aeJsTM/oL7Z1s9UYwAW2GDp2usedpfgbY4H6tbT80jrrnbO6kCFJGWMRL3v537xwpKjwDCeNGjr0t9+iJsBVyL3+r4PA4GziRNEtALWNGxr+vZDCIitaIEIAyfE/5SnD4Xe/BvSJUELIPV+HfxXJGBiIiUlRKAMHwGkVULi6J7qQb/hhRJwCoefTUDICItSQlAGG/jvhBwoyIDmUvqwb8hdhKwiUdfzQCISEtSAhBGJ+7fJFcEli4wloayDP4NMZOAUR59NQMgIi1JCUA4D3n0HVlYFKZsg39DjCRgEPBFx77jgJcLjEVEpLSUAIQzxqNvkQlAnsH/mYL6zulgrIpXUUnA5rjXObgdq7sgItJylACEcyfug8l2FFOMJ8/gfw+wj0f/i4Hvka3Yz+EUNxOwk0ffOwq4vohIJSgBCGccVqPexQhgm8DXzzv4b4/fEbpgVbm+T7YkoIjHAX2B3T36+8zaiIjUihKAsHwGlJDVnlIM/g1lSgJ2BoY79n0bLQAUkRamBCCsmzz67kSYGv8pB/+GsiQB+3n0vSHA9UREKksJQFh3YIdWuJif/LMAZRj8G1InAUthaytcXZDjWiIilacEIKwO/AaWH2DPrbMYRfbB/w5gW8IN/g2NJCCLg4GTc1z7v3FfWPkacG+Oa4mIVJ4SgPDO8+i7JNlmAZYEriD74L8jbkfqZnEStjsgi//Cjqj1tQh2dLKrcwl3VLGISCUpAQjvWeBRj/4/Anp7XuMHZFs/UPTg35AnCfgV/r+XR+OXDF3k+f4iIrWjBKAY/+fRdzngAM/339qzP8Qb/BuyJgGLA2t69F8C+LZH/7vQ6n8RESUABTkH22bm6vfAQh79Xbe6NcQe/BuyJgE+9+IvwECP/r/zjEVEpJaUABRjGjYwuRoG/Naj/xsefVMN/g1ZkoCxjv22AvbweN/HgFs9YxERqSUlAMX5X+BDj/4H4n5U8FWO/VIP/g0+ScC/gRcd+vXFzhTw8Uu0+E9EBFACUKTJ+A1QvbDV6YMd+p5C8+fYZRn8G1ySgNnAUY7vdwKwssf1nwau9+gvIlJrvqvPxc8p2ME3Ixz7rwicDnyjSb9J2D7+q4B1uvn3F2H76ssy+DecBEwATuXzq/YnYTG7lFPeBTjS89rHoZP/5jQfsBm24HKBxLGI9GQ28A52eue7iWOpFSUAxfoYOBY42+M1+2InCzbbSfAqdu7917BdAcOA17H6APf5BhrRWcAtWP2DdbEp+UexhZPvO7x+KeDv+FUNvAW4xivKetsU+zmsmDoQEQ8zsS9VP+r6v6VCRmN/7F1ae5oQC9EG3I37Z+/EvrmvnyDW5T1iPC5BfAsAD3nE2LiXyyWItaw2xhap+txDNbUytUuonpG4f76QB8X1SGsAiteJ7VP3yVj7Azfj94y77ubDyixv4Pm63wOvhA+nknphM0v9UgciksPXsZM/JSclAHE8jX+d+4WAfwCLhQ+nctqAvwG7eb7uReAP4cOprA2AVVMHIRLA6NQB1IESgHiOB57yfM1y2BHDIY4NDq0z4rV+j3+1xJnY8cDTwodTWaukDkAkkNVSB1AHSgDimQrsDkz0fN3a2Ml1SwWP6PPGF9Q3qzbgROCYDK/9IbZeQD41PXUAIoEosQ9ACUBcLwKHZHjdasA9FP8N7iPgece+DxQZCFbo52KyHS98I36VGFvFg6kDEAmk6L8/LUEJQHyXYNvYfC2DJQEbhw3nc0506HM78HiBMQzDHn18PcNrX8dW0cZ8RFEVr+JeRVKkrBrbAaVCRuO+DaI9TYjR9Mcy2CxbYGZgxwH77IP30YbtyZ/X9V/BTuArykbYIJ7l3kzEaiPIvC0EPEP6rVxqalnaLKxsetWUchtgTKNxvwHtaUKMaji2OyDrfwjX438qoKs27FHFC3Nc72OsSmGR1zwSe06d5X7MALYpKLa6GYI9IvmI9H/Q1dRc2mxsLdRXqKZSJgCqBJjOOKyc7/3AkhlevyM2Df9fwLUB4wL7JfxrVxuB7Rt/l+Kqby0PnEb2AbwD+CZW8U+a+wQ7l+G/sW2mfdKGI9LUh1gZcamo0bhnQO1pQkxiNSwZyJMdXw98IXbgAfTFSiVPJd/n9z1uWEQkplLOAMSkBGDevgR8QL5BcArwc2x6t+x6YWcYvEi+z9yB1QUXESkzJQAoAejJ8sBL5BsQO7FpspOBReOG76QXsBN2+E/ezzmLbFsqRURiUwKAEoBmlgD+Tf7BsRM7XvdkrJBQagtjaxXyfuOfc7ZDtcBFpCqUAKAEwMVQbL9/iIGy0Z4EjibuuQL9sMqH12Ir9EN9lnHYcbYiIlWhBAAlAK56Y8/zZxM2EegEXgbOBPYAFgwY83zYEcZHApdh2wZDx/4IOtpXRKqnlAmAtgGW0ywsAXgcOJuwhwEthz07P6TrOs9i5X9fAJ7D1iF8hD1CmIwN5AALAAO72lBgaWClrrYqtpuhqAWIndi+9R9S3FZEEZGWogSg3K7FnuFfQjElgHsDa3a1svoEOAi4InUgIiJ1orMAyu8N7JHIMdi38lZyKTazoMFfRCQwJQDVMBP4I7AycH7iWGJ4CdgO2At4O3EsIiK1pASgWt7GFohsh22pq5spwHHAGsDNiWMREak1JQDVdDOwCrAntoiv6iZhx3uuAPwGOxBIREQKpASgujqAy7FvyzsD/0obTiYTgBOAZbDtg++kDUdEpHUoAai+DuwwoA2w0wUvxg7XKbP7ge9gpyD+ENt2KCIiEWkbYH10Ysfh3gIMBnbFiv1shxXpSe0N4CLgLKzmgIiIJKQEoJ4mAOd1tSWBLbraKOy8gRgmA/cCY4DbgcewJEVEREogZgKgP/5pvAmc29XAKveNAtbFthWuAiyS8xqTsW/1zwNPA3cCD6GqfSIivqKNlTETAJ8iNv0Li0Je4PNT8AtiicGKwCCspO9grOzvAKAv9vOb0NUmdbWx2KD/RozARUQqagGPvhMKi2IuMROA8R59BxUWhXTnY+DhriYiImH5jGk+Y2UuMXcBfNy8y/8X89haERGRIi3u0bflE4CVC4tCREQkLp8xzWeszCVmAvAWMMOx71pFBiIiIhKR65g2DXi3yEBSehRb4diszcAWoImIiFTZIGxMcxn7HooZWOxKgI859usDjCwyEBERkQhGYWOai8eLDGRuZU0AAPYpLAoREZE49vXo+2hhUZTA6rhNg3RiR8MOSxOmiIhIbsOxs1lcx71V0oQZz9O434yfpwlRREQkt1/hPt49lSjGqH6B+w35CBiaJkwREZHMhmF7+l3Hu+PThBmXz2OATuD0NGGKiIhkdiZ+Y92qacKM7yHcb8psYJM0YYqIiHjbDBu7XMe5+9OEmcYu+GVGbwALJYlURETE3TDgNfzGuB1SBJpKG/AkfjfoNuxUOhERkTLqB4zBb2x7HBsTW8pe+N2kTuASYL4UwYqIiPRgPuBS/Me1PVMEm1ov4G78b9Y1QP8E8YqIiHSnH3AZ/uPZnbTgt/+GVfArktBo9wJLJohXRERkTkthi/h8x7EpwEoJ4i2Vn+B/4zqBD4BdE8QrIiIC8FXgQ7KNYT9MEG/p9AEeINsN7ASuB1aMHrWIiLSqlYEbyT5u3Qf0jh51SS0KjCX7zZwFXAh8KXbgIiLSMjYALsbGnKzj1WvAIpHjLr11gUlkv6mN9jR2hsCmuB/BKCIiMre+WFGfXwDPkn98mgisHfUT9KBsqw93AS4n3MA9HXipq72HJRgzA723iFTHeOBh4C6gI+d7bYh9wVg4b1BdJmDHwN6OfbMsuxWBbYDFqN+27D7AQOwb+grYZw1Vf2YGsDv22FrmYQdsdWTeTEtNTU1t7vYY2Y9cXRy4o8DYngPWzxhbDP2Bv+NX4lbN2mRgO/9b3pq+AnxC+h+amppa/dp7wNL4WRB4PkJsE4DVPGOLoQ375pr6Z1fF9jH2GKF0eqUOYB7uAkYCr6QORERqZwRwgudrfkScPduDgFMiXMfX7sCOqYOooJeBduCexHF0q2xrAOY2BDtS8eupAxGRWpkODMemZl28CSxRXDif0YkVOns70vVcXAvsnDqIirkEOBSb1Smlss4ANHyCnRlwROpARKRW+gHLOPYdQLzBH+yLWdlqm5QtnrI7HNibEg/+UP4EAGza7VupgxCR2nH99j8dW/gWk2tssZQtnrI7kAokTWVPAPbHtseslzoQEamVsV3NxSysWmksnwBPRbyei3tTB1Ax62Fj136pA+lJWROAXsBpwLnYnkwRkZBOwJ61u/pDUYF04y/YnvEyOQU7uE3cDQLOA06lvGNt6fTByvqm3rqhpqZWz3YO2RZA/ypCbNdR3hrxu2OPQ1L//KrYLqC8P9fSmB/7DyD1D0tNTa1+7QlgNPl2P+2MHf0auhjOs9jCsbJX1lsP+xs9jfQ/z6q1a7ExrjTKtA2wF1YG+KsB3ms2VvHrHuw/rBeAcdhClk8CvL+IVMtUbNAKpS+2OyCEaVRven0+YHDqIAowBPu5DscWoK8KbI6dVRMiObsC2BNLCGQOvyZ/hnUPcBAwNHLsIiJSX8OAQ7DFkHnHqV9Gjr309sUO6Mh6Q69BRwGLiEjxNiDfo+oOrL6NYAdzTCXbjXwWGBU/ZBERaXFbYgc4ZRm7phCntHSp9QLuJtsNPA9YIH7IIiIigC3qO5lsY9idlGsdXnTfxv+mTQe+kSJYERGRbuyP1W7wHc8OTRFsGSyG/5G/k4CtUwQrIiLSg22xnWY+Y9rHwKIpgk3tL/jdqBnAdkkiFRERaW5L/Isl/SlJpAktjH+mdGCSSEVERNwdjP/M9kJJIk3kt/jdoIvShCkiIuLtXPzGuJapDdAfe+7hemNeRwcCiYhIdQwE3sB9nBtPycoEF+Vr+GVGu6UJU0REJLPd8RvrdkkTZlyX4H5D7k8Uo4iISF4+pYMvSBRjNAsAE3G/IdumCVNERCS3HXEf7yZgj8hrawfcb8YLtHiVJBERqbQ24GVK+qW3V8yL4Xdgz/nYDREREamiTmwsc/XFogLpTuwEYF2PvlcVFoWIiEgcPmPZeoVFUQJv4TYN8i6a/hcRkeprw8Y0123v0cScARgOLO7Y9z40/S8iItXXCTzg2HdpYMECY/mMmAnACI++zxUWhYiISFzPe/RduLAo5hIzARji0felwqIQERGJ60WPvkMLi2IuMRMAnw81vrAoxFdfVIpZRCSPjz36RksAese6EH4zAJMLi0Ia+gErACvP0VYEBgEDsF/CAVgC0DAe+9lMxgo6jcXqNTyPPbZ5HiVvIiJzm+DRN9oagJgJQD+PvjMLi6J1LQhsDozqaqsB83m+x1A+m512t2f1beAuYAxwB1YEQ0SklfmMaT5jZS4xEwCJbzVgX2ArbH+p74CfxeLA3l0NbFvLGOAK4FZgVoQYRESkREbjXg6xPU2ItTAUOAS/QyhitXHAmcCmhX16EZHyacf97+T+sYKKXQlQirMxcDXwHjbIbpI2nG4Nw5KTe4CngIP47BoDERGJRAlA9W0KXI8VT9oV6JM2HGdrAn/DFhIei50UKSIikSgBqK7tgQexb9M7Jo4lj0WA3wOvAMdQ8+MwRUTKQglA9SwJXA7cCGyYOJaQFgFOAP6DHRstIiIFUgJQHX2AI4Fngd0Tx1Kk5YAbsMcay6YNRUSkvpQAVMMmwL+Bk2idqnw7YrMB30cnQ4qIBKc6AOXWhi2Q+xVxflYTgVeBD/hsxb/Z2CK9AVhBoYHYqVWupztmNQA4EdgC20b6YcHXExFpGUoAymth4Dxg24Le/zWsUt/DfFrO9y3P9xgMrISVEV4b+AqwPuELDm0PPA7sgy16FBGRClEhIHebAm8StgjPVGzx4IHYc/aiDAF2Ak7GEoqQn2Em8EP0SEBEqqWdEhYCikkJgJtdgCmEGzT/hS0eXCjmh+jSC0tmzsQeJYS5gut2AAAgAElEQVT6TOei2SsRqY52lAAoAWjiEKxWft4BcgZwFrBK3PB7NBj4AfAOYZKAa1DNABGphnaUACgB6MGxQAf5BsXp2LqBFSLH7qMv9gv+IvmTgAeA4XHDFxHx1o4SACUA8/BH8g+Gl2NFgqqiL/Y8fxL5PveT2BkDIiJl1Y4SACUA3fgR+QbAl7BV8lW1BDZrkecePIRtGRQRKaN2SpgAaCFVWt8CfpPxtZ3An4DjgWnBIvpUL2AkdspgX2yr4HXAJ4Gv8xb2C38F8HeyLVbcALgUOwxpVrjQam0gtltjNapzgJS0rg+AW7DiYFJBmgH4rJ2wbW1ZvvF+SLH18lcAHu3muuOwvfhFWRK4u5vrurYL0BZBF7sA75Nv1kVNLXbrwP4br+JsXzvun1OPANKEGM0Xyb7V7x6Kfda/GD3v3+8A9izw+r2B35F9QeQvCoytDrYlzE4TNbVU7RaqV8a+HffPpwQgTYhRLAi8TLZf/CuBfgXH938OcbyHlQYu0j7YdkbfezQb2Lrg2KqqN1bqOfUfcDW1vG1vqqUd988WLQGoWhZVB6eTrRLfacAe2Fa/ovTG7dv9CGDLAuMAuAjYDisg5KMXcD7Fn1NQRRujExalHop8FNkylADEdTjZMtfjgCOwafEiLQoMcuy7UpGBdLkdSzR8DwEaAVxI+DMJqq7M9SFEfKyYOoA6UAIQzzrYyXa+fk72nQK+fB4vzF9YFJ/1MNlmAtqBnwaPptompQ5AJBD9LgegBCCOXsAZ+D+/PwMtagM7z2AX/B9//AhYNXw4lXUvxc8iicRwV+oA6kAJQByHAht6vuYabNpfzB3YQlKfAawvlkRpa6B5GzgndRAiOU3GThuVnJQAFG8E/lP4jwJ7YSvaXfTvuk7VCjsNw3ZFuLoUeyTiY3O0YGhORwL3pw5CJKNpwL7A2NSB1IESgOL9ARjq0X8iNmC5THe3Y9+MJ2Jb8z7GVsAv6xVhXH2xqfnXscJC47Ftkd/DbdHeb4B/el7zRPwSjTqbBIzCDp96PnEsIq4mYdVCvwRcmziW2qjaN8aq+RL+ezoPxMruNnMotqVwziRuAPANbNHczpTvm95g4HrsW/mclgP+DGyFPeuf2cN7dAD7AU9guxZcLAL8GDjGJ9gam44lpn/A1qUUXdNBJI8Owpcgl8hG414IoT1NiMFdg19xizMc33c9mpcRngBs4hnv8h6xHuf53oOxhKTZ+/7K8f22wK9a4ER0dLCIpNGOCgG1lNWwev+u3sOOx3XxfZrP3gwCbsI/CSjCYOBmYCOHvkfitlviduwUQVcDu95bRERQAlCkn+J3f7+PPcN3saljvzIkAT6DP1jMazv2PRpbR+Dqu2gtgIgIoASgKMsDu3v0vxu42KN/f4++KZMA38G/wfWZ9Dj8iv0MAb7tGYuISC0pASjGUbgvsOwAvoM9+3Hlu3o7RRKQdfDvxO/znQk85dH/u2jxq4iIEoAC9MX28Lu6Gnja8xo+z74bYiYBWQd/sC1+73j078CvzsKi6LRAERElAAXYAVjIo//vM1zjHGBMhtfFSALyDP6fYN/QfV2BXxK1X4ZriIjUihKA8HwGl5uwOve+ZgG7AQ9meO0g4BaK2Wo5uOu9swz+k4FdyVacpgP4o0f/XdFiQBFpcUoAwhqOzQC4+lOOa00AtiFbEjAAuIGwSUBj8P9yhtdOBnYE7sxx/YuwWvcu5sdvkaaISO0oAQjrq9gaABevk2/Ag/IkAakHf7DCSBd59P96zuuJiFSaEoCwtvDoez5hjmZNnQSUYfBvOMej76b4bacUEakVJQDhtOE3kF4Y8NqpkoAyDf5gCwGfcOw7P9niFhGpBSUA4ayOHTrj4hHgucDXD5EEfMXjNWUb/Bt8HgOMKuD6IiKVoAQgHJ/pf9/jbF1NALYFHsrw2gFYUR1X3yPb4D8Ri/HODK914XNvlQCISMtSAhCOz7fnOwqLwvbSb022mQCfCnlZqulNxo4pvjfDa109BXzo2PdL2CFBIiItRwlAOK4H2MzAjsUtUp7HAUUpctp/Th0e1+gDrFJcKCIi5aUEIIx+wDKOfR8AphQYS0OZkoBYg3+DT5VEJQAi0pKUAISxAjCfY9/HiwxkLmVIAmIP/uC+EwBgpcKiEBEpMSUAYfh8i8xS6jaPlElAisEf/HZYrFxYFCIiJaYEIAyfQSR2AgBpkoBUgz/AeOADx756BCAiLUnnoofh+vwf/BKARYE1gKF+4czT34HVsD38Rfs7sDCwR4D3mga8BvwH6HR8zXNd129m2Wwh1cISWP2KIakDEenBTOAt4DFgduJYJKPR2B9vl9aeJsTMLsbtc03FKgY2szRwHfbL7nrPWqG9iM0quDjH8T1n03ozYcthJ1F2kP5nqqbm2t4FDqaa2nH/nPvHCqrV/vAVZZBjvwnYD7gny2KFfHZCP5+5rYAlRgc49J3g+J69gAUyR1Q9K2KPgrbFLRkVKYtFgL8Cv00dSF1ogAnDNQGY5NDnb9jUv3SvDTgNWLJJv4ke7+n686uDs3F7NCJSVj8CNk4dRB0oAQjDdQBpNiitCGyZM5ZW0B/4ZpM+SgA+b01gk9RBiARwWOoA6kAJQBiu5WSbDUrr5g2khTS7Vz4JQIxFkWWg3y+pC/0uB6AEoFyarQ+QT+le+dM9k7rQ73IASgDCcHm2D82nmmNWCay6ZtX+fKb1XRcMVp1+v6QufKp9yjwoAQjDdbq52aD0EnBbzlhawRRsMVtPfBIAn8cFVfYfij2JUSSGTuB/UwdRB0oAwnAdQFzWChyE7XeV7nUA38EKg/RECUD3DsC9SqJIGf0OO1RNclICEIbrADKY5nuvXwc2BK7HBjv51PNYIaBzHfq6LuzrIM7pjGXxEvb7dRN6jirV8i72BeknqQOpC5UCDsP1GfL8wOI0//Y6FtgZqwewJrBg9tA+YzDwZ+Ksej8ZuC/Qe00DXgGe9njNco79JtF6idarwPbY7+IaqBSwlNtM4E1sDYtKAQekBCCM1zz6rkTzBKDhXcI9DhgM3EK8LW8HAdeQ5jAgcD/k59VCoyi3t7uaiLQgPQIIw+eAnxSnzzUG/y9HvOYA4AbSnOswDPdqdylOZxQRSU4JQBg+g0js8+dTDP4NqZKAsh/PLCKSnBKAMF7C/dlUzApWKQf/hhRJgM89VgIgIi1JCUAY07HV+y6+jA2KRSvD4N8QOwkY5dFXCYCItCQlAOE86divL8WfZFWmwb8hVhLQy+MaM4FniwtFRKS8lACEc6dH3/aCYgAb/G8m2+A/q6C+DQOA6yj2RLq1geGOfR8GJhcYi4hIaSkBCOd2j75bFxRD45v/RhleOxm/Izb/AjyY4TqDsBjbM7zWxVYefe8oKAYRkdJTAhDOM7jv2f8i4bcD5pn2n4xV2LvT4zUTgG3IlgQU+ThgH4++PkmbiEitKAEIpxO/AfQbAa8de/BvKFsSsDr2CMDFNLLFLSJSC0oAwvI5ye8bhLn/qQb/hjIlAd/06HsPlgSIiLQkJQBhXY1tCXSxDDAy5/VSD/4NZUgC+uA3/X9JzuuJiFSaEoCwPgJu9Oh/dI5rlWXwb0idBOyLHW7jYhpwZY5riYhUnhKA8M736LsdtiDQV29stiHL4D8J2JZiDunJmwRcQ7ZSyfMBP/TofzXwSYbriIjUhhKA8G4EPvTo/6MM1xiNX7W7hklY0nFvhte6ypMEDAFOyfC6PfBLHHySNBGRWlICEN5M/J4v7wqs6XmN/Tz7Q5zBvyFPErAVsJhH//mAH3v0fwf4p1dEIiI1pASgGCfhXimvF3Aa0Obx/r7T5DEH/4asSUAbfp/vMPwSqFPIVsVQRKRWlAAU42Xgco/+m2GL2FxN9eibYvBvyJoETHHstwjwK4/3/QQ4wzMWEZFaUgJQnF8DHR79/wQs6NjXdTBPOfg3+CYBE3A/WOmPwFCPWE4CPvboLyJSW0oAivMMcK1H/0WAExz7nkjzaewyDP4NPknAybjVUtgKv2qKE8m2wFBEpJZ6pw6g5n6DLfJzfb5/CDAGuLRJvyeBw4HTsUVwc/sI2IVyDP4NjSTgemDzefS5Cbcp/UWxlfw+6yZOx+6LfFY/YIHUQYj0oANt26280Vi9fJfWnibEQpyF++fuxL6pui6C2xw70GbWHK89F6symMXyHnEel/EafYFjgVfneK8XgSPpPpmZWy/gVo84O7GV/0MyxltH82M/gxfwu49qaqnaJOAKYC2qqR33z7p/mhCLNRr3G9CeJsRCLAyMw++X/THsj7SrfsAI3AbQnsRIAOY0FP+B+eceMTbaXgFirYtBwP2k/4OuppalTQV2o3racf+M0RIArQEo3gf47VMHWBd7DOD6iGY68D4w2/M6qY3Hb2pvb+Cnnte4i+aPVFrJKcBGqYMQyWh+4AKyz3LKHJQAxPE34AHP1+yM1QcQMwo4G7/f2RnAt7GsWmAJajq9KC1lAeyRoeSkBCCODqxgje/xs4cAvwgfTuV8CdtR0c/zdb8Gng0fTmVtgv6bl3qY10Ji8aA/BvE8BXwvw+uOx3/aOyvXo4zBP5nJakNsd8BAz9fdju3CkE/53kORstLvcgBKAOI6A7gww+t+CZxK8T+vd7Htei5eKDKQLltidfuHe77ufey8BJ9CTK3gxdQBiASi3+UAlADEdxjwfIbXHY5tg/HZHeBrFnCZQ7/3gNsKjAOsyM8/sFXrPjq6XvtO8Iiq7wFs+6VI1WX5IiUJjcZ9G0R7mhCjWQ+YTLZtMPcDSxcY26LAmz1cvwM7frcofbASvx09xNBTi/W4pKq24dO6EWpqVWw3U70vr+24f75aLtQdjfsNaE8TYlQ7YEcHZ/kP4GNg9wJjWx54pJvrjsO24hVlKax6YdY/DOfhVx2wVe2MzeKk/kOupubTOrD/xgdQPe24f85oCYBKAadzI3AQtrXNd9Aagk3VnwT8BL/TAV28DGyA/dJugq2+fx4r41tUSc6vYtslh2V8/XXAt7D/gKRn12Elp3cEVsOqM4qU2fvALcDTqQORbEbjngG1pwkxiWPIlxW/QbGzAUVbEjs6Oc89eIBqfisQkdbQTglnAGJSAjBvJ5B/euwaqlUdqx9WTngK+T73E/gdCSwiEls7SgCUAPTgSLIvfGu06dgzshUjx+6jH1bgaCz5k5470SE/IlJ+7SgBUALQxIGEWaE9EzgHWDVq9D0bgj3ueJf8n68TuIpit0SKiITSjhIAJQAOdiL/tPic7V/Y7MLCMT9El15YMZ/zsOM8Q32ms9ECVhGpjnaUACgBcLQRYabI52zTgKuBQyn2EcFQYFescuE7gT/DDOAHBcYuIlKEdkqYAOhbVDk9gB0JfA62VSuEftjAvGvX//8GthXsYays7/Nd/8zHgsBKwCrAmsBIYB1gvgDxzm0sVoPg/gLeW0Sk5SgBKK9xWMGWo4HfYhXyQloKm5UZPcc/m4zVABiHTdlPxs4GmI1tsxsIDMae5y8NLBI4pnm5AfhmV1wiIhKAEoBy6wT+BNwH/J3iF/UNANYq+Bo+JmFbBU/B7oWIiARStXrKreoBYG3gKGBi4lhiuQFYAzgZDf4iIsEpAaiOmdhguCpwfuJYivQysD22G+L1xLGIiNSWEoDqeQtbJboN9VoQ9w623mEN4KbEsYiI1J4SgOq6FTuoZzNsuryqxmKPNpYH/oxtVxQRkYIpAai+e7Hp8o2w6ngz0obj7Ams8uEK2KON0CcaiohID7QLoD4eBL6GFeLZA3tMsDH+Rw0X6R3s5L9zgccSxyIi0tKUANTPeOCvXW0VYB9gK+CLpPl5v4IVHLoCuA2rKSAiIokpAai354Dju9pgYHNgVFdbnWJ+/m9hp/SN6WqvFXANERHJKWYCMN2jb+iqd2IV/W7g0wWDfbGFd6tg5XxX7vrfgcAgrMzvwK5+YHvxP8aK8zTa61gZ4eewUsIvdPUREZFP+YxpPmNlLjETAJ+BYUBhUUjDDODZrtaTPlgSMLnwiERE6mmwR9+PCotiLmVNAIYWFoX4mtnVREQkmwU9+n5SWBRzibkN0CcBWKGwKEREROLyOYI92gxAzATgA4++RR96IyIiEsvKHn0/LCyKxN7AFpM1a+9Rrv3rIiIiWbQB7+I29r0aM7DYlQBdi7+MwLapiYiIVNmawCKOfR8vMpC5lTUBAKtqJyIiUmU+Y9mjhUVRAtvjNg3SCbyEHgOIiEh1tWFHnLuOe9ukCTOO+bEtDq43Y/s0YYqIiOS2E+7j3SfYGFlrF+F+Q+p03r2IiLSWB3Ef785LFGNUu+F+QzrRWgAREamePfEb63ZME2Zc82Mn1rnelLFYTXoREZEqGIT7tvdOYBzQL0mkCfwav8zo4jRhioiIeDsPvzHu50miTGQh7DQ5nxt0cJJIRURE3B2C39g2ERieJNKE/ozfTZoF7JokUhERkeZ2wA5P8xnb/pAk0sQWww4I8rlRk6n5PkkREamkbbExymdMG497lcDaOQy/m9WJnWO/f4pgRUREuvFNbGzyHc9a+tF2G3Ab/jetE1tksUD8kEVERADb1XYy2cawO1C1W1YCppDtBj4PbBk/ZBERaXFbAy+QbeyaDKwQP+Ry2gvoINuN7ASuBzaMHrWIiLSaLwM3kH286gD2iB51yf2S7De00e4DDqUFt1SIiEhhFsLWrN1P/nHqZ5Fjn6cyPX9oAy4Ddg/wXh3AE8DdwLPYo4KPsNoDHwd4f7DHFtMDvRfYs6T+gd5rKjAt0HvF0gdVfBSRtBbE/g4Nxx5Prwp8BVgb6BXg/S8F9sYSAZlLP+Aa8mdYMdps4AFglxyftw04AHiygPgeA/bLEVsso4AxWJ2H1D9TNTU1taLaVbRQud+segPnk/6H5dN+k+FztgHnRIjtr5RrpmdO3yXf2g81NTW1KrRzsLFNHPQC/of0PzSftrPnZzw8YmwHecYWw5exWZTUPzc1NTW1IttJlPdLWKl9A5hA+h+gS7vP43O1Aa9FjO1Fj9hiuZL0PzM1NTW1otoEYB9KrApZyYrAJcB6qQNpogNbyDfToe9S2DHHMS0OvBP5mj15lxYugSkitfYotr39pdSB9CTEqsaivQiclToIB72wBMDFgCIDmYeyVU1McQ9ERGI4m5IP/lD+BGAItm3i1NSBOHgHO9bRxVjibtObDLwZ8XouXkgdgIhIQU7FZq6HpA6kJ2VOANYHHgf2TB2Io/M9+k7BtoTEchlhaxaEcEHqAERECvR1bAwr7ePrsq4BaAeuAwYljsPVC8AGwCcer1kKeITin4O/jSVT7xZ8HV/9sEJNG6QORESkQBOwXWJ3pQ5kbmWcAdgRuInqDP63AyPxG/wB3gA2xxaLFOWhrmuUbfAHm5HYFrg6dSAiIgUajI1pO6QOZG5lmwHYFZuu7hPo/aZjZYBfAj7EntHPCvTe7wP3Ag/nfJ9ewGbYYUbD8gbVZRzwIBZfZ6D3LNJaWBK1WOpARKSlNUqSj8BO61uRcNX7ZmKHAF0b6P1qZT1ssVrevZf/Bn4KbIwqL4mISHZ9gE2xA3yeJv/4NAlYJ+onqIDFsCnxrDd1JrYIr7SLLUREpPK+CFxIvrNLxgKLxg68rPpgz6qz3sxrgOWjRy0iIq1qReB6so9b9xPuUXelHUe2G/g+/vX3RUREQtkN+IBsY9iPE8RbKqtgBXF8b9w9wBIJ4hUREZnTkthZML7j2FRg5QTxlkIvbCDPMuXfP0G8IiIi3emH7WDL8iigjNvxC7c3/jfrYmC+FMGKiIj0YD6sdL3vuPb1FMGm1AY8hd9NuhXomyJYERERB/2w4nA+Y9sTlK8mT6F2w+8GjQWGJ4lURETE3VDgNfzGuJ1SBJrKw7jfmFlYUR8REZEq2BSYjfs490CaMONbE7/MqApHAYuIiMzpDPzGutXShBnXL3G/IeOABdOEKSIiktkw4CPcx7ufpQkzrmdwvyHHJ4pRREQkr1/gPt79J1GM0ayB+82Ygi2mEBERqaLhWMEf13Fv1ZjBxS5AsLlH32uA8UUFIiIiUrBxwHUe/TcrKpDuxE4A1vXoe2FhUYiIiMThM5bV+kTbx3GbBpkODEgUo4iISCiDgBm4jX2PJIqxcP2wgd3lJtybKEYREZHQ7sdt7JtGxGOCYz4CWAL3Ur5PFRmIiIhIRP927NcPWKzIQOYUMwHw2c//fGFRiIiIxOUzpkWrfVPWBOCdwqIQERGJ622PvtG2v/eOdSH8PtTEwqKQ7gwDVupqA7FFK0OwhZgDsWdSk4FPsJ/NZGASdkjT813/2xk9ahGRavAZ02qZAPis6p9aWBSyKjAKWAdYGVgFWDjne07FEoEXgKeBO4GHsEWfIiKtbrJH30GFRTGXmAlAS513XCJLA1tig/4oillg0h9LKNaZ459NAe4DxnS1R9AsgYhIM9HGypgJgMQzBNgF2A/YgjTJ1wLAVl0N4E2sIMZZ2EyBiIgkFLsSoBSnDdgWuBhbRHku9s2/LDMvSwLHYo8KHgC+Q8SpLhER+SwlANXXC9gJm2K/CdgLm5Ivsy8DpwFvAb/HDswQEZGIlABUVx9gf2zR3XXA+mnDyWQQNivwGnAysHjSaEREWogSgGraAXgWm+ZfJXEsIQwEvgu8BBwPzJ82HBGR+lMCUC1LAOcBNwDLJ46lCP2BXwD/AbZLHIuISK0pAaiGPny6gG6/xLHEsDzwD+ByLOkREZHAlACU39LAXdhiuVY7Inl34Blgj9SBiIjUjeoAlNtu2L75og6HmIkNsI0qfs8CrwDjsMpVjfK/YNPzA4DBXW1prJJgo61RUJyDgUuBTYBjsHO1RUSkQkbjdh5yJ9CeJsTS6I194+/A/Z65tFnYroEzsW/VQwLHvRxwCHAZMD5w7J3Av6jn2gcRqbd23P/O7Z8mxGIpAXAzDCuhG3LgfAw4Clgk4ufoC+wKXIWdCRDqs3wEbB7xc4iI5NWOEgAlAE0sia2ADzFQTgT+AqwZ9RN0bzhwOPaoIcRnm4olFyIiVdCOEgAlAD1YBXid/IPjJ5S3ul6jauG/yP85Z2GPG0REyq4dJQBKAObhS8AH5BsQJwE/oRr19duww4ryzgh0AD+OHLuIiK92lAAoAejG6tiq+zwD4fXAspHjDqEPcCT2uCLP5z86duAiIh7aKWECoG2AaS0D3IIt/MvidezZ+o3BIvq8EUA/4F1s22BIM7EzAK4DTgW2z/g+f8TiuzBQXK2iN7AYloiJlNk4Pt2SLBWkGYDPWgjbd5/1W++1ZE8cmmkDDgNenON6HwOnd8VdlEPIvmNgBiof7GoIlnh9RL6ZFzW1WK0D2x01kmpqx/2z6hFAmhCjGQA8RLb/EKZjW/raCoqtDTtvYF7XfwXbrVCUL3VdI8u9mQRsUGBsdbAQVvwp9R90NbUsbRZwENXTjvtnVAKQJsRozibbL/97wIYFx3aoQxxjCo5hQeCfDnF018ZSzh0QZXEV6f+Iq6nlaTOAVamWdtw/X7QEQGcBxLc38M0Mr3sdK4DzUNBoPu/7Dn1GAusWGMPH2JHHl2R47VLYDEZRMyRV9gWsvLRIlfUB/it1EHWgBCCulbAyvL6eATbFts0VaRgWo4uNigwEy/L3AU7M8NrtgR+EDacWvpw6AJFAiv770xKUAMSzAHAl/vv0n8AG/zeDR/R5Qwvqm1UnNpD/PsNrfwNsHDacyuuXOgCRQPS7HIASgHh+jZ2Y5+NlbGX7+PDh5BZziv3HwN89X9MHexQwf/hwKuvZ1AGIBKLf5QCUAMSxBnCE52s+wKay3w0fTuV0YosTr/R83fLAD8OHU1mPYKdBilTd2akDqAMlAMVrA87Ar9jKFGAb4IVCIqqm2cB+wIOerzsWWCF8OJXUgW2hmpY6EJEcLgZuSB1EHSgBKN4BwCaerzkCeNyhX29gL2x6/ErgpAzXSmEJbFr/Mmyl/7G4HVU8FdgTqwrman7gNN8Aa+xBYAuKX1AqEtoM4A/UdJ98CioFXKyh+C9gOx+36a0vANcAa831z48ELsK+6U31vHYMB2ADcv85/tnXgeOwmC9t8vo3ut7jWtzXIWwNfBXbAy9wP3YGxabYcdED0oYj0qPZwNvA7VgtFKmg0bgXQmhPE2JwP8OvwMULuO0SGNTVt6f3uo3PDrIulveI9TjP9wb4LjYNPa/3nAWMcnyvEz1i7cSefWvGS0RSaKeEhYBiarUEYAB+R/zOxn2f9nGO73kbtv3QVZEJQLPBv9Gecny/vvifpbCrZ8wiIiG0U8IEQN+IinM4fgfn/A33BW5fdey3BXbSnk8SUITvYusTXKbs1wRWdOg3AzuwqNMjjuMdYxARqT0lAMWYHzuwx9U4/L5RL+XRN3US4DP4Nyzt2O8umq8ZmNO62O4KEZGWpwSgGAdg56y7Ogb40KO/zyp4SJcEZBn8we9eHA1M9Oj/I89YRERqSQlAMQ706PsyVrHOxy2e/SF+EpB18H8L+LdH/7eB0z36bw6s7BWRiEgNKQEIbzVgfY/+v8VWv/v4I3Zinq9YSUDWwR/sOX2H52v+jBVPcrWP5/uLiNSOEoDwRnv0fQO4IMM13gT2IFtFt6KTgDyD/6nAWRle9z7wfx79R6PFgCIi0bTCNsD5sMHZ9XN+N+f1tsa++fpshWu0u4GBc71f3m2Ah+K21a+79lfyDcpLYjsDXK+3eY5riYj4aEfbAGtvJFbm1sU0/J/9z+1WbG97lop/mwH/4PNJQFaHAv9LtkH8b12v99nSN7c3sc/jar8c1xIRqTwlAGFt79H3OrI9x59bGZKA1IN/w/kefX1+ViIitaMEIKyRHn3zfvufU8okoCyDP8D1uG+RXBztBhCRFqYEIJzhfP5gnnl5j2xb+XqSIgko0+APtgbgco/+rucOiIjUjhKAcEbifj9vwn/rn4tbgd3ItjtgM/x2JOxF9sH/dMIP/g0+54T7zNiIiNSKEqmlJbsAAA+HSURBVIBwfAaTOwqLwmYWdiHbTMAaHn1XJ/s3/yMoZvAH290w07HvKPTfgIi0KP3xC2dDj75FJgBgMwFZk4AiFTHtP7eJwCOOfYdjWx9FRFqOEoAw2nBfUPYiVgCoaP+kXElAjMG/YYxHXy0EFJGWpAQgjCVwX0B3f5GBzKUsSUDMwR/87rESABFpSUoAwvAZRJ4rLIrupU4CYg/+4HePlQCISEtSAhCGzyDyfGFRzFuqJCDF4A/wOu6fVQmAiLQkJQBhrOjRN0UCAPGTgFSDP9h5BC859l2pyEBERMqqd+oAamK4Y7/ZuA9MOwIHAmsCw7IENQ+xfuZ7ALsHeq+pwGvANVgNgckOr3keu3fNuP7s6qQNKxp1ALb1c8G04Yj0aAbwFnAzdtLoB2nDqQ8lAGEMcuw3Aftl7kkv7GjbA3JFlF7IQWUoVrp3Yywp2hZLCHryoeN79wH6AdOzBlcxvbEy1HunDkTEwyLAesBBwE7Aw2nDqQc9AgjDNQGY5NDnJ1R/8C/SysC1NE9eJ3q8p+vPrw5+hQZ/qa4R2JkfrThzF5wSgDBcB5Bmg9JA4NicsbSCtYA9m/RRAvB5w4DvpQ5CJKcRwH+lDqIOlACE4VoDoNmgtAkwIGcsrWKbJv9eCcDnbY497hCpuq1TB1AHSgDCmN+xX7PnzJrWctfsXvnsduifJ5AK0e+X1IV+lwNQAhDGFMd+CzT59zFKBNdFs3vlc7Sxy66COtDvl9SFfpcDUAIQhut0c7Op5geBd3LG0iqubvLvfab1J+QJpELuwX13hEiZXZU6gDpQAhCGawLQ7FvpTOAHOWNpBddjJx72xCcB8FkvUGVTgWNSByGS05PA31MHUQdKAMJw2d4HboPSRdgK11bZl+7rOmBfh34+CYDrz68OzgaOpnk9CpEyehDYHv19DEKFgMLweQQwkOYDzqnADcB+2Ja3kEV1NgAGB3y/ebkf97URzUwHXsUqAd7u+JrFHPtNw2ZeWsmfsXu5H6oEKOXXqAR4E1YDpCNtOPWhBCCMdx37tWG15x9z6PsaVrQlpKOALQK/57zMBnYj3bdr10N+3is0ivJ6BfhF6iBEJB09AgjjBY++qU6fOwr75tcW6XqbAf/AbzV+KH2BLzj2TXU4k4hIUkoAwvAZRFIkALEH/4ZUScDyuM9uKQEQkZakBCCM5zz6rl5YFN1LNfg3pEgCVvPoqwRARFqSEoAwxnU1F5sTbzBOPfg3xE4CNvfo65O8iYjUhhKAcJ517DcCv2+oWZVl8G+ImQSM8uirBEBEWpISgHDu9eg7srAozJGUa/BviJEEjMD9Mcvr2PYiEZGWowQgnDs8+vp8Q/V1JPAXsg3+N3j0vQ2/A3caNsOK+TQ7FyGrUbh/dteaAiIitaMEIJx7ca9OtTXFHEF7KNkH/7/hd1b8XcAuZEsCRgI3U8xMwNc8+o4p4PoiIpWgBCCcKcBDjn0HAF8NfP1Dgf8l++B/KNDp+bp/kj0JKOJxwBBgB4/+dwa8tohIpSgBCMvnMcB+Aa+bYvBvKFMSsBfQ37Hvs+j5v4i0MCUAYV3r0XcksHSAa6Yc/BvKkgR8w6PvdQGuJyJSWUoAwnoc+Ldj317AYTmvV4bBvyF1ErA2sIlH//NyXEtEpPKUAIR3gUffw4GhGa9zGNkH/9MJO/g35E0CrgH6ZLz2T3C/F/8Cnsl4HRGRWlACEN4F2El4LgZjSYCvtYH/IfvgfwThB/+GPEnAFsDxGV63Cn6r/8/PcA0RkVpRAhDe2/jtLz8K/y2BR5PtKOeiB/+GPEnAkUA/z9f8GPff5VnApZ7vLyJSO0oAinGGR9/hwH97vv+mnv0h3uDfkDUJGASs49F/HWAfj/5XAe95RSQiUkNKAIpxDfAfj/7H4ndMsOtWt4bYg39D1iTAtUpgL+yzzefYvxM4wTMWEZFaUgJQDN+Bpi/2TN+VzxG2qQb/Bt8koBP3z/ctYCOPWK4HHvPoLyJSW0oAinMJ8LJH/62APR37ui5iSz34N/gkAbdh6yiaWQj4nWccv/XsLyIiAYzGBiKX1p4mxOAOxv0zdwIfAcs6vG9vbKDs6b1Ow3+XwPIesR7n+d5gSc6UHt7zE2xFfzNt2GMWn3t7a4Z4RURCaMf9b9X+sYLKspJc3J2LHbCzqmP/ocCF2C/LzB76zcK+UZ+OlRSec6CfDPwcOJH03/zn9k+sAuJ5wEpz/bunsUp+zzm8z9HY53fVge0UkE8tAewNrEFxJzOKhNCBzQrejP0NKdvfNXHQijMAAJtjv8A+31Z91g+sCHwHK4TzDWxqPKuiZwAaemMnIh4D/AA7wtd1Id8G2KmLPvfztByx1tFh9DwTo6ZW1jYGWJjqacf9M0abAYhpNO43oD1NiIW5AL9f8g5gjwRxxkoAsloCGOsRYye25S9rtcU62of0f8TV1PK0h8leMTSVdtw/X7QEQIsA4zga+NijfxuWNGxdTDiVNAS4EVjK83XHAOPDh1NJ/YA/pw5CJKcvAd9MHUQdKAGI4z38vzH3BS4H1gsfTuX0B27ASiD7uBsd+jOnzYBFUgchEkCKGdLaUQIQz+nYIOZjMHZK3mrhw+lWR0F98+iHle71rX74EbZAsjN4RNW1TOoARALR73IASgDiaTzbec3zdYsA9+J31G1WH+A+YMYopzsQuA7YyfN1ncCB2HoB+ZQehUhd6Hc5ACUAcY0H9qLnLX7dGYrtY98heESfNQl40KFfB7Yat0iLYlP4WdZBnIjVCZDPuhuYkToIkQBuSx1AHSgBiO8hsq2gXwC4Gjg0bDif8wuazwKcA7xaYAxrAfcD62Z47YNoz/+8fIhfyWmRMhoHnJw6CPEzGvdtEO1pQoymDTiL7NtgrgQWLDC+o4DZ87j2bcCAAq+9P1bMKMt9GYv/LoFW0xf/KopqamVp47DFrFXTjvtnVCXAmuvEvskvAmyf4fVfxSq4fR14ImBcDSdh38C/j6096Icd0HMucDaWHIQ2EDtGed+Mr/8Qe1zwRrCI6mkG9vuzN7ZOYjUsKRAps/exSoB/wO2sECmZ0bhnQO1pQoxuAPAA2bPhadiUve/xwGWzE/AK2e/DRGxvsIhIGbVTwhmAmJQAdG848Az5psVeJttMQmpLYPv083z2GcC2sQMXEfHQTgkTAC0CTG8csAXwZI73WA6rknct1SgctBDwa+AFbK9+VlOA3bCpQRERKSnNAPRsILbVL8+34Ua7Fztgp2xGYCcVfkz+z/gR/sWBRERSaKeEMwAxKQFobn7gKsIkAZ3APcABWEXBVHphRwCfDUwlzOcaS7zqiCIiebWjBEAJgIP5sLLBoZKATmyq/EJgO+IsGGzD6vb/Bng98Gd5Em31E5FqaUcJgBIAD/tiq9tDDp6d2LfwMcBP+XSLX15twErAIcAlWJng0HF3An+j+jseRKT1tFPCBEB1AMrrQuBfwGVYZbxQ5sem5EcCv8T29L+OLch7FtuONw4rCzwJmICV/l0AW6cwGDuad2lgZWzgX5liB+aJwLexeyIiIhWjGYBs+gNnUsw36iq0J7AEQ0Skqtop4QyAtgGW31SsamA78HTaUKKaghU52hCrQigiIgEpAaiOu7DDcY7Cpubr7AZslf/PgelpQxERqSclANUyEzsFaw3sQKDOtOEE9yxW0XAnbF2CiIgURAlANb0O7A6sCZwPzEobTm7/xtaIrAnclDgWEZGWoASg2p7GFoysBJxC9abLHwf2xGoGnEcxpwyKiEg3lADUw6vAkcAXgB8AT6UNp0cfAqdii/vW+3/t3U2IlVUcx/HvKI1RY5Mx9K5lU2mQVARFL1ihxECLol2IEUWLXqBF0KJF1K5Nq0DIRVCLgt42BUWUuHCoXCT2plNhYGEtDHUyK2u8Lf5XuIY3n3Nfznnuvd8PPMxiHmZ+c2bxP/d5zjl/4E2G71WGJKmF2wDzugZ4geidXXor3x/AW8Dd2Hte0ui5nRpuA/QgoOG1E3iyeV0GrG+5lvX5dy8Q+/c/AmaBrcRhPpKkmsg5ATiWcO9Y31KMpj3A5ua1GLie2FK4Cljd/HpJ83up9gO7ib36c8S6hG3ECYKSpLSallIru5JzAnAk4d4z+5ZCC8D25tVqCTDNicf9TjSvceLsgYPEJ/njxwTvJdrySpLam0i4N9s5LzknACmPgJf2LYXa+Qv4pnQISRpCKS3Zs70uzbkLIOWPWtG3FJIk5ZVS04ZyAvBTwr1X9i2FJEl5pTQ0+7FvKQoaI95tVNkGsaNQRkmSeu0LqtW+Q6UC5vA51QbhGDBVKKMkSb1yLlHTqtS+/y7O7qvcJwHurHjfGDDTzyCSJGUwQ/VtgFlPcc09AdiacO+GfoWQJCmTjQn3bulbihpYTvXjEP8BLi2SUpKk7q0kalnVV98XlImZz9dUnwRsKpRRkqRuvUT1elf1FflAe5q0JjIry8SUJKlj08CfVK93T5WJmdcK4jjaqoPyfpmYkiR17F2q17kF4OIyMfP7kOoD0wDuKxNTkqRkG0ircSP1QXcdaYPzG9G1TpKkOrucONAnpcatLZK0oG2kDdB3wHlFkkqSdGpTRHv0lNo2WyRpYXeSNkgN4DOiTa0kSXUySdSo1Lp2R4mwdfA26YP1JXBRibCSJJ3E+UQPm9R69nqJsHWxnHi/nzpoe4GbC+SVJKnVrUQHv9Q6Ng9cWCBvrTxC+sA1gL+BZ4Al+SNLkkbc6cCzRC3qpIY9nD1xTb1BZwPYAOaAe6jebEGSpE4tAu4lFqZ3Wrdey566xiaBb+l8MBtEF6UHgbMyZ5ckDb9J4CFiHVo3tWoXsDRz9tqbBn6hu4FtAEeIxYWPAVcD4zn/CEnSUBgH1hC15B2itnRbn/ZRo+Pt6/bY/DqiZXAvP8UvAD8AB4jDGSRJamcSOIfoRru4hz/3EHAbNWr6U7cJAMBNwHvEP0CSpEH3K3AXcU5AbdRxAgBwFfAB0ThIkqRBtQ+YIdYO1Mqi0gHa2AXcAnxSOogkSR2aBW6ghsUfevt+o9fmgVeIhRNrqe/TCkmSWjWAF4mugAcLZ2lrUIrqemATcEXpIJIk/Y854FFgS+kgp1LnJwCt9gCbgaPAjcBpZeNIknSC34HngI3A94WzVDIoTwBaTQGPA08AZxfOIkkabYeBl4HngZ8LZ0kyiBOA45YBDwD3A9eWjSJJGjE7gFeJtWoHCmfpyCBPAFqtIc5mXke8IvD0P0lSLx0FPgU+Jk4G/KpsnO4NywSg1RnEtovVwCpi4eAUMNG87BUgSTqZeeKR/mFgP9HwZw7YDWwnjgOWJEkaXP8CcJZEjYFj++wAAAAASUVORK5CYII=;" vertex="1" parent="1">
          <mxGeometry x="500" y="510" width="62" height="62" as="geometry" />
        </mxCell>
        <mxCell id="Sa5Q3vqMQas_lql_X_UZ-13" value="" style="shape=image;verticalLabelPosition=bottom;labelBackgroundColor=default;verticalAlign=top;aspect=fixed;imageAspect=0;image=data:image/png,iVBORw0KGgoAAAANSUhEUgAAAgAAAAIACAYAAAD0eNT6AAAABHNCSVQICAgIfAhkiAAAAAlwSFlzAAAN1wAADdcBQiibeAAAABl0RVh0U29mdHdhcmUAd3d3Lmlua3NjYXBlLm9yZ5vuPBoAACAASURBVHic7N15tF1Vlff970xCgAABQUB6sEITaZJAEgJIU0gnakQey1fhLaFQFJHC4rEBRTGFPCWgoKJ0BYLw8igiSCcoatGFAIEECAiIgkaQQGikCQQIJPP9Y+2E5Obm5t5z9tzr7LN/nzHOUMg5a84w9jhznrXXXsvcHakfM1sf2B4YA2wErFG83rHY/18DGJIrRxGpvfnAi4u9Xljs/z8J3Avc6+6PZ8tQWmZqADqfmb0D2Iu3C/4YYJ2sSYmIvO15imYAuAf4vbs/lzclWR41AB3KzNYCDgA+CrwPWCFvRiIi/TYfuBm4HLjS3WfnTUd6owaggxS/9D9GKvp7oOl7Eam/BcBkUjPwc3d/NnM+UlAD0AHMbD3gi8BngVUzpyMiEuU14MfAd7RuID81ABmZ2WbAV4B/A1bMnI6ISFXeBP4vcLK7P5I7maZSA5CBmY0Avgl8AhicOR0RkVwWAL8EJrn7g7mTaRo1ABUysyHAl4ETgJUypyMi0ineBE4BTnL3N3In0xRqACpiZuOA84BRuXMREelQjwCHu/vk3Ik0waDcCXQ7M1vFzE4H7kDFX0SkL1sCt5jZOWa2eu5kup1mAAKZ2SjgSmCz3LmIiNTMLOCj7n5H7kS6lWYAgpjZRGAKKv4iIq1YH7jJzA7KnUi3UgMQwMy+TPrlv0ruXEREamxF4P+a2YlmZrmT6Ta6BVAiM1sBOAc4LHcuIiJd5jLgUHd/LXci3UINQEnMbDXgWmD33LmIiHSpu4H3u/vzuRPpBmoASmBmKwG/Ju3fLyIice4G3ufuc3InUndaA9CmYnOfn6PiLyJShXHA1Wam7dPbpAagDcWilAuAiblzERFpkH8Gfl78AJMWqQFozw+Af82dhIhIA30Y+LGeDmidGoAWmdnxwL/nzkNEpME+CZyaO4m60iLAFpjZbsBNqIESEekEH3L3X+VOom7UAAyQma0BzAA2zp3LYt4A/gA8AMwG/gG8ULzeypiXiNTbEGANYM3itS6wLbANaZOeTvEssJ27P507kTpRAzBAZvZz4GOZ03gT+D1wBTAV+KO7q9CLSCWKxXdbATsCBwJ7AytkTQpuIO0RoKLWT2oABsDMDgUuzJjCZOAnwJXu/kLGPEREFilmRg8ADiHvI9HHuPv3M8avFTUA/WRmI4B7gVUzhL8O+La7T8kQW0Sk38xsJ+BrwAczhH8D2NHdZ2SIXTtqAPqheMxkMrBLxaEnA/+ui1lE6qY4Dv0MYLeKQ98P7KDbosunVez982mqLf4vA0cCu6v4i0gdFd9dewCfBV6qMPR2wDEVxqstzQAsh5mtA/wReEdFIW8CPunuf68onohIKDNbn7R+ap+KQs4F3uPuf6soXi1pBmD5Tqe64v/fwL4q/iLSTdx9FrA/8MOKQg4DzqwoVm1pBqAPZvY+0uN20eYDX9LqVRHpdmb2OdLagCr28f+ou19RQZxaUgOwDMVJUw8AmweHWgD8v+7+s+A4IiIdwcz+F+kU1cHBoZ4ERuro4N7pFsCyfY344g9plb+Kv4g0RvGr/LMVhNoAOKmCOLWkGYBemNmWpEdJhgaHOsHdvxUcQ0SkI5nZl4k/zGcBaW+AacFxakcNQC/M7Cbid7P6ubt/PDiGiEhHM7OfkHYQjHQPMN7d5wfHqRXdAujBzKrYyvJx4IjgGCIidfDvwGPBMbYHjgqOUTuaAViMma1Feub/nYFhFgB7uPvkwBgiIrVhZjsCtxH7ZMAc0oLAJwNj1IpmAJZ0KrHFH+A7Kv4iIm9z96nA/wkOsxrp8UMpaAagYGa7ATcDFhjmL8A27v5aYAwRkdoxs6GkxddbBoea6O7XBseoBTUALLrw7gNGBofaz91vCI4hIlJLZrYHaTv0SI+Ttgl+NThOx9MtgOTLxBf/n6v4i4gsm7vfDFwUHGZjYFJwjFpo/AyAmf0T8AdgpcAwLwFbufvTgTFERGrPzN5JWoy9VmCYt0hHBt8fGKPjaQYAziK2+AN8VcVfRGT53P050qxspCHAuWbW6BrY6L+8mX2C+OMppwLnBscQEekmPwFuDY4xgWq2I+5Yjb0FYGZrkKaZ1g0M8xYw1t1nBMYQEek6ZjaStDg7ckv2Rt+ebfIMwLeJLf4A31fxFxEZOHd/mPhzAlYHvhcco2M1cgbAzCYAtxP7zL8eNRERaYOZrUQ6ln1EcKh93f23wTE6TuNmAMxsCOmefGTxBzhKxV9EpHXu/jpwZAWhziqajUZpXAMAHANsFxzjl9ppSkSkfe7+O+CnwWH+CfhGcIyO06hbAGa2CfAgsEpgGB04ISJSIjNbl7Roe43AMG8Co939ocAYHaVpMwA/Irb4A3xDxV9EpDzuPhs4LjjMCsA5ZhZ9e7hjNGYGwMwOBK4IDjMd2NHd5wfHERFplKIwTwF2Cg71KXe/IDhGR2hEA2BmqwEPAxsEhlkAjHf36YExREQay8y2Be4h7eQX5R/AlsWOhF2tKbcATiK2+AP8SMVfRCSOuz8AnB4cZk3gtOAYHaHrZwDMbAfSdryDA8M8SVr4NycwhohI45nZMNJi7k2DQ+3p7tFHE2fV1TMAZjaY9Mx/ZPEH+IKKv4hIPHefCxxVQaizzSxyG+LsuroBAD4P7BAc41fuHr24UERECu5+HXB5cJgtiX/yIKuuvQVgZhuQFv6tFhhmLmm7378FxhARkR7MbH3Sd/zwwDBvANu6+58DY2TTzTMAZxBb/AEmqfiLiFTP3WcBXw8OsyJwdnCMbLpyBsDMPghEb8V7P7CDu78VHEdERHphZoNIi7zHBof6V3e/JDhG5bquAShWiD4EbBIYxoGd3f3OwBgiIrIcZrY9cBexi72fAbZy9xcCY1SuG28BTCK2+AOcq+IvIpKfu98D/DA4zDrAKcExKtdVMwBmth1pO97IXaKeJj3z/2JgDBER6SczW5W0IHDDwDAO7OruUwJjVKprZgCKfaLPJbb4Axyj4i8i0jnc/RXg34PDGOmwoBWC41SmaxoA4LPAhOAYv3X3S4NjiIjIALn7VcA1wWG2Ab4YHKMyXXELoKKzol8HtnH3xwJjiIhIi8xsY9Ii8Mhj318Dtnb3vwbGqES3zAB8j9jiD/AtFX8Rkc7l7o8DJwSHWRk4MzhGJWo/A2Bm+wA3BId5CBjt7m8GxxERkTYUZ8BMA0YHh/qYu/8iOEaoWjcAZrYS8AfgnwLDOLC7u08OjCEiIiUxs/HAHcTOcj9F2hvg5cAYoep+C+DrxBZ/gAtV/EVE6sPd7wLOCQ6zHvBfwTFC1XYGwMxGAvcBkcc1Pkvq8P4RGENEREpmZquT9gZYLzDMAmCCu98dGCNMLWcAimf+zyG2+AN8ScVfRKR+3P0l4D+CwwwCzi3WHdROLRsA4FBgt+AYN7n7xcExREQkiLtfBvwmOMwY4OjgGCFqdwvAzN5JeuZ/rcAwbwCj3P2RwBgiIhLMzDYDHiQ9vhflFeA97v5EYIzS1XEG4LvEFn+Ak1X8RUTqr9iw58TgMKsSfyBR6Wo1A2BmewA3BYf5E7Cdu78RHEdERCpQ7N9/L7B1cKgD3P3q4BilqU0DYGZDgRnAVsGh3ufuNwbHEBGRCpnZLsBk0qE+UZ4g3Qp4JTBGaep0C+BY4ov//6fiLyLSfYpjfM8PDrMR8J/BMUpTixkAM9scuB9YKTDMP0jP/D8bGENERDIxs3eQFpGvExhmPjDW3e8LjFGKuswAnEVs8Qc4VsVfRKR7ufsLxB/nO5i0N0DH19eOT9DMDgb2Cg5zG/Dj4BgiIpKZu18C/E9wmPHA54JjtK2jbwFUNF3zJjDG3R8MjCEiIh2iuK38ALBiYJiXSbeVnwqM0ZZOnwE4mdjiD/BdFX8RkeZw9z8Tf5DPcOD7wTHa0rEzAGa2M2lqPvKRjb8A27j7a4ExRESkwxSPlt8PbBkcan93/3VwjJZ05AyAmQ0BziW2+AN8XsVfRKR53H0ecEQFoc40s8htiFvWkQ0AaZXmNsExfu7u0YdEiIhIh3L3m4GLgsNsBpwQHKMlHXcLwMw2JR3cMCwwzEukxRlPB8YQEZEOV9EBcx252LwTZwDOJLb4A3xNxV9ERNz9OeArwWFWIO0NEH1be0A6agbAzP4FuCw4zFRgZ3dfEBxHRERqoCjMNwO7BYf6jLufFxyj3zqmATCz4cDDwPqBYd4ibdE4IzCGiIjUjJmNBO4DhgaGeYF0+/mZwBj91km3AP4PscUf4Acq/iIi0pO7Pwx8JzjMO4DTgmP0W0fMAJjZOOBOYhuSx0nHNL4aGENERGrKzFYC/gD8U3Covdw9ejvi5co+A2Bmg0nP/EfncpSKv4iILIu7vw4cWUGos80schvifsneAABHA2OCY1zp7tcGxxARkZpz998CPwsOsznwteAYy5X1FoCZbUha+LdqYJg5pKn/vwfGEBGRLmFm65L2BlgjMMwbwCh3fyQwRp9yzwD8kNjiD/ANFX8REekvd58NHBccZkXg7OAYfco2A2BmE4Grg8PcA4x39/nBcUREpIsUewNMAXYKDnWIu18cHKNXWRoAM1sFeAjYODDMAmBHd58WGENERLqUmW1L+iE5JDDMs6S9Af4RGKNXuW4BnEhs8Qc4U8VfRERa5e4PAN8LDrM28fsP9KryGQAzGw1MAwYHhnkSGOnucwJjiIhIlzOzYaQZ600Cwziwu7tPDoyxlEpnAMxsEOmZ/8jiD/AFFX8REWmXu88FPh8cxoBzzGyF4DhLqPoWwBHA+OAY17n7FcExRESkIdz9OiC6rrwH+HJwjCVUdgvAzNYjPfO/emCYuaRn/v8WGENERBrGzNYn7Q2wWmCY14Bt3P0vgTEWqXIG4HvEFn+ASSr+IiJSNnefBRwfHGZl4KzgGItUMgNgZvsBvw4Ocz+wg7u/FRxHREQaqFjHNhUYGxzqE+5+aXCM+AbAzFYmna707sAwDuzs7ncGxhARkYYzs+2Bu4hdzP40aW+AlwJjVHIL4BvEFn+Ac1X8RUQkmrvfQ9rGPtK7gG8Hx4idATCzrYF7gchHG2YDWwFvAhsUr7XJf86BiIh0hwWkHfueBGYV/+5hYMPgmDu7+9SoAGENQLGP8q3Ae0MCvO0V0n+o4cFxREREAF4mPbsf+UQAwAxgbNTatshfyZ8ivvhDOk1QxV9ERKoynPjiDzAK+I+owUNmAMxsbdLzkmuWPriIiEhzvEra3+bxsgeOmgE4DRV/ERGRdq0C/Chi4NJnAMxsT+B/Sh1URESk2Q509yvLHLDUBsDMViRtyLNFaYOKiIjI30m3Ako76K7sWwBfRcVfRESkbBsC3ypzwNJmAMxsC9Kv/xVLGVBEREQWNx8YX2xG1LYyZwDORsVfREQkymDg3OJMgraVMoiZ/SuwZxljiYiIyDKNBT5fxkBt3wIwszVJz/yvXUZCIiIi0qc5pMOCZi33nX0oYwbgVFT8RUREqrIacEa7g7Q1A2Bm7yXt92/tJiIiIiID8kF3v67VD7fcAJjZCqST/rZuNbiIiIi0bCawtbvPbeXD7dwC+BIq/iIiIrlsCnyz1Q+3NANgZu8G/gCs3GpgERERadtbwPbu/sBAP9jqDMCZqPiLiIjkNoS0N8CA1+INuAEws/8H2G+gnxMREZEQOwGfGeiHBnQLwMxWJz3z/66BBhIREZEwL5L2Bpjd3w8MdAbgv1DxFxER6TRrAKcP5AP9ngEwsx2B2yn/BEEREREpxz7u/rv+vLFfDYCZDQGmAaPaTKws84HbgBnAU728nveyjjkUEZFGKxbYrQWs18trFPBe0kE9neBRYFt3f315b+xvA/BF4LslJNaOucBvgauAX7n785nzERERwczWAj4EHADsQ/6n5E5y928s703LbQDMbGPgIWCVkhIbqOuBc4HfuftrmXIQERFZLjMbRmoCPlf8bw7zgFHu/se+3tSfBuBC4NDy8uq36cCX3f2mDLFFRETaYmZ7kQ7MG5Mh/C/d/X/19YY+GwAzG0H69b9CyYn1ZSZwPPAz3ccXEZE6K9YPHAycBGxSYei3gJHu/uiy3rC8Ff3/RXXFfz7wddJzjD9V8RcRkbrz5BJgS1KNm19R6CGkpmOZljkDYGbjgakBSfXmReDj7n5DRfFEREQqZ2b7ApeSntuP5sBYd7+ntz/sawbglJh8lvIIsKOKv4iIdLui1u1Iqn3RDPj2sv6w1wbAzPYH9ghKaHE3ABPc/U8VxBIREcmuqHkTSDUw2j5mtmdvf7DULQAzGwTcB2wbnNTFwGHuXtX9EBERkY5hZoOBC4BPBoe6293H9/yXvc0ATCS++E8BDlfxFxGRpipq4OGkmhhpnJlN7Pkve2sADgtO5HHgQHefFxxHRESkoxW18EBSbYz06Z7/YolbAGb2LuAJ0uMDEeYCu7j7fUHji4iI1I6ZjSbNBAwLCvEWsIG7P7PwX/ScAfhX4oq/A4eo+IuIiCypqI2HkGplhCGkDYkW6dkA/FtQYIAfu/vlgeOLiIjUVlEjfxwY4tDF/2HRLQAz2xG4MyjoXGCEuz8VNL6IiEjtmdl6pCN9o24FjFk4E7/4DEDk4r/TVPxFRET6VtTK0wJDHLrw/yw+A/A0sG5AsNmkX/+vBIwtIiLSVcxsVdIsQERNftLdN4RiBsDM3h0UCGCSir+IiEj/FDVzUtDwG5jZxvD2LYCdggL9FTg/aGwREZFudT6phkbYCeIbgMvd/a2gsUVERLpSUTt/GTT8BHj7mf+oBuDqoHHDmNlwYANg/R6vdYGXgFm9vJ7xZZ2rLFJTZrYasD0wFhgDrJo3I5F+eQW4F5gG3OPuczLn046rgS8GjLsTpKMCh5EKW9kbAD0DrOfuC0oet3Rmth1wQPEa08IQTwHXAFcBN2qbY6kzM9sWOIf0K6GvI8NFOt0C0uPtR7j7A7mTGajisKDZwFolDz0PGG7A7sDNJQ8OaeOfpfYe7hRmtivwEVLR36zEoecAvyY1A9e4+6slji0SxsyGAMcCJwBDM6cjUqZ5wInAKXW7LW1mFxFzWuDOg2jtF29/XBU0blvMbGczuw24FTiGcos/wGrAx4CfAo+Z2RHFF6tIxyoeO7odOAkVf+k+Q0nX9u3FtV4n1wSNu8MgYO2AgecBvw8Yt2VmNtLMriQdtrBLRWHXBc4GHjSzAyuKKdKKU4FxuZMQCTaOdK3XyQ2kWxllW3cQ5d9bAHjK3V8PGHfAzGwdMzsPeIA03Z/DFsAVZna7mU3IlINIr8xsT+CI3HmIVOSI4pqvhWJPgGeW+8aBWyusAQgYc8DMbAwwnXQO8uDM6UBaeTnZzI7MnYgIgJmtAlxAWhAs0gQGXFBc+3UxK2DM7m0Aiin324ANc+fSwxDgTDM7S2sDpAPsDmySOwmRim1CuvbrIqIBeOcgYM2AgZ8OGLPfzOx44HLiTlMqw+eAG8ws4r+/SH+NzZ2ASCZ1uvY1A7A8ZjbEzC4hrfasw5TmnsBUM9s8dyLSWHX6EhQpU52ufTUA/XAGcHCm2K0aAVyvmQDJpE5fgiJlqtO1H9YArBwwcOWn/5nZUaRp9ToaAfxCawJERKQXEdsZr9wV23ya2d7A93Pn0aY9gR/kTkIaZ1ruBEQyafy1X/sGwMy2BC6jMx7za9eRZlbXWQypp8Z/CUpjNf7ar3UDYGYrkrZJXCN3LiU6w8zG505CGqPxX4LSWI2/9mvdAACfJ+2y102GAKfnTkIa4xZgZu4kRCo2k3TtN1ptGwAzWx04PnceQXYxs1zbFkuDFKdVHgZ47lxEKuLAYTqptcYNAHAcMZsYdYpv66kAqYK73wT8KHceIhX5UXHNN14tGwAz2wD4Qu48gm0FfCp3EtIYx5FOyhTpZlNI17pQ0wYAmETM/gWdZlLNDqyQmnL3ucBuwJeAjjjJU6REbwBfAXYrrnWhhg1AURDrtttfq94FTMydhDSDuy9w99OA0cCNwJuZUxJp11ukxX7bu/t33H1B7oQ6SR3vMe9L9b/+nwTuBzYCRlLtngMTgZ9VGE8azt0fAd5XPGY7mrRl6hhg1ayJifTPK8C9pMf8Zri7ZrSWoY4NQBWr4+cDZwG/A+5290WnG5rZMNKX4XjSdOn6wbm838xWcHf9GpNKufsbwNTiJSJdpla3AIpV8R8IDvMgMMHdj3b3axcv/pDulbr7FHf/HrA1cHFwPqsDewTHEBGRhqlVA0BapBT56N+pwA7u3q8dotz9RXc/hDRN/1xgXloHICIipapbA/DhwLEvcfdji2nPAXH3a4FDy09pETUAIiJSqro1AKOCxp0FHN3OAO5+HXBhOeksZWMz66bzDkREJLO6NQBRC+4Od/cXShjnGOCJEsbpTfRiQxERaRA1AHCnu19fxkDu/hJwWhlj9UINgIiIlKY2DYCZDQcidsW7u8PHW0gNgIiIlKY2DQBxBbDsM6HvJe0jUDY1ACIiUho1ACU3AO7+GvBQmWMW1ACIiEhp6tQADA8a9+81GTPq7y8iIg1UpwZgdtC4EY8WRoz5TMCYIiLSUHVqAJ4MGndsmYOZ2XrETNc/FTCmiIg0VJ0agKcBDxi31AYgYLyF1ACIiEhpatMAuPs8Yvbb37U49rQse5c41uLUAIiISGlq0wAUZgWMuRHwn2UMZGZjgSPLGKsXTy//LSIiIv1TtwYgYnU9wJfMbMd2BihmEX4CDC4lo6VFND8iItJQdWsAbg4adzDwEzNbuY0xTgS2Limfnqa7+5ygsUVEpIHq1gBcFTj2VsA9A50JMLM1zewS4CsxaQGxf28REWmgWjUA7v4oMbvsLbQVMMXMTu7PwkAzmwg8CBwcmBPA1cHji4hIwwzJnUALrgLeEzj+YOBY4CAzm0w63GcacD9pweDY4jW+eEX7i7s/UEEcERFpkLo2AF+rIM5GwEHFKydN/0vlzOzdwG7ADsD2wGhgWNakRPpnLnAfcA8wHbjV3f+SN6XOVMcGYBrpaYANcydSkStzJyDNYWZDgOOAE4AVMqcj0ophwM7FC+BNMzsRONnd38qXVuep1RoAAHd34JTceVRksrvfljsJaQYzGwncDnwLFX/pHiuQrunbi2tcCrVrAArnAo/mTqICX86dgDRD8cU4HRiXOxeRIOOA6WoC3lbLBsDd36SadQA5XebuU3MnId3PzAYDFwHt7IMhUgcrAxcV13zj1bIBAHD3XwB35c4jSBMaHOkcx6Jf/tIc40jXfOPVtgEoRG6+k9NZ7v5Y7iSk+5nZJsA3c+chUrFvFtd+o9W6AXD3W4Af586jZI8Bk3InIY3xXmBo7iREKjaUdO03Wq0bgMKRQLeslH8Z+JC7v5g7EWmMsbkTEMmk8dd+7RsAd58HHAjMzJxKuxYAB7n7w7kTkUZp/JegNFbjr/2oBsCCxu2Vuz8LTAReqTJuyb7q7tflTkIaZ7vcCYhkUqdrP6SmDgIijpldK2DMPhX75R9M+iVdN5e4+6m5k5BGeiJ3AiKZ1Onaj6ipcwYBEfeb1wsYc7nc/RrgI9RrJuBM4N9yJyGNNS13AiKZ1Onaj6ipL3ZVAwCLmoCd6fw1AW8CR7j7UdqfWjKq05egSJnqdO2rAeiv4nbAeGByzjz68Bywl7ufmzsRabxu3UxLZHnqdO2rARiIYmHgXsB5uXPpYQYwzt1vzZ2IiLvfBVydOw+Ril1dXPt1oQZgoNx9nrt/BtgVuDNzOrOBzwFj3X1m5lxEFvdZ4PncSYhU5HnSNV8nYQ1AxErItc1s/YBxW+Lut7n7TsBHgT9XHH4u6SjKEe5+ju73S6dx99mkDbVEmuDI4pqvhaKWrh0w9BODSFPSZTPSc/kdxd2vALYGjgL+HhzuNdLthxHufoK71+nJBGkYd78M+ALpuhXpRq8B/1Fc63UykZh9AGYYsAXwSMDgN7j7fgHjlsLMDNgB+HDx2raEYZ8BfgVcA/zO3eeWMKZIZcxsc+BCYJfcuYiU6E7gUHePqHWhzOw3wL4BQ29ppM2AXgZWKXnwecDa7v5yyeOGMLPNSJ3W7sAGwPrAu4AhvbzdSfeRZhWv+0hFf6q713EjIpFFzGwQ8Clgb9LRqZtmTUikNTNJj/r9D3Ceu8/Pm87Amdlw4FnKP7DrVWC4uTtmdgcwoeQAAJ9w90sDxq1E8UW4NqkZWBd4iVTwnyrOIBDpema2FjAGWDV3LiL98Apwn7s/lzuRdpnZx4GfBQx9p7vvtPDX7QxiGoADgNo2AMWv+dnFS6SR3P154Pe58xBpoAOCxp0Bbx8GNDUoyMROehpARESkDoraGbWYfiq83QBcR8whOisDJwaMKyIi0s1OJNXQsi0g1XzM3QEws9uIWfk7Hxjl7g8GjC0iItJVzGxr0jT94IDhp7j7e+HtGQCI2w50MHBK0NgiIiLd5hRiij8sVusXnwHYHPhTUECAPdz9lsDxRUREas3MdgduDgyxhbv/GRZrAIrADwEjg4LeA+ykx+dERESWZmZDgTuA7YNCPOzu71n4D4N6/GHE84YLbQ+cGTi+iIhInZ1JXPGHHjW+5wzAO4HHiVl5uNAX3P2MwPFFRERqxcyOBn4QGOI1YOPFN0haYgag+IOLAxMAON3M9gqOISIiUgtFTTw9OMzFPXdHXGIGoEhkS+BhYk4fWugFYLy7PxoYQ0REpKOZ2QjgLuAdgWEcGNnzMKSeawAo3nBtYCKQ/qK/Lv7iIiIijVPUwF8TW/wBru3tJMSlGoDCacHJAIwA7tLtABERaZqi9t1FqoXReq3pvTYA7n4rcH1oOsk7gN8Uix9ERES6XlHzfkP8L3+A64uavnQePdcALPqDNDXxB2DFwMQWdz7wee0TICIi3ah4zv9M4NMVhXwD2GZZ6+2WdQuA4gPfjcqqF58G7jCzPSqMKSIiEq6obXdQXfEH+G5fi+2XOQMAYGbDSE8EbByQWF+uB45z9wcqjisiIlIaM9sWOBnYv+LQj5NW/s9d1huWjvVujwAAIABJREFUOQMAUHzwf5edVT/sD9xnZhea2YYZ4ouIiLTMzDY0swuB+6i++AN8sa/iD8uZAVj0JrNfAB8tK6sBep30mMRVwK/c/R+Z8hAREVkmM1sT+CBwAPB+YKVMqVzu7v+yvDf1twFYDZgGbFFCYu2YD0wmNQNXu/vMvOmIiEiTmdmmwIdJRX9X4o7x7a8/AWPdfc7y3tivBgAW3ce4ExjWXm6legmY1cvrWdLORyIiIu0yYG1g/V5eq2fMq6e5wIT+rp/rdwMAYGafBC5qMTERERGJc4i79/s8nz4XAfZUDHzegFMSERGRSOcNpPjDAGcAYNFGBlcD+w3ogyIiIhLhN8CHB7qR3oAbAAAzW5n0rP4eA/6wiIiIlOVmYH93f22gH2ypAQAws1WB3wI7tTSAiIiItOMOYB93f6WVD7fcAACY2RrAjcCYlgcRERGRgboX2NPdX2x1gAEtAuypCLwP6UhDERERiXcX6Zd/y8Uf2mwAANz9OWB34NJ2xxIREZE+XQrsXtTetrTdAAC4++vu/gngBLQBj4iISNkcOMHdP+Hur5cxYFtrAHod0OyjpM2COmnHQBERkbqaS9rk5/IyBy1lBqCHK0h79YuIiEj7rgJ+WfagpTYAZrYKqQE4qMxxRUREGuwg4JfF4/elKe0WgJltCFyDHgkUERGJcD/wIXd/vIzBSpkBMLNxpMcSVPxFRERibAfcbWY7lzFY2w2Ame0F3AKs1346IiIi0od1gBvNbP92B2p3J8BdSYcQaMW/iIhIdV4HPuDuN7Y6QDtnAYwDfg8MbzW4iIiItOxV0o6At7fy4VZPA9wOuAlYs5WgIiIiUoqXgPe5+/SBfnDADYCZbQ7cRroPISIiInk9D+zq7g8P5EMDagDMbBgwFdhmYLmJiIhIoIeB8QM5GnigTwGcg4q/iIhIpxkJ/PdAPtDvGQAz+wxwbgtJRZhPug0xA3iql9fzXvYhByIi0khmZsBapMfde75GAe8FBmdLcElHuvvZ/XljvxoAM9sBmAKs2GZi7ZgL/Ja0J/Kv3P35jLmIiIgAYGZrAR8CDgD2AVbOmM4bwC79WRS43Aag2N//AWCzcnIbsOtJMw+/c/fXMuUgIiKyXMVauX2AzxX/m8NfgW3d/dW+3tSfNQDfIE/xnw7s6e4fcPdrVPxFRKTTuftcd7/K3fcF9gbuzZDGZqTa3ac+ZwDMbAvSr/+h5eW1XDOB44Gf6T6+iIjUWbF+4GDgJGCTCkPPI80C/GlZb1jeDMAPqa74zwe+Dmzl7j9V8RcRkbrz5BJgS1KNm19R6KGkGr5My5wBMLOPAL8MSKo3LwIfd/cbKoonIiJSOTPbF7gUWKOikAe6+5W95tJbA2BmKwF/pJrpikeAiX1NU4iIiHSL4vb6NaRZgWh/I82sv97zD5Z1C+CTVFP8bwAmqPiLiEhTFDVvAqkGRtuEVNOXstQMQLFg4SFgq+CkLgYOc/eq7oeIiIh0DDMbDFzAMgp0iR4BRvZcW9fbDMAHiC/+U4DDVfxFRKSpihp4OKkmRtqSVNuX0FsD8MXgRB4nLUqYFxxHRESkoxW18EBSbYy0VG1f4hZAseXvtMAE5pK2KLwvMIaIiEitmNlo0kzAsMAwYxffIrjnDMBRgYEdOETFX0REZElFbTyEVCujLFHjF80AFIsRngHWDAp8vrsfHjS2iIhI7ZnZecCng4b/B7DOwvV3izcAewA3BQWdC4xw96eCxhcREak9M1sPeJS4WwH/7O43w5K3AA4ICgZwmoq/iIhI34paeVpgiEW1fvEZgL8CmwYEm0369f9KwNgiIiJdxcxWJc0CrBsw/Ex33wyKGQAzG0VM8QeYpOIvIiLSP0XNnBQ0/KZFzV90C2C/oEB/Bc4PGltERKRbnU+qoRH2g7cbgDFBQS5397eCxhYREelKRe2MOpF3DMCQ4h9GBwW5OmjcMGY2HNgAWL/Ha13gJWBWL69neu6xLFJ3ZrYasD0wlvSFsWrejET65RXgXtKmdve4+5zM+bTjamJ25x0NYKRHDeaw7JMBW/UMsJ67Lyh53NKZ2XaklZEH0NpsyFOkox2vAm7UNsdSZ2a2LXAO6bSysr8XRKq0ALgTOMLdH8idzEAV+/PMBtYqeegFwGoG7Ej6D1S2H7t71GYGbTOzXYGPkIr+ZiUOPQf4NakZuMbdXy1xbJEwZjYEOBY4ARiaOR2RMs0DTgROqdttaTO7iJjTAicMAkYFDAypAHYcM9vZzG4DbgWOodziD7Aa8DHgp8BjZnZE8cUq0rGKx45uB05CxV+6z1DStX17ca3XyTVB444aBGwbMPA84PcB47bMzEaa2ZWkwxZ2qSjsusDZwINmdmBFMUVacSowLncSIsHGka71OrmBNGVftm0HAe8MGPgpd389YNwBM7N1ir2VHyB2t8O+bAFcYWa3m9mETDmI9MrM9gSOyJ2HSEWOKK75Wij2BHgmYOh3DgLWCBi4I7b9NbMxwHTSwQqDM6cDsBMw2cyOzJ2ICICZrQJcQFoQLNIEBlxQXPt1MStgzDW6tgEoptxvAzbMnUsPQ4AzzewsrQ2QDrA7sEnuJEQqtgnp2q+LWjUATweM2W9mdjxwOXGnKZXhc8ANZhZ1/LJIf4zNnYBIJnW69mvVAGSZATCzIWZ2CWm1Zx2mNPcEpprZ5rkTkcaq05egSJnqdO2rAeiHM4CDM8Vu1Qjges0ESCZ1+hIUKVOdrv2wBmClgIErP/3PzI4iTavX0QjgF1oTICIivYjYznilrtjm08z2Br6fO4827Qn8IHcS0jjTcicgkknjr/3aNwBmtiVwGZ3xmF+7jjSzus5iSD01/ktQGqvx136tGwAzW5G0TWLEOoZczjCz8bmTkMZo/JegNFbjr/1aNwDA50m77HWTIcDpuZOQxrgFmJk7CZGKzSRd+41W2wbAzFYHjs+dR5BdzCzXtsXSIMVplYcBnjsXkYo4cJhOaq1xAwAcB3Tzo3Pf1lMBUgV3vwn4Ue48RCryo+Kab7xaNgBmtgHwhdx5BNsK+FTuJKQxjiOdlCnSzaaQrnWhpg0AMAlYOXcSFZhUswMrpKbcfS6wG/AloCNO8hQp0RvAV4DdimtdqGEDUBTEuu3216p3ARNzJyHN4O4L3P00YDRwI/Bm5pRE2vUWabHf9u7+HXdfkDuhTlLHe8z7Uv2v/yeB+4GNgJFUu+fAROBnFcaThnP3R4D3FY/ZjiZtmToGWDVrYiL98wpwL+kxvxnurhmtZahjA1DF6vj5wFnA74C73X3R6YZmNoz0ZTieNF26fnAu7zezFdxdv8akUu7+BjC1eIlIl6nVLYBiVfwHgsM8CExw96Pd/drFiz+ke6XuPsXdvwdsDVwcnM/qwB7BMUREpGFq1QCQFilFPvp3KrCDu/drhyh3f9HdDyFN0z8XmJfWAYiISKnq1gB8OHDsS9z92GLac0Dc/Vrg0PJTWkQNgIiIlKpuDcCooHFnAUe3M4C7XwdcWE46S9nYzLrpvAMREcmsbg1A1IK7w939hRLGOQZ4ooRxehO92FBERBpEDQDc6e7XlzGQu78EnFbGWL1QAyAiIqWpTQNgZsOBiF3x7u7w8RZSAyAiIqWpTQNAXAEs+0zoe0n7CJRNDYCIiJRGDUDJDYC7vwY8VOaYBTUAIiJSmjo1AMODxv17TcaM+vuLiEgD1akBmB00bsSjhRFjPhMwpoiINFSdGoAng8YdW+ZgZrYeMdP1TwWMKSIiDVWnBuBpwAPGLbUBCBhvITUAIiJSmto0AO4+j5j99nctjj0ty94ljrU4NQAiIlKa2jQAhVkBY24E/GcZA5nZWODIMsbqxdPLf4uIiEj/1K0BiFhdD/AlM9uxnQGKWYSfAINLyWhpEc2PiIg0VN0agJuDxh0M/MTMVm5jjBOBrUvKp6fp7j4naGwREWmgujUAVwWOvRVwz0BnAsxsTTO7BPhKTFpA7N9bREQaqFYNgLs/SswuewttBUwxs5P7szDQzCYCDwIHB+YEcHXw+CIi0jBDcifQgquA9wSOPxg4FjjIzCaTDveZBtxPWjA4tniNL17R/uLuD1QQR0REGqSuDcDXKoizEXBQ8cpJ0/9SOTN7N7AbsAOwPTAaGJY1KZH+mQvcB9wDTAdudfe/5E2pM9WxAZhGehpgw9yJVOTK3AlIc5jZEOA44ARghczpiLRiGLBz8QJ408xOBE5297fypdV5arUGAMDdHTgldx4Vmezut+VOQprBzEYCtwPfQsVfuscKpGv69uIal0LtGoDCucCjuZOowJdzJyDNUHwxTgfG5c5FJMg4YLqagLfVsgFw9zepZh1ATpe5+9TcSUj3M7PBwEVAO/tgiNTBysBFxTXfeLVsAADc/RfAXbnzCNKEBkc6x7Hol780xzjSNd94tW0ACpGb7+R0lrs/ljsJ6X5mtgnwzdx5iFTsm8W132i1bgDc/Rbgx7nzKNljwKTcSUhjvBcYmjsJkYoNJV37jVbrBqBwJNAtK+VfBj7k7i/mTkQaY2zuBEQyafy1X/sGwN3nAQcCMzOn0q4FwEHu/nDuRKRRGv8lKI3V+Gs/qgGwoHF75e7PAhOBV6qMW7Kvuvt1uZOQxtkudwIimdTp2g+pqYOAiGNm1woYs0/FfvkHk35J180l7n5q7iSkkZ7InYBIJnW69iNq6pxBQMT95vUCxlwud78G+Aj1mgk4E/i33ElIY03LnYBIJnW69iNq6otd1QDAoiZgZzp/TcCbwBHufpT2p5aM6vQlKFKmOl37agD6q7gdMB6YnDOPPjwH7OXu5+ZORBqvWzfTElmeOl37agAGolgYuBdwXu5cepgBjHP3W3MnIuLudwFX585DpGJXF9d+XagBGCh3n+funwF2Be7MnM5s4HPAWHefmTkXkcV9Fng+dxIiFXmedM3XSVgDELEScm0zWz9g3Ja4+23uvhPwUeDPFYefSzqKcoS7n6P7/dJp3H02aUMtkSY4srjma6GopWsHDP3EINKUdNmM9Fx+R3H3K4CtgaOAvweHe410+2GEu5/g7nV6MkEaxt0vA75Aum5FutFrwH8U13qdTCRmH4AZBmwBPBIw+A3uvl/AuKUwMwN2AD5cvLYtYdhngF8B1wC/c/e5JYwpUhkz2xy4ENgldy4iJboTONTdI2pdKDP7DbBvwNBbGmkzoJeBVUoefB6wtru/XPK4IcxsM1KntTuwAbA+8C5gSC9vd9J9pFnF6z5S0Z/q7nXciEhkETMbBHwK2Jt0dOqmWRMSac1M0qN+/wOc5+7z86YzcGY2HHiW8g/sehUYbu6Omd0BTCg5AMAn3P3SgHErUXwRrk1qBtYFXiIV/KeKMwhEup6ZrQWMAVbNnYtIP7wC3Ofuz+VOpF1m9nHgZwFD3+nuOy38dTuDmAbgAKC2DUDxa3528RJpJHd/Hvh97jxEGuiAoHFnwNuHAU0NCjKxk54GEBERqYOidkYtpp8KbzcA1xFziM7KwIkB44qIiHSzE0k1tGwLSDUfc3cAzOw2Ylb+zgdGufuDAWOLiIh0FTPbmjRNPzhg+Cnu/l54ewYA4rYDHQycEjS2iIhItzmFmOIPi9X6xWcANgf+FBQQYA93vyVwfBERkVozs92BmwNDbOHuf4bFGoAi8EPAyKCg9wA76fE5ERGRpZnZUOAOYPugEA+7+3sW/sOgHn8Y8bzhQtsDZwaOLyIiUmdnElf8oUeN7zkD8E7gcWJWHi70BXc/I3B8ERGRWjGzo4EfBIZ4Ddh48Q2SlpgBKP7g4sAEAE43s72CY4iIiNRCURNPDw5zcc/dEZeYASgS2RJ4mJjThxZ6ARjv7o8GxhAREeloZjYCuAt4R2AYB0b2PAyp5xoAijdcG5gIpL/or4u/uIiISOMUNfDXxBZ/gGt7OwlxqQagcFpwMgAjgLt0O0BERJqmqH13kWphtF5req8NgLvfClwfmk7yDuA3xeIHERGRrlfUvN8Q/8sf4Pqipi+dR881AIv+IE1N/AFYMTCxxZ0PfF77BIiISDcqnvM/E/h0RSHfALZZ1nq7Zd0CoPjAd6Oy6sWngTvMbI8KY4qIiIQratsdVFf8Ab7b12L7Zc4AAJjZMNITARsHJNaX64Hj3P2BiuOKiIiUxsy2BU4G9q849OOklf9zl/WGZc4AABQf/N9lZ9UP+wP3mdmFZrZhhvgiIiItM7MNzexC4D6qL/4AX+yr+MNyZgAWvcnsF8BHy8pqgF4nPSZxFfArd/9HpjxERESWyczWBD4IHAC8H1gpUyqXu/u/LO9N/W0AVgOmAVuUkFg75gOTSc3A1e4+M286IiLSZGa2KfBhUtHflbhjfPvrT8BYd5+zvDf2qwGARfcx7gSGtZdbqV4CZvXyepa085GIiEi7DFgbWL+X1+oZ8+ppLjChv+vn+t0AAJjZJ4GLWkxMRERE4hzi7v0+z6fPRYA9FQOfN+CUREREJNJ5Ayn+MMAZAFi0kcHVwH4D+qCIiIhE+A3w4YFupDfgBgDAzFYmPau/x4A/LCIiImW5Gdjf3V8b6AdbagAAzGxV4LfATi0NICIiIu24A9jH3V9p5cMtNwAAZrYGcCMwpuVBREREZKDuBfZ09xdbHWBAiwB7KgLvQzrSUEREROLdRfrl33LxhzYbAAB3fw7YHbi03bFERESkT5cCuxe1ty1tNwAA7v66u38COAFtwCMiIlI2B05w90+4++tlDNjWGoBeBzT7KGmzoE7aMVBERKSu5pI2+bm8zEFLmQHo4QrSXv0iIiLSvquAX5Y9aKkNgJmtQmoADipzXBERkQY7CPhl8fh9aUq7BWBmGwLXoEcCRUREItwPfMjdHy9jsFJmAMxsHOmxBBV/ERGRGNsBd5vZzmUM1nYDYGZ7AbcA67WfjoiIiPRhHeBGM9u/3YHa3QlwV9IhBFrxLyIiUp3XgQ+4+42tDtDOWQDjgN8Dw1sNLiIiIi17lbQj4O2tfLjV0wC3A24C1mwlqIiIiJTiJeB97j59oB8ccANgZpsDt5HuQ4iIiEhezwO7uvvDA/nQgBoAMxsGTAW2GVhuIiIiEuhhYPxAjgYe6FMA56DiLyIi0mlGAv89kA/0ewbAzD4DnNtCUhHmk25DzACe6uX1vJd9yIGIiDSSmRmwFulx956vUcB7gcHZElzSke5+dn/e2K8GwMx2AKYAK7aZWDvmAr8l7Yn8K3d/PmMuIiIiAJjZWsCHgAOAfYCVM6bzBrBLfxYFLrcBKPb3fwDYrJzcBux60szD79z9tUw5iIiILFexVm4f4HPF/+bwV2Bbd3+1rzf1Zw3AN8hT/KcDe7r7B9z9GhV/ERHpdO4+192vcvd9gb2BezOksRmpdvepzxkAM9uC9Ot/aHl5LddM4HjgZ7qPLyIidVasHzgYOAnYpMLQ80izAH9a1huWNwPwQ6or/vOBrwNbuftPVfxFRKTuPLkE2JJU4+ZXFHooqYYv0zJnAMzsI8AvA5LqzYvAx939horiiYiIVM7M9gUuBdaoKOSB7n5lr7n01gCY2UrAH6lmuuIRYGJf0xQiIiLdori9fg1pViDa30gz66/3/INl3QL4JNUU/xuACSr+IiLSFEXNm0CqgdE2IdX0pSw1A1AsWHgI2Co4qYuBw9y9qvshIiIiHcPMBgMXsIwCXaJHgJE919b1NgPwAeKL/xTgcBV/ERFpqqIGHk6qiZG2JNX2JfTWAHwxOJHHSYsS5gXHERER6WhFLTyQVBsjLVXbl7gFUGz5Oy0wgbmkLQrvC4whIiJSK2Y2mjQTMCwwzNjFtwjuOQNwVGBgBw5R8RcREVlSURsPIdXKKEvU+EUzAMVihGeANYMCn+/uhweNLSIiUntmdh7w6aDh/wGss3D93eINwB7ATUFB5wIj3P2poPFFRERqz8zWAx4l7lbAP7v7zbDkLYADgoIBnKbiLyIi0reiVp4WGGJRrV98BuCvwKYBwWaTfv2/EjC2iIhIVzGzVUmzAOsGDD/T3TeDYgbAzEYRU/wBJqn4i4iI9E9RMycFDb9pUfMX3QLYLyjQX4Hzg8YWERHpVueTamiE/eDtBmBMUJDL3f2toLFFRES6UlE7o07kHQMwpPiH0UFBrg4aN4yZDQc2ANbv8VoXeAmY1cvrmZ57LIvUnZmtBmwPjCV9YayaNyORfnkFuJe0qd097j4ncz7tuJqY3XlHAxjpUYM5LPtkwFY9A6zn7gtKHrd0ZrYdaWXkAbQ2G/IU6WjHq4Abtc2x1JmZbQucQzqtrOzvBZEqLQDuBI5w9wdyJzNQxf48s4G1Sh56AbCaATuS/gOV7cfuHrWZQdvMbFfgI6Siv1mJQ88Bfk1qBq5x91dLHFskjJkNAY4FTgCGZk5HpEzzgBOBU+p2W9rMLiLmtMAJg4BRAQNDKoAdx8x2NrPbgFuBYyi3+AOsBnwM+CnwmJkdUXyxinSs4rGj24GTUPGX7jOUdG3fXlzrdXJN0LijBgHbBgw8D/h9wLgtM7ORZnYl6bCFXSoKuy5wNvCgmR1YUUyRVpwKjMudhEiwcaRrvU5uIE3Zl23bQcA7AwZ+yt1fDxh3wMxsnWJv5QeI3e2wL1sAV5jZ7WY2IVMOIr0ysz2BI3LnIVKRI4prvhaKPQGeCRj6nYOANQIG7ohtf81sDDCddLDC4MzpAOwETDazI3MnIgJgZqsAF5AWBIs0gQEXFNd+XcwKGHONrm0Aiin324ANc+fSwxDgTDM7S2sDpAPsDmySOwmRim1CuvbrolYNwNMBY/abmR0PXE7caUpl+Bxwg5lFHb8s0h9jcycgkkmdrv1aNQBZZgDMbIiZXUJa7VmHKc09galmtnnuRKSx6vQlKFKmOl37agD64Qzg4EyxWzUCuF4zAZJJnb4ERcpUp2s/rAFYKWDgyk//M7OjSNPqdTQC+IXWBIiISC8itjNeqSu2+TSzvYHv586jTXsCP8idhDTOtNwJiGTS+Gu/9g2AmW0JXEZnPObXriPNrK6zGFJPjf8SlMZq/LVf6wbAzFYkbZMYsY4hlzPMbHzuJKQxGv8lKI3V+Gu/1g0A8HnSLnvdZAhweu4kpDFuAWbmTkKkYjNJ136j1bYBMLPVgeNz5xFkFzPLtW2xNEhxWuVhgOfORaQiDhymk1pr3AAAxwHd/Ojct/VUgFTB3W8CfpQ7D5GK/Ki45huvlg2AmW0AfCF3HsG2Aj6VOwlpjONIJ2WKdLMppGtdqGkDAEwCVs6dRAUm1ezACqkpd58L7AZ8CeiIkzxFSvQG8BVgt+JaF2rYABQFsW67/bXqXcDE3ElIM7j7Anc/DRgN3Ai8mTklkXa9RVrst727f8fdF+ROqJPU8R7zvlT/6/9J4H5gI2Ak1e45MBH4WYXxpOHc/RHgfcVjtqNJW6aOAVbNmphI/7wC3Et6zG+Gu2tGaxnq2ABUsTp+PnAW8DvgbndfdLqhmQ0jfRmOJ02Xrh+cy/vNbAV3168xqZS7vwFMLV4i0mVqdQugWBX/geAwDwIT3P1od7928eIP6V6pu09x9+8BWwMXB+ezOrBHcAwREWmYWjUApEVKkY/+nQrs4O792iHK3V9090NI0/TPBealdQAiIlKqujUAHw4c+xJ3P7aY9hwQd78WOLT8lBZRAyAiIqWqWwMwKmjcWcDR7Qzg7tcBF5aTzlI2NrNuOu9AREQyq1sDELXg7nB3f6GEcY4BnihhnN5ELzYUEZEGUQMAd7r79WUM5O4vAaeVMVYv1ACIiEhpatMAmNlwIGJXvLs7fLyF1ACIiEhpatMAEFcAyz4T+l7SPgJlUwMgIiKlUQNQcgPg7q8BD5U5ZkENgIiIlKZODcDwoHH/XpMxo/7+IiLSQHVqAGYHjRvxaGHEmM8EjCkiIg1VpwbgyaBxx5Y5mJmtR8x0/VMBY4qISEPVqQF4GvCAcUttAALGW0gNgIiIlKY2DYC7zyNmv/1di2NPy7J3iWMtTg2AiIiUpjYNQGFWwJgbAf9ZxkBmNhY4soyxevH08t8iIiLSP3VrACJW1wN8ycx2bGeAYhbhJ8DgUjJaWkTzIyIiDVW3BuDmoHEHAz8xs5XbGONEYOuS8ulpurvPCRpbREQaqG4NwFWBY28F3DPQmQAzW9PMLgG+EpMWEPv3FhGRBqpVA+DujxKzy95CWwFTzOzk/iwMNLOJwIPAwYE5AVwdPL6IiDTMkNwJtOAq4D2B4w8GjgUOMrPJpMN9pgH3kxYMji1e44tXtL+4+wMVxBERkQapawPwtQribAQcVLxy0vS/VM7M3g3sBuwAbA+MBoZlTUqkf+YC9wH3ANOBW939L3lT6kx1bACmkZ4G2DB3IhW5MncC0hxmNgQ4DjgBWCFzOiKtGAbsXLwA3jSzE4GT3f2tfGl1nlqtAQBwdwdOyZ1HRSa7+225k5BmMLORwO3At1Dxl+6xAumavr24xqVQuwagcC7waO4kKvDl3AlIMxRfjNOBcblzEQkyDpiuJuBttWwA3P1NqlkHkNNl7j41dxLS/cxsMHAR0M4+GCJ1sDJwUXHNN14tGwAAd/8FcFfuPII0ocGRznEs+uUvzTGOdM03Xm0bgELk5js5neXuj+VOQrqfmW0CfDN3HiIV+2Zx7TdarRsAd78F+HHuPEr2GDApdxLSGO8FhuZOQqRiQ0nXfqPVugEoHAl0y0r5l4EPufuLuRORxhibOwGRTBp/7de+AXD3ecCBwMzMqbRrAXCQuz+cOxFplMZ/CUpjNf7aj2oALGjcXrn7s8BE4JUq45bsq+5+Xe4kpHG2y52ASCZ1uvZDauog4NWAcdcKGLNPxX75B5N+SdfNJe5+au4kpJGe+P/bu/9QPcs6juPv7xRLnEXFQVuDVm5qjBU5HdtEXbGRzdRNSrJfFEm/kAz/yPonRBDbP4LBoFgwKMtYtNzQXGxtbiabS8dqSB0tWTTW1lygTtev8emP6zpnj895zq/n3Nd9n+c8nxfcf4w9dvO/AAAHWklEQVRzP9/r+8DNvt/nuq/7uptOwKwhvXTtl6ipr80CSrxn/p0FYo5L0lZgLb01E7Ae+ELTSVjfeqbpBMwa0kvXfoma+uqMagBguAlYzvRfE/Bf4CuS7vD+1NagXvpP0KxKvXTtuwGYqHw7YAnwZJN5jOElYKWkHzSdiPW9mbqZltl4eunaL9YAvFIgcKMNAAwvDFwJbGg6lza/B66StKfpRMwk7Qe2NJ2HWc225Gu/V5Soqa/MAo4VCNx4AwDpEUFJXwKuAfY1nM5x4KvAlZION5yLWasvAyebTsKsJidJ13wvKVFTj80CBgsEHoiIOQXidkXSbyUtAz4OvFDz8K+TXkU5X9L3fb/fphtJx0kbapn1g6/la74n5Fo6UCD0YKkGIEjP5U8rkn4BLATuAI4UHu406fbDfEnfkdRLTyZYn5G0CbiTdN2azUSngW/ka72X3ESZfQAGA/ggcKBA8F9Lur5A3EpERACLgZvzsaiCsP8AHgW2AtslvV5BTLPaRMQCYCNwddO5mFVoH/B5SSV+8BYVEduAjxQIfUUAF5CeBKi6w/gPMCCpxCLDykXEe0id1nXAu4A5wMXAuR1OF+k+0tF8HCQV/acl9eJGRGbDImIW8EVgFenVqfMaTcisO4dJj/r9Btgg6Uyz6UxeRLwFOEH1L+wScGFIIiL+Ary34gEAbpP0swJxa5H/IxwgNQMXAS+TCv7f8zsIzGa8iHgHaaZwdtO5mE3AKeCgpJeaTmSqIuKTwMMFQr8o6ZKhX7e7KdMArAF6tgHIv+aP58OsL0k6CexoOg+zPrSmUNzdcPZlQDsLDXLTdHoawMzMrBfk2llqMf1OONsA7Co0yPnAvYVim5mZzVT3kmpoCbsAQhIAETEIXFpgoDPAByQ9VyC2mZnZjBIRC0m7xp5TIPzzki6DszMAANsLDATpC6wrFNvMzGymWUeZ4g8ttb61ASix0nDIDRFxXcH4ZmZmPS/XyhsKDjFc64dvAeSBSz0OCGmzoWV+fM7MzGykiDgP2AtcUWiIFyVdMvSPWW1/fKjQoJC+0PqC8c3MzHrZesoVf2ir8e0zAPMp/7KcOyV9r/AYZmZmPSMivg48WHiYBZL+PDxmawOQk9gNXFswgTPA9ZK8sYiZmfW9iFgJbKPcwj+APZLesBav/RYAwP0FE4D0BTfl2QYzM7O+lWvhJsoWf+hQ20c0AJK2Ac8WTuRtwONuAszMrF/lGvg4qSaW9Gyu7W/QaQYA4L7CyQDMB/bnqQ8zM7O+kWvfflItLK1jTR+xBgAgIgI4BCwsnBSkNQF3eWGgmZn1g7zg7wHKT/sDPAcsUodi33EGIJ94d+mssnOAByNiQ34G0szMbMaJiPMiYgNptX8dxR/g7k7FH0a/BYCkx4DNxVIa6XZgb0SsqHFMMzOz4nJt20uqdXXZnGt5Rx1vAQz/MWIu8EdgdoHExvIr4FuSDtU8rpmZWWUiYhHwXWB1zUOfAt4n6choJ4w6AwCQP3hPxUlNxGrgYERszE2ImZlZz4iIuRGxEThI/cUf4J6xij+MMwMAEBHnAk8BSypMbDL+RXpM4hHgUUn/bCgPMzOzUUXE24GPAWuAjwJvbiiV/cDVkv431knjNgAAETEH+B0wp5rcunYGeJLUDGyRdLjZdMzMrJ9FxDzgZlLRv4b6FveN5ihwlaSj4504oQYAICKuBPYA508tt0q9TPqy7ccJYGJfzMzMbGwBDJB+BLcfb20wr3angWslPTORkyfcAABExG3AT7tMzMzMzMr5lKSHJ3rymIsA2+XAdewSaGZmZhN332SKP0xyBgCGdwncTLrfYWZmZs16BLhltA1/RjPpBgAgImaTngx4/6Q/bGZmZlX5A2nF/6nJfrCrBgAgIt5NejJgoKsAZmZmNhUnSCv+/9rNhye1BqBVHvDGnICZmZnV5wRwY7fFH6bQAABIepq0QZC37DUzM6vHIWBJrsFdm1IDAJA341kObJ1qLDMzMxvTVmB5FRvhTbkBAMiLD9YC66qIZ2ZmZiOsA9Z2s+Cvk64XAY4aMOIzwA+BN1Ua2MzMrD/9G7hd0kNVBq28AQCIiKXAL4GLKw9uZmbWP46RfvXvqzpwJbcA2uVElwAHSsQ3MzPrAwdIi/0qL/5QqAEAkPQ3YCnwTaCS+xVmZmZ94BSpdi7NtbSIIrcARgwSMRd4APhE8cHMzMx618+BuyQdKT1QsRmAVpKOSLoVWIVvC5iZmbU7AKySdGsdxR9qagCGSNohaTGwmvQuATMzs372FLBa0mJJO+ocuJZbAKMOHrEC+DZpZiAaS8TMzKw+ArYD90t6oqkkGm0AhpNILxb6LPA5YEHD6ZiZmZXwAvAj4MdT2cO/KtOiAWgVEcuAT5NmBS5tOB0zM7OpeJ70a/8nkvY2nUyradcAtMpPD3wI+DCwApjXZD5mZmbjOAw8AewEdtW1oK8b07oBaBcRs4HLWo7LgYuAC9uOC5rK0czMZqTXgFfbjuPAn4DBoaOqffrr8H800V9AMVfyRAAAAABJRU5ErkJggg==;" vertex="1" parent="1">
          <mxGeometry x="498" y="180" width="62" height="62" as="geometry" />
        </mxCell>
        <mxCell id="Sa5Q3vqMQas_lql_X_UZ-21" value="" style="shape=image;verticalLabelPosition=bottom;labelBackgroundColor=default;verticalAlign=top;aspect=fixed;imageAspect=0;image=data:image/png,iVBORw0KGgoAAAANSUhEUgAAAgAAAAIACAYAAAD0eNT6AAAACXBIWXMAAA7DAAAOwwHHb6hkAAAAGXRFWHRTb2Z0d2FyZQB3d3cuaW5rc2NhcGUub3Jnm+48GgAAIABJREFUeJzt3XeYJVW1sPG3h4EZGBhyRiQJCphIgqKIEURFUEkioKh8ilyMV0VQzDkgZhFGUYxgQLgSFBFFJJiQnBUQJMMAM0zo74/VA83Q09On9j61q069v+epx+t19q51TtepWlW199pDKKfHAzsCTwaeCGwArARMG9kkSYt3PzATuAu4Frgc+AdwFvCvgnENlKHSAQyAzYH9gd2JC74kqX+uAU4CvgNcUjiWVjMBqGYI2BV4H7BN4Vgkqav+DHwS+AUwXDiW1jEB6N0Lgc8Td/6SpPIuBt4BnFk6kDYxAZi4NYCjgD1KByJJGtMPgbcBt5YOpA1MACZmR+D7wJqlA5Ekjes24LXAaaUDabolSgfQAu8lBptMLx2IJGmxpgF7Aw8C5xaOpdFMABZtCPgM8AF8UiJJbTKJGK+1MvEkwAGCYzABWLSvAf9TOghJUmXPAFYDTikdSBOZAIztw8A7SwchSUq29ch/nl00igYyAXisfYjR/pKkwfBcopqghYNG8d32o20EXIQD/iRp0MwkngZcXjqQpphUOoAGWQL4AV78JWkQLUvM6PK6N8JXAI94C/CG0kFIkvpmbeA/xJPezvMVQFgZuBpYoXQgkqS+upN43XtX6UDUDB8i5onm2u4CTgD2IpYGXq2+jyJJrbcace7cm3g1ezd5z9EfrO+jqMmmExlhjoPqbuAwYJlaP4EkDbZlgPcD95DnXH0HsFytn0CN9P/Ic0CdhXf6ktRPqxPz+XOcs99Yc+xqoHNJP5COAZasO3BJ6qAlgW+Tft4+p+7A1SwbkH4Q/QKnlUhSnSYBJ5N27p4PrFt34GqON5J2AF2O75EkqYTpwJWkncNfX3vUaowfkHbwvKz+kCVJI15B2jn8+PpDVlNcS/UD5w8F4pUkPVrKOK6rC8SrBpgKzKX6gXNg/SFLkhbyJqqfx+cCU+oPWaVtTvWDZh4xHUWSVNaaxDm56vl80/pDboYuj15PuYBfBdyaKxBJUmX/Aa5JaN/Zm7kuJwApo/dvzhaFJCnVTQltOzuTq8sJwLIJbb37l6TmuCWhrQlAB6UshTw7WxSSpFQp5+TJ2aJomS4nAJIkdZYJgCRJHWQCIElSB3X23YdqtRTwPGBLYsDNncB5RDXF+QXjGs8U4EXAc4h5xjOBy4BfAtcVjCunxwG7AE8BVgHuIz7jGcDfC8bVJJOBJwIbARsC6xHH8wrAEPGd3UOsL3/1yHYZ8ECBWCVN0P5ULxwxo/5wW2kScDAxa2Ks7/Ea4JXFolu0PYB/segiUMcBKxaLLt16wE8Yv3jKucC2heIr7YnAe4BTgXvp/fwwB7gA+BKwM1F1VP01g+rn8/3rD1elmQD015LAT5nY9/mZQjGO5UNMLOYriTvottkZuJuJl0l9e5kwazedKCmbUld+UdtM4IfE0xafuvbHDEwA1AMTgP76Kr19p+8oE+ajvJbeYr6ISHTaYgdgFr0f74eUCLYmSwH/A9xG/gv/WNu/iaQqpQ6JHmsGJgDqgQlA/2xLvNvv5TudDWxRItgRy7LoVxXjbQeXCLaC5YEbqXa8zwaeWn/Iffdioqx3HRf+hbc7gA8TYy+UbgYmAD1zFoD64a3EAKleLAV8D1gmfzgTshuwWoV2/y93IH1yKLB2xbZLAR/PGEtpSwBHEu/4NyoUw0rAEcSA0iOJ71hSTXwC0D+3UP27/XKBeCEG9lWNuemLiUwmFkxJuWOdT7mLZU4rAr+jzF3/eNslwI79+9gDbwY+AeiZTwCU21TSLohvIQaq1W2dQm3r8BJgjcQ+hoD9MsRS0vLAr4mxEE2zKfAb4BvAtMKxqCNMAJTb0onth4hsvu676pSpWqmfud9el7GflDU0SpoOnA5sUzqQcQwRMxH+BKxfOBZ1gAmAmmg14k5I6VYjpp/lsA7tfUx9HM2++I/2ZOI1xbqF49CAMwFQU+0KHFg6iAGwL3mnKh6Qsa+6HALsXjqIHq0LfJfeB9NKE2YCoCY7Cti4dBAtl3uA0+5EGdy22IxmFZrqxQ7EVEWpL0wA1GTTgO/TrmI7TbI1Uec/p6WJUslt8XFiXYe2ek3pADS4TADUdFsBh5UOoqVyDf5b2AF96je37YCXlw4iUcniWBpwJgBqg8Pp7sI0VU0F9upT39sBT+pT3zl9oHQAGUwvHYAGlwtTqA0mE1UCn04sv6rF253+rli4H/C+Pvafag3ghRn7u5+YnvcXop7/grUDViYG7G0xsuUu7Xt35v6kh5kAqC02BD4LHFQ6kJbo1+P/BfYjnszM6/N+qtqTPDULziOOu18RayIszqYj+96LPANYL8jQhzQmXwGoTd4EvLJ0EC1Qx3z9tYAX9XkfKV6V2H42UZXymcCJTOziD3Ap8EFgE+IJxG8S4/hOYntpkUwA1DZfI72s7aB7PfVU7Dughn1UMYl4XVTVPGKmw9eIx/xVnQm8AHgO8eqgV6cAZyfsXxqXCYDaZlWiVLAFUsZWZ83+V9DM5Ww3JK2e/heAX2aKBeAcYkrmu4BZE2xzJfCGjDFIj2ECoDZ6Me1ZhrduzyUugHVYinjf3TRPTmg7i/4sfTwf+ByRCFy0mH97GlEE6JY+xCE9zARAbfVZ4j2rHq3fg/8WdkDN+5uIlRPangfclSuQMfyTmNK6B/ALYkbBXcA1RNGrnUY2L/7qO2cBqK2WAU4g5qQ/VDiWpphO/YMktyKqDf6j5v2OJ2V1xirv6ns1F/jJyCYV4xMAtdkWwBGlg2iQvYjEqG51jTmYqJTSv20uGyz1xARAbXcY8b5U9T/+X+C1NGu9hjsS2j4Xz4vqCA90td0kYq33rpdM3QR4RqF9rwbsXGjfY7kxoe1mWGxKHWECoEGwPvDF0kEUdiBpUyNT3+GXevowlusT2395ZLPehAaaCYAGxeto1zK1OU0G9k1oPwzsQ9ro912IGg1NcBVwa0L7ScDBwLVEYrlWjqCkpjEB0CD5OvC40kEUsDOwZkL7s4FLgB8l9LEkzVm7fhg4K0M/SwOHAv8CTiaq+kkDwwRAg2RF4Nt0r0pg6uP34xb6z6oOTGyf0y8y9rUE8FLgDGKa4CGk1RqQGsEEQIPmhcQJuitWJh6/VzUTOGnk/z4fuDihr81Jq8Gf04nATX3o9+nAl4CbiacCr6ZZMyCkCTMBUJPMIYqkpPokMZq7C/YnSvJW9UMiCVjg+LRwGlMZcA7wzT72vxTxVODHxCuCz9CdY04DwgRATTIT+EiGfpYGvkfahbEt9k9sv/Bj/++SloS9huYU0/k8UWq339YgFvr5J/EU5S3ASjXsV0piAqCm+Sjw+wz9PA34cIZ+mmxrogxvVVcCf1ro/3crsRhNVSsTd8ZNMBN4W8373Br4CvGK4ETgZdSzNLPUMxMANc18YlDbfRn6ejewY4Z+mip18N+xjL3efepgwAMS2+d0EvE56zYF2J1YVvha4HCiYJLUGCYAaqJrgbdn6GcS8Uh7xQx9Nc1UovZ/VXNZ9Pv+k4HbE/reibRpibn9P/JMC6xqXeLV1nXAUTTru1GHmQCoqb5NntXS1gGOztBP0+xGWmLza+Ix9VgeAn6Q0HdqYaLc5gCv4rGvO+q2DPA/RKGiw2jOWAl1lAmAmuwtwH8y9PMaYO8M/TRJrrn/izIjsf8m1QQAuBN4PvCz0oEA04CPEeWXn104FnWYCYCa7HbiffJY76l79VXiUewgWAd4XkL7O4BTFvNv/gL8PWEfmwDbJLTvhweJJwFvB+4vHAvAxsSriQ8TT02kWpkAqOlOJ0ZVp1qBmBo4CMf860kbWX48MHsC/+47CfuAZg0GXGA+Ud//ycRYh9KWAI4gErLlC8eijhmEk6EG37uJOdapnk2ewYUlDQH7JfYxY4L/7rvEeICq9iFqMjTRdcDLiacUi3saUocXAX/AAYKqkQmA2mAWcdFLuRgt8DHgqRn6KeW5wIYJ7S9i4o/27wBOTdjX8sCuCe3rcAFRt2AbYjGkOQVj2Rz4DU4XVE1MANQWfwWOzNDPFOAEmntnujj9Hvy3sBmJ+zsgsX1dLiCmVa5PJIm3FYrjScD/ETMGJPXJ/sTgsirbjPrDbY0Vqf693rmYvicRg6aq9j96+/xCfZ+T0Nf2E/xuUk0nBq9VjXM2va9iN5mYiVF1n/No5xLNSwGvJMYJzCHPMdfLdkL/P+JAmUH173r/+sNtBp8AqE3mA68F7srQ19uAnTP0U6c9SbszPIl4rN+LuaRdjCYRf7O2eYhHSvk+jjheUmZF9Gpv0sd6SOMyAVDb3Eie+u5DwLdo17rudT/+T223wAHE991WtxAV/J4GbAd8A7inhv1+EVi9hv2oo0wA1EbfJZaxTbU2/V0yNqeNgW0T2t9IDDCr4p/E4MGqngA8M6F9k5xHlBZekygwdQbxmqMfViSmCEp9YQKgtnozsQ57qt1pxyPqA0m7i55B2oVqRkJbaM9gwIl6kHg18iLg8cB7iNUVc3sj7RxDoRYwAVBb3U1cFIcz9HU0sFaGfvplMmlJyjDpRX1OYGLFgxZlL2DZxBia6ibg08QI/l2I4lW5LAUclLE/6WGWn1SbnUm8J00t7rM8za7Clrq63nzgtAxxpDyBWJZYwGhRKxAOgvlE3YRTiZkhXwS2zNDv64APjPQvKYP9qT5tZEb94bZGP6cBjmUKMTq77mlao7d+TwM8qfDny7VVHYPQVpOBDxIzKVK/u5TxH10wg+rf7f71h9sMvgJQ280mSs7OKh1In6wMvKR0EJnsCGxQOogazQU+RIwzSXl9AvCC9HCkRzMB0CC4hMEdLb0fg7Nu/BDtGHCZ2y+JQaspnpEjEGk0EwANis8Dvy0dRB8M2uPJA+jmeec40lYf3CRXINICXfwhajDNJ+6Wq4wjaKqtaPfCRWNZD3hO6SAK+WpCW6cCKjtnAWiQ3AS8Cfhp6UAySa3811QHAL/r8z6WIt6bP4NYXe9OYrDoKcR6CiX8hqjFsESFtlOJz5RjRUyp8/an+qjRGfWH2xp1zwIYy/cSYqiy9WMWwFTi+yg9cr8f20xguXxf1WPsB/x7Efu+lyjaU+rm58FFxDWRra0rWNZhBtW/1/3rD7cZfAWgQXQwcEPpIBLtRiRTg2ga8Oo+9X00UfRonUX878sBnwR+Tv1L7m5AJHZVzCSSBykbEwANonuAfelfjfY6DOrj/wUO6EOf7wHeOsF/uwtRsKfO6oSvTGh7a7YopBEmABpUfwA+VzqIitYBnlc6iD57NnlHtj+OKLrTix2ICol1rLi3PPDuhPa35ApEWsAEQIPscOCC0kFU8DqqDRRrm30z9vV6qr0jfyax0mE/qzkOAccAqyb08ddMsUgPMwHQIJtDDPBp07vTIbozKOkA8iU6KZXy1gbOBr5M/jUhliDGJbwqsZ8/ZohFehQTAA26y4D3lg6iBzsAG5YOoiY5X3U8PrH9JGLw6FXAYcD05IhihclfjvSbYg55VxiUABMAdcPRxICvNhj0wX8LOyBTP3My9bMq8DFiGuG3gefS+1OK1YD3A5eTZx2HMxmsAldqCAsBqQuGgTcC/yAW12mq6aSNFJ8FbEO9hW6mEOMsplVsvxuwAnB3YhxXkHehoenEuILXE7UDfg+cC1w5st1JfM/ziGNqHWBr4gnOzkTRnly+lbEv6WEmAOqKm4E3AD8rHcg49qT6hRTgF8DFmWLpxYlE8Z0qliY+9zcSY/g/4sLbD9OBl45sdbua+LtK2fkKQF3yc5pdxTH18f9xWaKof78HZIrhtgz9NM2RxDoXUnYmAOqaQ4iBXk2zMbBtQvubiHfFJZwNXJPQflvgSYkxzCQSqOHEfprkPOCE0kFocJkAqGtmEnecTasSeCAxBbCq4yj3mYaB4xP7yDH18RRiMahBuGOeRXyWQUpo1DAmAOqic4FPlA5ilCWA1ya0Hybq35f0HdIuvPuRpybAMcSAz7YnAe+gzHgOdYgJgLrqQ8CfSwcxYhtgzYT2vycGi5V0PWlL/K4JbJUlEjiWeMrT1qVzvwF8rXQQGnwmAOqquUQp2pmlAyHWrE8xI0cQGcxIbL9NjiBGHE9MybspY591+AUTX9BISmICoNzmFmpbxdXA/2boJ/Xd+woJbe8DfpK4/1xOJObMV5V7+ePzgC1JezJRpxOJZZLr/h2oo0wAlNt9VK+9X2LJ068Tg8dS/Dex/e0JbX9MvYV/xvMAEU9V/ZjGdyvwfOAg0pKTfvsmsBf5KhpKi2UCoH6ougLf+VmjmJhhYgR+1YvP7cC1iTGkrFg4I3Hfuc1IaHtRriAWMp+4wG5G1IJoknuIV1EH4Z2/amYCoH6oOne51JznW4kqgVV8n/SpWucT5WV79Reat0rcucDfK7S7kv4v3XwjUXp4R+CsPu9rIk4FnkIcQ5JqtD9x4q6yzag/3FZZkliFr5fv9NdFIn20r9NbzHcBq2fa9yt63Pd84IWZ9p3bTkR8vXyeXQvEuT1RQnhej7GmbheTZ5EgPWIG1f8eXVl+W6OYAPTXk4gFUybyfV5DrMJW2lJENb2JxDwbeHHm/X9mgvseBj6Yed+5fYSJf5ZPF4pxgXWJJYAvp38X/fnAb4GXkVbwSWObgQmAemAC0H8bE4+Dx/suzySWT22KZYn3xePdwd5ATDHLbYgoAPPgOPu+D3hzH/bdD4cQAxQX9VkeBN5eLLqxPR14N/FkYCZpF/25wJ+Aw8m7UqEeawYmAOqBCUA9lgD2IVbh+xcx6Oka4r1nv1Zvy2Fr4KvAP4mlam8l7uAOJm3FvolYG/g4MTbgNmKg4fnEXf9afd53bmsTTwPOJ16Z3AlcSHy+tQvGNRFLEcWJXgN8lJhu+WfgUuJYvotIEu4kppSeA3yPuODvBKxUf8idNQMTAPXABECSBsMMTAB65iwASZI6yARAkqQOMgGQJKmDTAAkSeogEwBJkjrIBECSpA4yAZAkqYNMACRJ6iATAEmSOsgEQJKkDjIBkCSpg0wAJEnqIBMASZI6yARAkqQOMgGQJKmDTAAkSeqgyaUD0KOsCbwC2AJYvnAskpTLPcBfgJ8D/ykci0aYADTDFOCjwCEj/7ckDaIvAF8CjgBmF46l83wFUN404EzgXXjxlzTYpgDvBs4gzn0qyASgvGOB7UsHIUk1ejZwTOkgus4EoKwdgT1KByFJBewF7FA6iC4zASjroNIBSFJBbyodQJeZAJT13NIBSFJBzysdQJd1OQEYLrz/JYHVCscgSSWtRpwLSyp9LSimywnAXQlt78iw/7nAQxn6kaS2eog4F6YqfT5vpS4nAFcWarvAMHBVhn4kqa2uJM8deOnzeSt1OQG4Ari8Qrt5wK8yxfCLTP1IUhvlOgeeTJybe3UpHb4R63ICAPCxCm2OBW7KtP+jgHsz9SVJbXIf8OVMfd0IfLdCu49k2r9aaAj4AfEIaiLbtcAqmWN4NTC/hxjc3Nzc2r7NB/Ymr5WIu/mJxnAicQ1Qhy3NxJKAvwPr9SmGA4m62KV/lG5ubm793mYDr6c/1gf+MYEYTiDO/RJDwO7A+Tz2bvw6onb11D7H8CTgx8AD9OdH5+bm5lZyewD4EfBE+mtp4D3A9Qvtfz5xjt+tz/tvDR9/PNaawIbE3NQbqX+AyDQiGViT/icdktRvs4glgC8lkoA6bQysDcwBrgZuqXn/kiRJkiRJkiRJkiRJkiRJkiRJkiRJkiRJkiRJkiRJkiRJkiRJkiRJkiRJkiRJkiSpZYZKB6AkjwM2AFYBpgFTy4bTeg8C9wO3A9cAN5UNJ4vpwCbAmsQxslzZcFpvGLgbmAncAFwNPFQ0ovyWATYGVieOn6WA2cBdwL+Ba4G5xaJTNiYA7bIisAewM/Cckf+u/rkDOBs4FfgpcE/ZcCZkEvB84JXAjsSJXP0zF7gQOBP4IXBJ2XAqWRZ4GXHcPJe4qRjv2jAH+CfwW+B04DfAvP6GKHXXxsCxwCziDsSt/u0B4BvEybGJpgFvA/5F+e+qy9u5wMtpx83V04HvEk8zUj7zzcCngLXqDV/Ka23gjcTB/EXgHcBTCsYzDfgkkXGXPrG5xTYHOIpmPUp/GfE4uvR34/bIdgGw1Xh/tII2B04B5pP3M88CvkK8kmyCpwLvJM7lnyLO7WsXjUiNtBrwHeIx1lgH9jlEtlynrYj30KVPZG5jb9cB2yzyr1eP5YATKP9duI29zQGOJF7LNMFU4NPEmIV+fu7bgdfV9JnGsgXwhzHiGibO8TOAVUsFp2bZBLiexR/UDwC71RTTPsSgm9InMLfxtwep75hY2OOASycQo1v57QRiIF1JGwN/pd7PfSKwQh0fbpRXEr/LxcV2HY6P6bzlgauY+AH9IJFd9tMbWfSTCLfmbXOBfcf8S/bPeviuv23bqZRLAp5DzFwo8bkvIZLVOmzFxC7+C7YraNarPNXsE/R+QJ9H/wb47E5cUEqfrNx62x4iZmbUYVXgyho+k1v+7QTqHxy4C71dFPux3QBs2O8PSgzA7DW2j9QQlxpoSeBOqh3QW/YhnicA91aMx638dhew/mP+qnlNAn7dgM/qVn17x2P+qv2zLekj/HNt1xC1KPplm4px3Q5M7mNcaqhtqX4wvzdzLJOBixLicWvG9gf6O+Dr7Q34jG5p20PUM7NoAyIpLf15R2/nA1P69HnflxDX1n2KqfGaMjq1hJT3UutmiyIcTP/HFqj/ngW8vk99rwN8uE99qz5LAl+jv68ClgS+T/0D8BZna2IWQj806XzeGl1OAJYp1HZh04D3Z+xPZX2E/pRkfj9RsU3t90yiWFC/HE484WyiQ4Dn9aHflHPytGxRtEyXE4CmeAPOSR0kawD79aHPAzL3qbLe16d+NwL+t0995zBEPAHp16sA9cAEoLwDSweg7HK/BtgXF3oaNM8AntyHfj9O84+VjenfqzL1wASgrCfTn5OAynoGeac97Z2xLzXHnpn724iYStwG76V8caTOc/pDWc/P0Mc8YnTt1cR8X1W3YBnUrUhPjl9ATH1KtTLwtAz9XE+sWndnhr66bBIxnW17opBYihcS7+tzORRYImN/V41s9xKvKTcnlgjOYV1gV+AnmfqTerI/1aeNzMgUw08SYhgG/kyUMlZem5FeNvW7mWJ5aWIc9wGvoR2r07XJNOCzpP1t5pLvcf1SwG2J8QwT0xSPZuwyuZOIxOeUDPsZBk7O9NkhzslV48g9Zkct0IQE4OKEGC7DMpb9tCJwLdX/PudniuNdCTHMB16UKQ6NLTUJyPUKcKfEOIaJ+vgTrVGwB3B/4v4eAqZX/sSPNiMhjs4mAI4BKGu9hLaHE3d36o+7gA8mtF8vUxyPT2h7KnB6pjg0tg8SdfarWi9THKmvE/8FbAf8Y4L//sdE+euHEva5JLFOgQoxAShnEmnzT3+dKxAt0v8ltM11Z5PylMdjpP/uB36f0D7XcZJyIZ1HDB68pcd2vyd9yuEOie2VwASgnKlUfy/7IHHiUX/dTjxGr2IKeQZkLZ3Q9rYM+9fi/Tehbcrfd4EhYNOE9scTpcir+AqxOFVVmyW0VSITgHYaLh1Ah/hda3FSjpEcgzPXIq1K5NcT2s4FjkloP9ZgQ9XEBECS2i1lat7tpA9YPTWhba5pharABECS2i1lnMh1pD/lujah7TTy1i5QD0wAJKndlkxom2Ms0SxgTsW2Q6TFrwQmAJLUbikX8RyP4Feh+kV8LpFAqAATAElqt3sT2m5IeknjLRLapsSuRCYAktRuN1D9Pf5SwMsT9/+qhLbXJe5bCUwAJKndZgI3JbR/P9UXhlsPeG3Cvi9PaKtEJgCS1H5VC/lALCh2RIV2k4FvE0WvqvpLQlslMgGQpPb7bWL7I4CDevj3SwLfAp6XuN/UuJXABECS2i913YchoiLgN4CVF/NvnwScCRyQuM+bmfjiQ+oDEwDVZamRTRpPSknbLrsS+HOGft4EXE3U+N8JeAKREGwK7A38hLho51jF7/tUX2tDGVQd+CEtygbEY8HtgCcS04xW5pFjbQ5wB3GSuRw4l3gMeEPtkaqU5YgLyA7A5sQ76NV59OqY9xDHxJXAX4GzgAuIeeMa23HAMzL0swLwlpGtX4aBGX3sXxrX/sRBWGWbkWH/yyTsv2krAa4OvBu4mOqf6a/A24miIk0yl+qfKUeJ0x8l7H/PDPvPZTKwG/BzYDbVPs8dxJ3pVjXHvjjfpPrf6I0Z45hCzAaoGkud288yfm6Ic3LVWPbLHEtr+ApAKdYBvkzM5f00cTdX1dOAzwPXj/znmqnBqREmExe5y4GTgF2p/ipoJeKu9ALiqdFzM8Q3SGYDnykdxATMBz5SOgiZAKiaycChwKXAweRZ03yBacSTgKuA9+Brqjbbnpjm9U3iVVBOOxKvBU4G1s3cd5t9meYPrDsGp/81ggmAerUu8Hvgi6StQrY404BPAn8E1u/jfpTfZOBI4GzgyX3e10uJV09Net1R0lwiKZ9XOpBFuAU4rHQQCiYA6sWLiLuL7Wrc5zbEI98co47VfysRd+YfpL7zy3Tgh8Tj76Ga9tlkf6CZj9jnE1UD7ygdiIIJgCZqT+Jxa+rCIVWsDJwGvKLAvjVxaxNPh7YvtP93Acfj8rIQCcCvSgexkPcR9QPUECYAmoiXA9+j7Dz+qcCPgZ0LxqBFWwU4A9iscByvIUaEd/3cNh/Yg3ga0ARfJQYKq0G6/iPR4m1PTEVrwmC8JYlCJFuWDkSPMhU4hagQ1wT7AJ8oHUQDPEgkzGcUjuNLwCGFY9AYTAA0nlWJd6tTSwcyyjRiOtlKpQPRw75IjNVokncTdQe6bibxBO8HBfY9F3gnMWPIin8NZAKg8RxDvNdtmnWJ6U4q7xX0tohMXYaIleqsJwGziKcibx75v+twI1ER9PM17U8VmABoUXYj7hyaam8cD1DaMsAXSgcxjhWBz5YOokG+ThTrOrWP+5hLPPLfHDinj/vPDFIJAAAgAElEQVRRBiYAGstSNPvEvsDnyFNuV9UcBqxXOojF2Ad4VukgGuQaYBfgxcSMjVzmEgOFn0I88r8nY9/qExMAjeW1wONLBzEBTwJeVTqIjlqeKDjTBoeXDqCBTicWY9oaOBr4b8V+LiO+3w2J88ZlWaJTLZowslvNMkTMp85tQWWy3Hfs7yFmKaheBxGrxuX2EPmnm+5ErDXxt8z9DoILR7ZDiaqNzyUe329MrPWxLPH3eIAYUHg9cAVRyvcs4F91B6x8TAC0sG2JZXxzOIVY8/tsogToEDEoa0dgX6KyYKqnA08F/p6hL03cAZn6uY5YK+BXxOPpB4mnC08jxqEcSFyEUu2PCcB4hokqn01fR0AZ+QpAC9s3Qx/XEfUDXkpMP7qZmAY0jxgdfDzxDvJ5I/891Wsy9KGJ25L0Of/ziMpwTyTWfPgncfGHeH98NvA2YCPgp4n7ghg06vlOGsUfhBaWelf+V2JO+B8n8G/PIt5BXpK4zxxPEjRxqd/3HGKGySeJR/7juZWoaJc6mn914qmCpBEmABrtccQdV1W3Eif223toc8tIm7sS9vsUohSt6rFjYvtD6G0q2jDwv8DPEvebGrc0UEwANNrTE9sfQbVH+tcCH07Y7xAxDkD12CKh7fnEO/9eDROzDu5P2Hfq8S0NFBMAjbZxQttbgeMS2n8NuDuhfa6BixrfyiNbVR8jLuZV/Af4TsK+N0loKw0cEwCNljL3/2SiGEhVs0mrULZuQltNXMr3fD/pC9OkvAZoQ20LqTYmABptuYS2OaYPpfSRErsmbnpC2yt5ZKR/VR4jUiYmABptmYS2t2XY/60JbXPMFdfiLZ3QtpfBoeP1UXVlualY+0R6mAmARpud0DZHVbiUJX5T7yw1MaWPkeWpft6aQ9prKmmgmABotPsS2j4hw/5T+kiJXROX8j1vQPo5x2NEysQEQKP9J6Ft6tLBQ8QqZVXdnLh/TUzKMbIy8MzE/b8soa3HiDSKCYBGuyKh7UbEoitV7U4UIqoqJXZN3M2k3UkfktB2GrE2QFUeI9IoJgAa7Z+J7T9DtUFiyxFlYVOklhPWxAyT9l2/mlhxrorDicWkqko9vqWBYgKg0S4jbST+5sAMelvyd0lixcCUEsTXEcuUqh6/S2g7BPyY3v/eexJLP6f4XWJ7aaCYAGi0YeA3iX3sQSwDPJHa/KsDp5P2XhfSY1ZvUr/vVYE/Ac+fwL+dRKwD8H0ieajq/pF9ShphAqCF/TBDHy8GriIe2W4wxv/+BOBDI//muRn2lyNmTdzviEWcUqxCVAU8kTgGFn5qtBywF7G65KfG+N979TPSpjBKA8eiGFrYr4H/Aqsl9rMC8JGR7QZikaAhYqBfymC/hf2bWFZY9ZlL3JG/M7GfIWLw5+7EOhA3EKtCrk4kjlMS+x/t+Ix9DarJxIJJTybWBVmTKA62HHAvMfjzX8Rgyr8Bl5cJU7mYAGhhc4Avk7Y638IeT//qsH+R6pXhVN2XiBH9S2XqbwXyFAoayyXAmX3qu+2WBnYjxljsSG/lkm8GTiOSwbPwd9g6vgLQWI4mMv6muw34RukgOupfwAmlg5igD+PFaWFrAJ8mXuV8n6jj0etaCWsBryOSq2uAt5JWKlo1MwHQWO4m7xOAfnk/aevDK80RwMzSQSzGucBPSgfRIFOBI4FrgXeTtrjTaOsRNw5XA3tn6lN9ZgKgRTmKPCv89cufgW+XDqLjbiQuJk01F3gLMbtFsA1wMfBB+nenvhbxZOg00mo2qAYmAFqUucA+wAOlAxnDTOAAfKzbBF8gRvM30RHA30sH0RCHAueQVm+jFy8iZnDsWNP+VIEJgMZzCfFer0mGiXKwjkBuhvnAfqStEdAPpxDvuLtuiPgevki+AZsTtToxq8hXAg1lAqDFOY6Ys98U7yEqyak5biHu+O4qHciIC4kaAl1/QjREDJJ9d8EYlgK+B+xfMAYtggmAJuJI4HOlgwA+Sqw3oOb5J1HR8e7CcfwNeAnNH5xYh48BbywdBHGdOYa01T7VByYAmqh3EXffJQZUzQP+h3inq+b6I7AD5Zbd/e3I/m8rtP8meTXwvtJBjDKZqNi5SelA9AgTAPXi08ALSVswqFe3EXd0R9e4T1X3D+BpxCjwugwThYl2oh31K/ptA+BbpYMYw7LEDIG6xyJoEUwA1KvfAFsQNdz77QSiLOnpNexL+SxI2t5BlI/tpyuJ8QeHElUsFcny8qWDWIQtiONCDWACoCpuBl5FLPpzfh/6/yMxfeg11Pu0QfnMJ6YIPpF4//tQ5v7/S7ySegqW+R3tlUTy1WSHk3c9EFVkAqAUpwPPIBKBk0hbbW0W8CPgecD2uHb7oLiZGIi2EbGq302J/V1ErEGwPvFKyhX+HjFEFPlpumlE8qbCXAxIOZw+sq1EvIfdEdiOWPZ3Ue/7ZhOPb88lBm+dBtzT90hVyr+B9xLlm7cHnk8sA7w5sOJi2v2NePV0GtZ/GM/LiFdmbXAgMasndVlpJTABUE53Eu/tFywSM5l41LcS8U5ymBikdQdxYp9XIEaVNQ84e2RbYFWihOyyRIna+4hpfNfjWg+9eFPGvv4C/Iqo7X838Td6GrFoUI6VPacSBaQs1lSQCYD6aS5w3cgmLcptOHUv1erEq7hU5xOD9P64iP/9bcTYnE8AayfuywSgMMcASFL77Uz6Dd2xwLNZ9MUfYnDn8cBWxIJcKTYjpiyqEBMASWq/5yW2/xkxWHOiszVuIWYbXJW4XxcLKsgEQJLab9uEtrdRbXXNO4ka/ynVQbdLaKtEJgCS1G5LEdMiq/o01Sso/okYLFiVpYELMgGQpHZbj+rv/4eJGv0pfpDQdqPEfSuBCYAktdsKCW2vBW5M3P/vE9qOVwNCfWYCIEnttmxC2xwrN95C9ZoeU3BxoGJMACSp3VIG4eWoBTOJKENcVYklxoUJgCS1XcqKi+tk2P/aVL+WPIirOBZjAiBJ7XZnQtvHARsn7v8FCW1TYlciEwBJarcbSFsVcb/E/ae0vzJx30pgAiBJ7TaPWLSnqkOBNSu2fRlRPrgqV3csyARAktpvvPr9i7Ms8FNiRH4vHg8ck7BfgD8ktlcCEwBJar/fJrZ/JvBLJj4vf7ORfa6WsM9h4KyE9kpkAiBJ7fdrYkR9ihcBfwP2BZZYxL9ZDvgAsRJg6kp+fwb+k9iHEuSYAypJKuse4BfAXon9rEss9/sF4FTgGmKk/mrA04HnA0sn7mOB72bqRxWZAEjSYPg66QnAAquQPjtgPPeQtoaAMvAVgCQNhrNpz6C6o4G7SwfRdSYAkjQ4Dqf5pXVvJ14xqDATAEkaHGcD3ysdxGK8BysANoIJgCQNlncCN5UOYhFOB44rHYSCCYAkDZbbgH2AuaUDWcitwP40/xVFZ5gASNLg+T1wcOkgRnkAeAVwS+lA9AgTAEkaTN8E3l86CGAWcfE/r3QgejQTAEkaXB8H3grML7T/u4EXA2cU2r/GYQIgSYPtK8BuwF017/cSYo2B39e8X02QCYAkDb5fEqV8z65hX/OBbwDbAJfVsD9VZAIgSd1wA7AjUeK3X9MELwCeBfw/YuCfGswEQJK6Y5hY7GdD4M3AlZn6PBt4CXHX72C/lnAxIEnqntnE4kFfB7YD9gReAGwKDE2g/RxiOd/TgBOAa/sTpvrJBECSuu1PIxvAqsDmwMbAWsCyI9vdwEziNcLlwKUj/10tZgIgSVrgNuCskU0DzjEAkiR1kAmAJEkdZAIgSVIHmQBIktRBJgCSJHWQCYAkSR1kAiCN756K7e4F5uUMRJJyMgGQxnd1ze0kqRYmANL4flVzO0mqhQmANL6v0ftrgJnAV/sQiyRlYwIgje924OAe27wVuLUPsUhSNiYA0uJ9n7ioz13Mv5sLHAp8p+8RSVIiEwBpYr4CbAv8mseO7p8HnE4sq/qlmuOSpEpcDVCauIuAnYklU7cAVgLuBP5CrKImSa1hAiD17jbgtNJBSFIKEwBJ6q5lgCkZ+rkfeChDP6qRCYAkdcNSwEuAFxPjWTYBls7Y/53AZcA5wMnAuRn7Vh+YAEjSYJtKTGV9DzF+pV9WAp41sr0XuBQ4Ajipj/tUAmcBSNLg2h24Avgs/b34j2VT4ETiScBTat63JsAEQJIGzxBxx/9TYN3CsWxHJAG7F45DCzEBkKTBsgTwI+CTRCLQBNOIZORtpQPRI0wAJGmwfAp4dekgxjAEfJ5mxtZJJgCSNDj2B95ZOohxDAHHApuXDkQmAJI0KFYk7rCbbllcLbMRTAAkaTC8n5iK1wbPBl5WOoiuMwGQpPZbg96XrS7to6UD6DoTAElqv32Igj9t8hRgq9JBdJkJgCS1X1sfp7+0dABdZgIgSe02majt30bPLh1Al5kASFK7rUf7Hv8v8KTSAXSZiwFJUrutkdj+XmBeQvspxLLCVaxO1AYYTti/KjIBkKR2q3rxBfgTsXpfygV4GWIp4CkV2k4iliR+IGH/qshXAJLUbinn8XtIv/t+AJiT0N7rUCE+AZB6MwnYBtiaKLpyJ3Ah8GdgfsG4JKknJgDSxO0BfALYYIz/7TrgMOCHtUYkSRX56EVavCHgKGKJ1bEu/gDrAz8AvkxzlmCVpEUyAZAW773A/0zw3x4MHN7HWCQpCxMAaXzrAR/ssc0RwEb5Q5GkfEwApPG9hd6nNy050k6SGssEQBrfiyu22ylrFJKUmQmANL71K7ZbL2cQkpSbCYA0vqpV1pYGlsgZiCTlZAIgSVIHmQBIktRBJgCSJHWQCYAkSR1kAiBJUgeZAEiS1EEmAJIkdZAJgCRJHWQCIElSB5kASJLUQSYAkiR1kAmAJEkdZAIgSVIHmQBIktRBJgCSJHWQCYAkSR1kAiBJUgeZAEiS1EEmAJIkdZAJgCRJHWQCIElSB5kASJLUQSYAkiR1kAmAJEkdZAIgSVIHmQBIktRBJgCSJHWQCYAkdddQw/pRjSaXDkCSlGR2QtvtgM8CcxP6WAmYltB+VkJbJTABkKR2uzuh7XTgnbkCqeA+0pIPJfAVgCS129XAcOkgKrqqdABdZgIgSe12H3Bl6SAqurB0AF1mAiBJ7XdG6QAqOrN0AF1mAiBJ7XdC6QAquBf4VekguswEQJLa70/AWaWD6NFRwIOlg+gyEwBJGgzvpT2DAW8jph+qIBMASRoM5wM/LB3EBB1BvAJQQSYAkjQ43gRcXDqIxTge+EbpIGQCIEmDZCawK/GIvYnOBd5YOggFEwBJGizXAc8ELi0dyEL+D3gJaaWLlZEJgCQNnquBZwGnlA4EmA98AngpcE/hWDSKCYAkDaa7iYvuC4G/F4rhTGBL4DAiEVCDmABI0mBbcBHekyi880Cf93cbcBywPZF8/K3P+1NFrgYoSYNvHvDjkW0p4KnAxsAqwNQM/c8EbiHGHVxOe+oRdJoJgCR1y0PABSObOsxXAJIkdZAJgCRJHWQCIElSB5kASJLUQSYAkiR1kLMAtDhDwBOBdYAVCsdyF3AjcAVOM2qa1YGNRv5ziYJxzOKR6Wj3F4xDajwTAC3KssA7idXF1iocy8L+DXwNOIr+FzXR+HYB3g9sSySLTfEgcDLwQWJeuqSF+ApAY9kE+AtwJM27+AM8Dvg4sf75BoVj6aolgW8RleW2o1kXf4ClgT2IKnQHlA1FaiYTAC1sDeAM4AmlA5mAzYDfAKuWDqSDjgbeUDqICZgCHAvsVToQqWlMALSwrxB32G2xHvCZ0kF0zC7AQaWD6MEQ8cpo5dKBSE1iAqDRngjsVjqICl4LPL50EB1yWOkAKlgBOLh0EFKTmABotJfTvHe5EzGJWPZU/bcaMeCvjXYtHYDUJCYAGm2T0gEkaHPsbfIE2nve8BiRRmnrD1n9kWNZ0FKWLh1AR7T5GJmC5zzpYf4YNNpNpQNI0ObY2+Tm0gEkuBmYXzoIqSksBKTRzgLeXTqIin5TOoCOuJyoxrhO6UAq8Bh5tNWBlYBlMvR1L3DryH+qJUwANNqZwDXAhqUD6dE/gXNLB9ERw8C3iQp7bTJMFC7qstWJegg7EQM5+1Ha+ybgHKIK48+IioxqKF8BaLQ5wNto12PSecChI/+penwOuLp0ED36LvCn0kEUsjLwSeAG4ItEAtCvdT3WJpKM7xNPit5Du8eNDDQTAC3sV8C7aMdiO/OAtwK/LR1Ix9xHTBlty3iAs4A3lw6ikLcD1xEX4ik173slIvG4DHhRzfvWBJgAaCxfIE7w15YOZBxXADsDXy8dSEddBmxNPOZtqgeJNSNeTPceRU8BZgCfB5YrGwrrAacSSYgaxDEAWpRfAacDLwSeRywKVHKZV4C5xF3nGcSArrllw+m8m4HdiTUZXk7Ms88xoCzVncRiVj8H/ls4lhKWJn6725cOZJQliKcBqwPvKByLRpgAaDwPAaeMbNKiXDKyqbwh4BiadfEf7e3AVcTaDCrMVwCSNDj+F9indBCLcRTw7NJByARAkgbF2sAHSgcxAUsSq456/SnMP4AkDYaP0IwxGBPxZGDf0kF0nQmAJLXf+sB+pYPo0Qdp5+qjA8MEQJLab1/Kz9Lp1QbAc0oH0WUmAJLUfi8pHUBFO5UOoMtMACSp3ZYCtiwdREVNna7YCSYAktRuGxIj69tok9IBdJmFgCSp3VZJaDufWE1zTkIfywMbVWy7CnEj2qYFyAaGCYAktVvK1L/fAzsm7n8ysUBUlVX/hojSxfcnxqAKfAUgSe2WMpVuVob9zyVtXQ6nAhZiAiBJUgeZAEiS1EEmAJIkdZAJgCRJHWQCIElSB5kAaDxPAY4GLgHuBYYLb/cQc5a/CGzax8+tiZsOvBM4B/gPMI+yx8hs4F/AScAeeI6TFsk6ABrLksAXgDfTrBPodGCzke2tRCLwHuKio/rtAhwHrFo6kFGWAh43su0GXEQkAteWDEpqoiad3NUMSwAnAgfT7ONjCeLO8wScR1zCnsAvaNbFfyxbAucRK89JGqXJJ3iV8V7gZaWD6MEewKGlg+iYDYk7/7YsP7sqkdS2JV6pFiYAGm0l4pF62xwBLFs6iA45kijf2iZPA/YuHYTUJCYAGu3lwHKlg6hgJVxXvC5LE+/W22if0gFITWICoNG2Lh1AgjbH3iabAtNKB1GRx4g0igmARlupdAAJmj4YbVC0+RhZGc950sP8MWi0O0sHkOC20gF0RJuPkTtw3XnpYSYAGu2i0gEkaHPsbXIp8EDpICryGJFGMQHQaL+knSf3e4Bflw6iIx4kjpM2+mHpAKQmMQHQaLcDnysdRAUfJ0oVqx5HEiV32+QS4Hulg5CaxARAC/swcEbpIHpwMvDZ0kF0zBXAQUTt/Ta4C3glMLd0IFKTmABoYXOJegDH0uwT/Hzgq8CrcGBXCd8hqjDeXTqQxbgE2I5IWiSNYgKgscwCDiROnMcCNwBzikYU5gDXAd8i5nQfDDxUNKJu+ylRFvgDwIXA/WXDedhtwOnAAUQFQC/+0hhcDVDj+fPIJi3KncBHRjZJLeITAEmSOsgEQJKkDjIBkCSpg0wAJEnqIBMASZI6yARAkqQOMgGQJKmDTAAkSeogEwBJkjrIBECSpA4yAZAkqYNMANppqHQAHdLm77rNsbdJyvfc5BU3NeBMAMqZRfUf/9LAshlj0dhWpfpvZDYwL0MMDya0XTXD/rV4qye0fSBbFFKPTADKmQ/MTGj/klyBaJF2SWh7T6YY7k1o6zHSf8sBOyS0T/n7SklMAMq6PqHtR4EVMsWhx1oF+FBC++szxZHSz07ASzPFobF9HJie0P76THFIPTMBKOvyhLZPAM4CnpwpFj1iC+B3wLoJfaT8bXP282Pgjfhbz2154KvAWxP6mAtcnSGWlHEES2TY/xAeX600uXQAHfdH4NUJ7Z8G/B34G3ANDihKNQnYCHhqhr7+kKEPgD8RYwmqnqiXBr4JfBi4kLQxBQorAdsByyT2cwExFihVSh/PAU4kbbzKClT/LobxmCzGBKCsMzL0MQQ8fWRTMwyT528LcBdwEbBNYj9r4OuApsl1jNyZ0HYKsHumOKq4hzyDZVWBj23KupS4g9dgOY+873Z/mLEvNccPMvVzNTGouI2uLB1Al5kAlHdM6QCU3bcz9/c9fEw6aP5IvnEiDwIXZ+qrbueVDqDLTADKOwb4T+kglM2/geMz93kbJoqD5mOZ+zstc391aWvcA8EEoLxZwEdKB6FsDgce6kO/HydfbQGVdRbw68x9fi9zf3X4L/nGQagCE4Bm+AZwfukglOx35L/7X+AW4LA+9a36zAYOJv+MnYuBX2bus98+CcwpHUSXmQA0w3xgH7zDa7O7gAPo71TMrwE/72P/6r93AJf1qe//JWoLtMH1RB0FFWQC0BzXAPvSnh+wHvEQUc/hhj7vZxh4PXBJn/ej/jiW/l70ruhz/7kMA+8knoaoIBOAZvkVcCDOi22TucBrgd/UtL+7iBK/19a0P+Xxc+CgGvbzLmKMQZN9AjipdBAyAWii7wJ7kKdCmPrrfmBXotxunW4EngX8teb9qppvE0+I6ni6N4c4f+QoMdwPPwOOKB2EgglAM50EbEkUClIzXU6Ugz210P5vAZ4JfKnQ/rV4s4C3AW+g3ld7twPb0rwnAd8E9qS9RYsGjglAc10KbEWsSOe7suaYA3yKKL1cuvjKLOBQ4AXE+181x++IJP6oQvu/g3hV9BXKX3BnEq8/DsJR/2qI/YnBKFW2GTXHuh4xuGdmQsxuadu9xMl8nfH/VMVMAd5ElFYt/V11dZtPjAV5wWL+VnXblHhNVff3MYeY4rxG/z8iMxLi3K+G+NQw+1P9gJlRf7gALEccrD8kHgGXPuEN+nYz8H1iimbqym91GSJeDXyOWCVyLuW/x0HeHiAu+u8D1p/A36ekbYCjgavo3/cxl1jl8APEjUtdZiTE3NkEwNUA2+U+YpDgd0f++6rAxqQtx6lHux+4m3ikfkfhWKoYBs4d2SCeDGwMrE4cJ0OF4hokDxFPhG4g5rOXfsQ+UefzSMGxBeeOVYElM/T9IFHS/AriSaVawASg3W4b2aRFmU2MVSg9XkHN4rlDDgKUJKmLTAAkSeogEwBJkjqoywlAytz66dmikCSlWj6hbWerrnY5AUgZqbpmtigkSanWSmh7X7YoWqbLCcC9CW0fny0KSVKKIdLOySnXArXU40krePG0+kOWJC1kS9LO5WvXH3IzdPkJwL+J4hVVvSJXIJKkynZNaDuTqPipDvoL1bPG/wDL1h+yJGnEsqSVRb+g/pCbo8tPAADOSWi7BvCOXIFIknr2bqLMdVVn5wpE7bMrae+O7ifeP0mS6rU1sRhTyjl8l9qjVmNMJ/0A+jf1LHcpSQprAjeSdu6eCUyrO3A1ywmkHUTDwNXAZnUHLkkdtDFwOenn7e/UHbia58WkH0jDwD3Aa3FchST1wyRgf2Lefo5z9gvqDV9NNAT8gzwH1DAxs+AVwNQ6P4QkDaipwG7AX8l3nv4rce7vtM5/ASP2An6Quc+ZwBnAP4lpKq69LUkTsyoxturJwAvJ/67+1cBPM/fZOiYAYQliPujTSwciSeqrC4BtgfmlAynN99VhHnAQHhCSNMjmA4fguR6IO1+Fm4HVgG1KByJJ6oujgWNKB9EUvgJ4tKnAufgqQJIGzT+IR/8pa8AMFBOAx9oYOA9YsXQgkqQs7gSeQdRs0QjHADzWlcBLiDK/kqR2e5Ao++7FfyEmAGM7D9gbmF06EElSZbOIKX9/KB1IE/kKYHzPBX4OLF84DklSb2YCuxP1WDQGnwCM73fADsA1heOQJE3cVcAz8eI/LhOAxfs7seTvT0oHIklarB8BWwEXlw6k6UwAJuYeYA/g5cANhWORJD3WTcRiQXsRCwZpMSwE1JsrgW8RgwOfCixdNhxJ6rw7gE8ArwEuLBxLqzgIsLrlgDcBrwc2LRyLJHXNJcCxwDeJAX/qkQlAHlsSo02fR7x7mlw2HEkaOHOJhXx+C5xELL2uBCYA+U0HngQ8EdgQWAlYFlhmEf9+EpE8VP1b/Id2zXFdFtg5of1VwN8yxSLl9DTgCQnt/4923cluD6xZse0wcOLIf47lAeA+4C6igM8VwKUj/z9poFxE/BCqbLfQrsGcr6H6Zx0G9q0/ZGlCXkvasb1P/SFXNom4+aj6WS+oP2QtrE0XjkH2i4S2qxMLXLTFrglt5wCn5ApEyuxk4hitKuW3UbftgDUS2qec86SB8hTS7hw+VX/IlUwhpudU/ZwW9VDTnUn14/s+YkXSNvg0aeeszesPWWquK6n+Y7qqQLxV7ELaSeOt9Ycs9eQQ0o7xl9QfciVXUP0zuihPQ/gKoDlOTmi7Ee2YipjyiHMYHxuq+U4ijtWq2vAaYDNi2fSqfpYrEGlQPIe0O4fD6g+5Jw4aUldcSPXjvA2Det9P2rlq+/pDlpptEvHjr/qj+nP9IffkWaSdNA6vP2SpkiNIO9afWX/IPTmf6p/tVqxA2xhNzzS7ZD5pI9y3BtbJFEs/vCKx/c+zRCH1X+qx2uTXAGsTxc6q+iUwL1Ms0kB5OWl3Dm+pP+QJc9CQumRQB/UeTNo56qX1hyy1w1TSpsmdVn/IE7I5aSeNz9QfspTks6Qd800d1Hs61T9Tm6Y5doKvAJplFmlz3XcEVswUS06pj/8d/a+2ST1mU38z/bA8sENC+18T5zhJizCI5UQvoPrncdCQ2ih11ksTB/WmlvF+Tf0hS+2yAvAQ1X9kP6o/5HGtTQxwrPp5vll/yFIWx1D9uJ9P8wb1/pjqn+chmvl0UmqcQSon+lbS7hp2qT9kKYuXkXbsN2lQb2oZ79PrD1lqp0EqJ3oGg5PMSL1IvWg2aVBvahnvg+sPWWqn1Mfm36g/5DGtAMym+uf4cf0hS1n9lOrHf5Mem3+T6p9jPvC4+kOW2usiqv/gbgGWqz/kxziItORTdNQAAAHrSURBVLuGfesPWcoqdVDvm+oP+TGmk1al9ML6Q5baLbWcaNu3Jt39SFWlDuodhO39yd+i+sI6AM3V9dK3vwPuKh2ElOhu4Pelgyis6+eyxjIBaK6LaXZJ0H6z+I8GRZeP5auBS0oHobGZADTbL0sHUMgw3f3sGjwnEcd0F/2sdABSW21J+fd3Jbazc3x5UoOcQ/nfVYltixxfntRVF1L+R1z31sRyxlKK1NkAbdyaWM5YapWunTj+RRRQkQbJVOBGyv++6tz2zvLNSR02BJxL+R9zXdsr83xtUuPsSfnfV13bOcS5S1KipwIPUP5H3e/NgX8adL+i/O+s39v9wOa5vjBJ8CrSygM3fbuUKJoiDbLpxBTf0r+3fm3zgb2yfVuSHvY2BjMJuAp4fMbvSWqy9Yn58aV/d7m3ecRCZpL6ZHcG63XAn4DVsn5DUvOtTFQILP37y7XNwjt/qRYbEetrl/7Rp2wPAEfiiH9115LAocSy16V/jynb74BN8341ksYzRIyYP5vyJ4BetruBL+Ijf2mB9YCjgHso//vsZTsL2A1H+7eWf7jB8CTgRcBzgCcCq4xspUs9PwjcDtwEnE888jwNmFkyKKmhlgVeTPyOnwGsRfyOly4ZFDHu6PaR7TLid3w6cHnJoJTu/wMnkDn11K0pJQAAAABJRU5ErkJggg==;" vertex="1" parent="1">
          <mxGeometry x="490" y="358" width="72" height="72" as="geometry" />
        </mxCell>
        <mxCell id="Sa5Q3vqMQas_lql_X_UZ-22" value="" style="endArrow=none;html=1;rounded=0;exitX=0.5;exitY=0;exitDx=0;exitDy=0;" edge="1" parent="1" source="Sa5Q3vqMQas_lql_X_UZ-21">
          <mxGeometry width="50" height="50" relative="1" as="geometry">
            <mxPoint x="533" y="320" as="sourcePoint" />
            <mxPoint x="523" y="240" as="targetPoint" />
            <Array as="points">
              <mxPoint x="523" y="240" />
            </Array>
          </mxGeometry>
        </mxCell>
        <mxCell id="Sa5Q3vqMQas_lql_X_UZ-24" value="" style="endArrow=none;html=1;rounded=0;exitX=0.387;exitY=-0.032;exitDx=0;exitDy=0;exitPerimeter=0;" edge="1" parent="1" source="Sa5Q3vqMQas_lql_X_UZ-12">
          <mxGeometry width="50" height="50" relative="1" as="geometry">
            <mxPoint x="603" y="330" as="sourcePoint" />
            <mxPoint x="526" y="431" as="targetPoint" />
          </mxGeometry>
        </mxCell>
        <mxCell id="Sa5Q3vqMQas_lql_X_UZ-25" value="Servers" style="text;html=1;align=center;verticalAlign=middle;resizable=0;points=[];autosize=1;strokeColor=none;fillColor=none;" vertex="1" parent="1">
          <mxGeometry x="497" y="150" width="60" height="30" as="geometry" />
        </mxCell>
        <mxCell id="Sa5Q3vqMQas_lql_X_UZ-26" value="&lt;b&gt;Design By Hedieh Madah&lt;/b&gt;" style="text;html=1;align=center;verticalAlign=middle;whiteSpace=wrap;rounded=0;" vertex="1" parent="1">
          <mxGeometry x="224" y="240" width="190" height="42" as="geometry" />
        </mxCell>
        <mxCell id="Sa5Q3vqMQas_lql_X_UZ-31" style="edgeStyle=orthogonalEdgeStyle;rounded=0;orthogonalLoop=1;jettySize=auto;html=1;" edge="1" parent="1" source="Sa5Q3vqMQas_lql_X_UZ-29" target="Sa5Q3vqMQas_lql_X_UZ-11">
          <mxGeometry relative="1" as="geometry" />
        </mxCell>
        <mxCell id="Sa5Q3vqMQas_lql_X_UZ-29" value="Firewall" style="shape=image;verticalLabelPosition=bottom;labelBackgroundColor=default;verticalAlign=top;aspect=fixed;imageAspect=0;image=data:image/png,iVBORw0KGgoAAAANSUhEUgAAAgAAAAIACAYAAAD0eNT6AAAABHNCSVQICAgIfAhkiAAAAAlwSFlzAAAOxAAADsQBlSsOGwAAABl0RVh0U29mdHdhcmUAd3d3Lmlua3NjYXBlLm9yZ5vuPBoAACAASURBVHic7d17uG5VXS/w72Jv7heBFAEhRZS8gIZieCQvoOatPCZl6HkwTNPU1NI0PFlpaqeTtzxpipl2sfSYmHkrTCWtMDwokqIGKHiDQEGEDchl79Uf0+3Zbfde+11rjDney/h8nmc++5815/yNuec7x/ed75xjJABt/UiS5yU5I8nlSTZ9798zkjw1yW7TKw0AqGUpyXFJXpPkwiTLO1guSfKAaRQKAJS7e5KXJ7k4O+70t15uTPLo9iUDAGuxe5JTkpyd1Xf6Wy/XJrlT0+oBgFU5LMkrk1yZ8o5/y+X0lo0AACZz9yR/keTm1O34Ny+3JDmwWWsAgBUdneQ9GZ7gH6Pj33J5fKM2AQDbcXiSv0qbjn/z8sImLYPOrJ92AcBcuHWS387wnv4uU64FABjZUpInJrki7b7xb72cNHorAYDvOzrJJzK9jn85ycYkB4/dUABguMX/0oz3ZP9qljNHbisAkOTIJJ/K9Dv+zcspo7YWADq3lOT5GYbgnXanv3nZkGTvMRsNAD3bP8n7Mv0Of+vlbWM2GgB6du8kX8r0O/ttLY8Zsd0A0K3HJ7kh0+/ot7Vcl2TP8ZoOAP3ZKcn/zvQ7+ZWWvxmt9QDQoT0zjOE/7Q5+R8svjnUAAKA3+yX5l0y/c59kOWykYwAAXTkwyWcy/Y59kuXCkY4BsIWdpl0AMLo7JjkryT0b7OvfK2zjwxW2AQBdu0OSr2T8b+2XJ3lahtcKS7f1uDEOBAD04pCM/47/jUlem+RW39vnkyps89DqRwIAOnFwkgsybuf/T0nutNV+X1u4zUsrHgMA6MreSc7NeB3/DUl+Pcm6bez744XbPr3SMQCAruyc5IyM1/mfneQu29n3UpKrC7f/ggrHAAC6spTkrRmv839VkvUr7P/QCvs4ofAYAEB3Ts04Hf+GJCdNsP8HVtjXQWtuPQB06CFJbkn9zv/CJEdNWEPpGwDfXlvTAaBPd0xyZep3/h9Psu8q6vidwv396+qbDqyVkQBhvu2e5N1J9q+83fcneViGh/omdcfCfX6xcH0A6MYfpv43/z/Pyg/7bU/pREOnrmGfANCdRybZlLqd/2szvE2wFhcX7vtn17hfAOjGbZJclrqd/1uz9s4/Sa4t3P/9C/YNAF14d+p2/u/Itkf2m9QuFWr4kYL9A8DCOzF1O/8PJdm1sKaDKtRxqx/YKgCQZOgkv5F6nf8nkuxRoa4jC+v4bsp+fgCAhfbG1Ov8L80wa2ANDyys5auV6gCAhXPvJBtTp/O/Mcl/q1jbIwrr+VTFWoAJGAgI5serU+8z+6wMt/9rWcu4AVvaUKUKYGICAMyHxyZ5QKVt/UmSN1Xa1mal15Ibq1QBAAtklyQXpc6t/y8l2WuEGh9bWNd7R6gJWIE7ADD7Tk5yeIXtbEryCxnndnvpTwCbqlQBTEwAgNm2U5IXVNrWq5N8rNK2tlYyiFCN9YFVEgBgtp2Y5IgK2/lCkt+ssJ3t2Vi4fukdBGCVBACYXUtJXlhpW8/KMNjOWK4pXH+XKlUAExMAYHYdn+ToCtt5T5KPVNjOSq4tXH+fKlUAwAL469QZ8OfODWo9qrDOf29QIwDMvIOS3JTyAPB7jeq9fWGdlzWqEwBm2m+lvPO/Ku1ure9fWOvN8SYAAJ3bKcPkOKUB4KUNa16f5JbCem/XsF4AmDnHp7zzvy7JbRrXXRpajm1cL3TNWwAwe55QYRtvSfLNCttZjYsL1799lSqAiQgAMFt2yTCufqk3VNjGal1SuP5daxQBTEYAgNnyyAwP1JU4M8nnK9SyWqV3AAQAaEgAgNny0xW28cYK21iL0gBwtypVAMCcWZfkipQ9SHdFpjes7gMmrHGlVwH3bF41dModAJgdx6b8yf2/zjCA0DScl6EjX6v1SY6pVAuwAwIAzI5HVdjG2ytsY62+k+Siwm3cr0YhwI4JADA7Hl64/teSnFWjkAKfLFz/uCpVADskAMBs2DfJPQu38TdJNlWopcT/K1z/QUl2q1AHsAMCAMyG41I+Fv4HahRSqDQA7JnkgTUKAVYmAMBsuH/h+tcl+XiNQgqdm+Fp/hKPqFEIAMyDs1L2Ct1725e8XaVt+Wp8OYHR+ZDB9O2c5OjCbXykRiGVvL9w/UPjZwAAOnDPlM/+d6/mVW/fUSlvz1uaVw0AjZ2css7ymgyD6MySS1Lepr1aFw098RMATN+PFq7/r0luqVFIRaU/A+yd5Ek1CgG2TQCA6St9///TVaqoqzQAJMlzUv5qJADMrK+k7Hb5E9qXvEO7Jbk65c8C1JgdEQBmzq5JNqask7x786onc1rKA8A5SZZaFw4AY7tLyjrIGzN7DwBudr+UB4DlJCe1LhwAxvaolHWOF7QveWJLSb6Y8gBwUYaxEoCKPAQI03X7wvW/XKWKcSwneX2F7Rye5OkVtgNsQQCA6TqgcP1ZDgBJ8qdJvlNhOy/LMEIgUIkAANN1m8L1v1qlivFcmyEElNo7yR9V2A7wPQIATFdpAPhmlSrG9aokN1XYzk8m+bkK2wEiAMC0lf4E8K0qVYzra6lzFyAZ7gKUPjcBAFP36ZQ9IX+/9iWvyWEZXlms8Vrg2Ul2aVs+LB53AGC6di9c/+oqVYzv4iRvqLStH0vyikrbAoCpuCRl34bv2Lzitbt16gwPvHk5pWn1AFDRf6SsEzy4fclFnp96AeCmJA9vWz4A1FH6jXj/9iUX2TnJ51IvBFyb5JimLQCACq5KWQe4b/uSi90/yabUCwGXZ3YnRAKAbboiZZ1f6WuE0/LHqRcAljOMh3Dvpi0AgAKXpqzju137kqvYM8mFqRsCrk1yfMtGAMBafSVlnd5h7Uuu5v5JNqZuCNiQYcRAAJhp/56yDu8e7Uuu6uWpGwCWM4SKF2aYjhgAZtLZKevsHtS84rp2SnJG6oeA5STvzPBTAwDMnL9LWSf32PYlV3dAhvkCxggBn0lyt3ZNgflhKGCYrm8Xrv9DVaqYriuSnJjk+hG2fc8kn0ryq3G9g//CBwKmqzQAHFKliun7ZJKTM4wPUNtuSV6d5MMxkyB8nwAA03VZ4fqL1KG9O8kLRtz+8Un+LcmvxWyCAEzZE1P2G/eZ7Use3e9mnOcBtlwuiNcFAZiiB6asI/tK+5Kb+D8ZPwQsJ3lfkrs2ahMAfN8dUtaBbUqyd+uiG1hKclrahICNSd6R5MgmLQOADLPj3ZyyDuy+zatuYynJK9MmBGwOAu/K8OYAAIzu8ynruH6xfclNvSjtQsDmuyrvTXJci8YB0K+/TlmH9YftS27uF5PclLZBYDnJP2V4WNCwwgBU99sp66TOaV/yVJyQ5Mq0DwHLST6b5PHx6jQAFf1Myjqnm9PPmPd3TvKFTCcELCc5P8njIggAUMGdUt4xHd+86unZK8lfZnohYPMdgRPjpwEACixlGA+/pEP67eZVT9/TktyQ6QaBc5I8eOyGArC4/jZlHdEn2pc8E45K8ulMNwQsZ5jV8R4jtxWga8ckOTXJGzIMFPMbGV7XmvdbsaemrAO6JYsxM+Ba7JzkJZnOWwJbLhuT/GkWZ4ImgJlwbJKzs/2L779leEp8Xj0g5R3QSc2rni33ynBLftp3AzYk+Z9Jdh23uQCLbacM3/InGS1vY5KXJVk/lUrL7Jqh4yjpeN7evOrZsy7J05NclekHgYuS/NS4zQVYTLdN8qGs/sL7T0kOnUK9pd6f8m+eezSvejYdkORPMvw0Mu0g8MEkh4/bXIDFcUKSS7P2i+63kjykedVlnpXyzuZxzauebUdmmPFv2iHg+iS/nuF5BQC2YV2GB7pqfHO7OcPt4Hlx55S3+V3Nq54P90/yz5l+EDgvw/MsAGzhwCRnpv5F97UZgsU8uDBlbd2QZPfmVc+PB2ZtPyvVXDZmOCf9XAOQ5OgkX8t4F933Zz46xv+V8rb+ZPOq5899krwnw8x/0woCF8SMg0DnTkz5E/CTLB9Lsk+jNq3V0Slv55uaVz2/jkzy55new4KbMoxn4W4A0JWlJL+Ztt/C/jXJfi0aV+CClLXx0sz/wEit/UiGQXwmed10jOX8JPccu5EAs2D3DO+tT+Nie26S/cdv4pq9POVtPLJ51YvhsAzfyG9M+/PyhiTPjvAGLLCDk3wy0+n8Ny+fyDCr3Cy6T8rb98zmVS+WQzI8qHd92p+b70tym/GbCNDWEUkuyXQ7/83LhzKbw7UuJbksZW37v82rXkwHJ3lLhif3W56b38jwxgLAQrhXkssz/Y5/y+Vdmc1XBN+csnZd1r7khXZ0ko+k7bl5c5Jfi58EgDn3oCTfyfQ7/G0tvz9es9fssSlv1+2aV734Hp3ki2kfUmf97RWAbfrvGR5wmnZHv9Jy8mitX5sDU96mRzSvug87J/nlDMNNtzo/v5jkri0aB1DLKZneq1WrWW5Ict9xDsGafTVlbTq1fcld2TfJK5PclDbn6NVJHt6kZQCFnp3pjrS22uUbGWaRmxWnp6w9b2tfcpfukXZvtdyS5DltmgWwNs/IuJ3/3yb5zAjb/UBm56GrF6WsLWe1L7lb65I8L8l1aRMETouZBYEZ9KSM99rUpiS/l2SnDLdg/2WEffxq/UOyJv8jZe34evuSu3dY2k029OF4OBCYIU/MeJ3/tRnmDdjSnkn+ofJ+vpvhlcVp+/GUtWNjkl2aV81Skl9IclXGDwHnJLltm2YBbN9JGW9SlS9n+K11W3ZN/W9dn830O89DU96O2zevms0OzPAK39gh4EtJ7tyoTQA/4MSM97T/mUluvYP975lheN+a+33RWg9GJbukvA3bC0208wsZ/9mAKzIMVgTQ1MMy3qtQb8/k38T3T/JvFfd9Q4ZZ4qap9Lj+ePuS2Ya7ZbirNGYIuCrJsa0aBPCjSa7JOBe0P8jwsN9qHJzhdb5aNXws030r4Ort1DXpYjCg2bF7hqf3xwwB1yR5QKsGAf364dTtbDcvm5L8ekFdx6buyIOPK6il1KUr1DXJ8pj2JbMDP5dxh8W+LslDm7UG6M4+Sc5L/YvXLUmeUqG+kyvW9OVMb9bAKyascXvLo9uXzARun2GchrFCwPVJTmjWGqAbu2Z4MK/2ReuGJI+qWOfrK9b2vIp1rcaGVdS4reWn2pfMhHZJ3XN062VDPAMCVLSU5C8zTudfe5zz3ZOcX6m+qzI8ZNjSTikfTbFmoGIcT0tyY8YJAd9J8mPtmgIsst/JOJ3/w0aq9+jUu7i+eKQat2efCjX7BjgfHpDyn3tWCq9HtWsKsIgenfrj+1+f5CdGrvsFlWq9MsneI9e6pbtVqPnuDeulzB2SfD7jhICvx6BQwBodkfJX0rbV+bd4WnldknMr1fz8BvVu9qgK9R7YsF7K7ZfkHzNOCLgwszXbJTAH9kq939I3Lzdm/G/+Wzoude5eXJZkt0Y1P7Ow1ptjxrh5tGuGAbDGCAFnJdmjXVOAebaU5J2pexHamGHegNbessZ6t16e2KjePyis8+JGdVLfUpLXZpwQ8K7MzpTXwAx7fupfgJ7dtAX/3wEZZhSs8S2qhdKpjj/aqE7G85KMEwJe2rIRwPw5IfVn93t50xb8oJelTjvGnmRn5wzPSJTU+KaRa6SN56b+w7ebkjy+ZSOA+fFDGZ4crnnReXOmf+tx39SZp/2PRq7z6Ao1PmPkGmnn6akfAm6IMQKAbTg9dS8270+yvmkLtu83Ut6eqzL5LIVr8bwKNZoZbrE8I/VDwFey46m2gY48OXUvMudnGNRmVuybOs8CjDnK3pmFtd2cYSREFssvp34IOCOrn3UTWEB3Tp3OcfPyrSSHN23BZF6X8rb92Ui17ZvkpsLaWj2oSHs17g5tvbykaQuAmbNzkrNT76JyU5Ljm7ZgckdkeB2xpH1XZ5xZAp9QWNdyhocdWVy/m7oBYGPGG44bmAO1npDfvDy9bfmr9sGUt/ERI9T1DxXqevAIdTE7lpKclrqf18uS3KZlI4DZcGzqvvL3hrblr8lJKW/nayrXdFhm984Es2Vdknenbgh4b6b/pg7Q0M5Jzku9i8g5mY8OaPcM06WWtPX8yjW9tLCe5QzTNdOHPZJ8MnVDwC81bQEwVaem3sXjO5nNh/62p8bwwIdUqmWPJJdXqOexlephPhyY4XW+Wp/h6zI8DAwsuMNTPuLclsvPtS2/2MNT3uZTKtXyKxVq+Xa8/tejo1L37Z2PxauBsPA+lHoXjXn43X9ru2X4xlPS7jdWqGPX1Bl5cewRCpldj0ndMQJm/SFeoMDJqXexOC/z+83z/Slr+6cq1FDj2/9ykvtUqIX59Xup95m+JskPty0faOHWSb6ZOheKG5LctW35VT0zZe2/KcOdhLW6bYZb96X/D58sqIHFsC517+q9t235QAtvTL2LxPMb117bXVJ+DErG3a/xIOJy5u/5C8ZxQJJLU+/zPeaQ10BjR6beO/9nZfjWMc+WUj5D4FPXuO/jUv7e/3KSizM7ky0xfQ9JnfNqOclFKbvDBcyQM1LnwnBDkrs1rn0sf5+yY/H7a9jnXkkuKNxvaQBhcdUcLvhFjWsHRvDI1LsoPLdx7WN6ScqOxXvWsM+3Fu5z8/KlDIM5wZbWZxiUq8Y5dl2Sg9uWD9S0PsnnU+eC8M9ZrPeEfzplx+Nzq9xfjWGINy8/v/rm0okjk3w3dc6zNzWuHaio9Gn3zctNWZxb/5sdmbJjckMmH0P9mJSPPbB5+VQWK4hRX62RPm/OfL/tA93aN/Ve+3tF49pb2C3lD03tN8F+DknyjcL9bF42JfnxkkbThXWpN1/A3zSuHaigxiQzyxlGq9u7ce2tXJKyY3PEDra/b5JzC/ex5fK20gbTjXul3ps/Ja+8Ao3tl2GK2Bof/pMa197Sx1N2bI5bYdv7pu6sbd/K8L43TOq1qXPuva914cDalT7hvnn5aOvCGzs9ZcfnMdvZ7q2SnF247a2XJ9ZqNN3YJ3V+ftqU5OjGtQNrsG/qfPtfxAf/tlY6OuIp29jm7TI8qFez839XxTbTl1NS5xw8vXHdwBq8OHU+8K9vXPc0vCxlx2jrwXiOTp0Z/rZcvpQh1MFa7JTk0yk/DzfGGwEw026VOpPMXJvkwMa1T8MLUnacnrnFtk5MsqFwe1svN8Zsf5Q7PnXOR1NPwwz7rdT5oP9O68Kn5HkpO06/mmSPJKcVbmd7y7PHazqd+UDKz8cNmezVV6CxPZNcmfIP+RUZHh7qwa+k7Fi9LckXCrexveXdmXygIdiRYzI8zFd6Xs77TKCwkH4pdTqe57QufIqelXE679Ll01ncsReYnvem/Ny8OEaihJmylOT8lH+4v5xk18a1T9NzMv3OflsX2IPGbDTdulfq3AV4aOvCge17WOp0Pk9pXfiU1XpmotZyZZK7jNpielc6DfZykr9qXjWwXR9M+Yf6sgzj4/fkFZl+p795uSHG+Wd8D02dc9XDgDADjkj5pDbLSZ7buvAZUDoQUK3lpmx/VEGoaSnJeSk/Z5/RunDgB/1hyj/MVybZq3XhM+CdmX7n/90kPzV2Q2ELT0r5efvx5lUD/8U+Sa5J+Yf5xY3rnhW1x+tf7XJ9huc3oKU9Uj5g2MZ4WBWm6skp74Q2JLl168JnxBWZXud/XZKHjN9E2KbXpfwc/uXmVQPfVzqd7XKGnxB6tEfqvBK1luVbWXkqYRjbPVJ+Hn+sedVAkuTwlHdgm9LvBB9HZjqd/xeT3KlB+2BHzk3ZuXxLkv2bV82aGcFpcTwx5UPFnplhKNseTWN+83/O8KrfRVPYN2zt7YXrr4ufsaC5pQzTxJZ+Gz2xdeEz5NVp+83/zUl2btIymMyhKb+L+JbmVUPnHpTyDunrSdY3rnuWfDRtOv7rkzytUZtgtc5K2fl9aUxaBU29NeUd0281r3q21Jg5cUfL+RmeNYBZdWrKz/O7N68aOrVryt/9vznJwa0LnyF7Z/zO/48zvGkAs6zGw7BPbV41dOpRKf/A/n3zqmfLmAHgP5L8TLumQLGLU3bO/1n7kqFPf5zyTurk5lXPni+nfuf/Z0l+qGUjoILTUnbee6sFGliX5PKUfVg3pM9x/7f2F6nX8V+c5Cfalg/VPCHln4EDmlcNnbl/yj+of9m86tl0TMpfgdqQYR6FPduWDlUdkvLrigAMI6vx7vojm1c9u/4qazuGGzO8iXG79iXDKErHFfm19iVDX0p/t748fb/7v7V9kpyTyY/fpiTvy3RGEYQxvSNl15a/aF8y9ONHU/7t/7TmVc++vZO8LTv+xv/ODP8HsIhekLJry3ntS4Z+1Biw41HNq54fP5bkVUk+m+Sq7y3nJXllkrtMsS5o4aEpu7ZcHyMCwmjOSNkHdEOS3ZtXDcyD26T8C8ZBzauGDuySoQMv+XCe3rxqYJ5clbJrzHHtS2Y1TAc8n+6b8lfN3lejEGBhlQ7oc1iVKhiNADCfji9cf1OSD9YoBFhYFxauf2iVKhiNADCfTihc/+wkV9QoBFhYlxSubzTAGScAzJ89khxbuI0P1ygEWGj/Ubi+ADDjBID5c1yGKYBLfKxGIcBCEwAWnAAwf+5buP5NST5RoxBgoZUGgFtXqYLRCADz55jC9c/OMEgHwEquLlx/jypVMBoBYP6UBoB/rFEEsPBKvygYaGzGCQDz5cAkBxduw+//wCSuK1xfAJhxAsB8Kf32f0v8/g9Mxh2ABScAzJf7FK7/+fj9H4AIAPOm9A7Ap6pUAfSgtH/YWKUKRiMAzJd7Fa5/bpUqgB6U9g+3VKmC0QgA82P/DA8BlnAHAJjUzoXruwMw4wSA+XFE4fobk5xXoxCgC/sUrn9jlSoYjQAwP0oDwBdS/loP0I/9Ctf/dpUqGI0AMD/uXLj+Z6tUAfTiVoXrl44kyMgEgPlRegegdG5voC+lY/kLADNOAJgfpXcALqhSBdCLQwrX9xPAjBMA5sNSBACgrUML1/9GlSoYjQAwHw5KslfhNi6qUQjQjdI7AF+vUgWjEQDmwwGF638zbscBq7N/4fpfrVIFoxEA5sP6wvU9AAis1rrC9d0BmHECwHz4UuH6BgACVqvkunNzfPGYeQLAfPh2kk8XrP+RWoUA3fhowbpnx8BjUM1TkyyvYflaysf0BvqzV4bnh9Zy3XnCFOqFhbUuyTlZ/QfxZ6ZRLLAQTsnqrzkfj7vLUN0hSb6SyT+IL5tOmcACeU0mv+ZcmOTg6ZQJi++gJB/Kyh/Cq5P80rQKBBbKUpJnJbk+K193PpDktlOqEbpyQpI/T3Jxku9keFDwrCSnxocQqO+2SV6c4TpzbZLvJvlykj9N8qBpFQUAAAAAAAAAAAAAAAAAAAAAAAAAAAAAAAAAAAAAAAAAUNPSGtY5KslTkjw4yR2S7FmzIABgItcluSTJh5O8OcnnVrPyagLArklek+RpSXZazU4AgFFtTPLGJM9NctMkK0waAHZN8ndJjl9bXQBAAx9N8ohMEALWTbjB1yX52ZKKAIDRHZZkvwxf2lc0yR2Ao5J8Jm77A8A82JjknknOX+mPJunUnzLh3wEA07cuyZN39EeTdOwPKa8FAGjooTv6g0l+Arg2yV7ltQAAjVybZJ+V/mCSALBcpxYAoKEV+3i/7QNAhwQAAOiQAAAAHRIAAKBDAgAAdEgAAIAOCQAA0KH1DfaxmimHYWul41A4/yjh/GOaRh2Hxx0AAOiQAAAAHRIAAKBDAgAAdEgAAIAOCQAA0CEBAAA6JAAAQIcEAADokAAAAB0SAACgQwIAAHRIAACADgkAANAhAQAAOiQAAECHBAAA6JAAAAAdEgAAoEMCAAB0SAAAgA4JAADQIQEAADokAABAhwQAAOiQAAAAHRIAAKBDAgAAdEgAAIAOCQAA0CEBAAA6JAAAQIcEAADokAAAAB0SAACgQwIAAHRIAACADgkAANAhAQAAOiQAAECHBAAA6JAAAAAdEgAAoEMCAAB0SAAAgA4JAADQIQEAADq0NMHfLI9eBQBQ24p9vDsAANAhAQAAOiQAAECHBAAA6JAAAAAdEgAAoEMCAAB0SAAAgA4JAADQIQEAADokAABAhwQAAOiQAAAAHRIAAKBDAgAAdGh9g32sOB9xB5YL1+/9+FHG+cc0Of/KlB6/FbkDAAAdEgAAoEMCAAB0SAAAgA4JAADQIQEAADokAABAhwQAAOiQAAAAHRIAAKBDAgAAdEgAAIAOCQAA0CEBAAA6JAAAQIcEAADokAAAAB0SAACgQwIAAHRIAACADgkAANAhAQAAOiQAAECHBAAA6JAAAAAdEgAAoEMCAAB0SAAAgA4JAADQIQEAADokAABAhwQAAOiQAAAAHRIAAKBDAgAAdEgAAIAOCQAA0CEBAAA6JAAAQIcEAADokAAAAB0SAACgQwIAAHRIAACADgkAANAhAQAAOiQAAECHlib4m+XRqwAAaluxj3cHAAA6JAAAQIcEAADokAAAAB0SAACgQwIAAHRIAACADgkAANAhAQAAOiQAAECHBAAA6JAAAAAdEgAAoEMCAAB0SAAAgA6tb7CPFecjhh1YLlzf+UcJ5x/TVHr+rcgdAADokAAAAB0SAACgQwIAAHRIAACADgkAANAhAQAAOiQAAECHBAAA6JAAAAAdEgAAoEMCAAB0SAAAgA4JAADQIQEAADokAABAhwQAAOiQAAAAHRIAAKBDAgAAdEgAAIAOCQAA0CEBAAA6JAAAQIcEAADokAAAAB0SAACgQwIAAHRIAACADgkAANAhAQAAOiQAAECHBAAA6JAAAAAdEgAAoEMCAAB0SAAAgA4JAADQIQEAADokAABAhwQAAOiQAAAAHRIAAKBDAgAAdEgAAIAOCQAA0CEBAAA6tDTB3yyPXgUAUNuKfbw7AADQIQEAADokAABAhwQAAOiQAAAAHRIAAKBDAgAAdEgAAIAOCQAA0CEBAAA6JAAAQIcEAADokAAAAB0SAACgQwIAAHRofYN9rDgfcQeWM8wvkgAAAcxJREFUC9fv/fhRxvnHNDn/ypQevxW5AwAAHRIAAKBDAgAAdEgAAIAOCQAA0CEBAAA6JAAAQIcEAADokAAAAB0SAACgQwIAAHRIAACADgkAANAhAQAAOiQAAECHBAAA6JAAAAAdEgAAoEMCAAB0SAAAgA4JAADQIQEAADokAABAhwQAAOiQAAAAHRIAAKBDAgAAdEgAAIAOCQAA0CEBAAA6JAAAQIcEAADokAAAAB0SAACgQwIAAHRIAACADgkAANAhAQAAOiQAAECHBAAA6JAAAAAdEgAAoEMCAAB0SAAAgA4JAADQIQEAADokAABAh5Ym+Jvl0asAAGpbsY93BwAAOiQAAECHBAAA6JAAAAAdEgAAoEMCAAB0SAAAgA5NEgCuHb0KAKCma3b0B5MEgK9VKAQAaOerO/qDSQLAP1QoBABo50M7+oNJhgI+MslnkqwrLgcAGNvGJPdI8vmV/miSOwCfS/LGGhUBAKN7fXbQ+SeT3QFIkl2SfDDJg0sqAgBG9eEkj0xy847+cNLb+huTvCPJfknuHa8PAsAs2ZjkdUl+PhN0/snkdwC2dPckT07y0CR3SLLXGrYBAJTZkOSSDA/8/UkmuO2/pf8Ek1D2T6YhqusAAAAASUVORK5CYII=;" vertex="1" parent="1">
          <mxGeometry x="210" y="343" width="66" height="66" as="geometry" />
        </mxCell>
      </root>
    </mxGraphModel>
  </diagram>
</mxfile>
